G04*
G04 #@! TF.GenerationSoftware,Altium Limited,Altium Designer,22.8.2 (66)*
G04*
G04 Layer_Color=16711935*
%FSLAX44Y44*%
%MOMM*%
G71*
G04*
G04 #@! TF.SameCoordinates,5B037859-B446-4BB1-8760-713DD72627CB*
G04*
G04*
G04 #@! TF.FilePolarity,Positive*
G04*
G01*
G75*
%ADD11C,0.2540*%
%ADD13C,0.1524*%
%ADD70C,0.1000*%
%ADD71C,0.1270*%
%ADD72C,0.0254*%
G54D11*
X-26846Y44408D02*
Y133808D01*
Y44408D02*
X52154D01*
Y133808D01*
X-26846D02*
X52154D01*
G54D13*
X-12700Y16510D02*
Y34290D01*
X8890Y12700D02*
X12700Y16510D01*
X-6350Y12700D02*
X6350D01*
X-8890D02*
X8890D01*
X-12700Y16510D02*
X-8890Y12700D01*
Y38100D02*
X8890D01*
X12700Y34290D01*
X-12700D02*
X-8890Y38100D01*
X12700Y34290D02*
X16510Y38100D01*
X12700Y16510D02*
X16510Y12700D01*
X34290D02*
X38100Y16510D01*
X34290Y38100D02*
X38100Y34290D01*
X16510Y12700D02*
X34290D01*
X16510Y38100D02*
X34290D01*
X85090Y12700D02*
X88900Y16510D01*
X69850Y12700D02*
X82550D01*
X67310D02*
X85090D01*
X63500Y16510D02*
X67310Y12700D01*
X41910Y38100D02*
X59690D01*
X41910Y12700D02*
X59690D01*
Y38100D02*
X63500Y34290D01*
X59690Y12700D02*
X63500Y16510D01*
X38100D02*
X41910Y12700D01*
X38100Y34290D02*
X41910Y38100D01*
X67310D02*
X85090D01*
X88900Y34290D01*
X63500D02*
X67310Y38100D01*
X88900Y34290D02*
X92710Y38100D01*
X88900Y16510D02*
X92710Y12700D01*
X110490D02*
X114300Y16510D01*
X110490Y38100D02*
X114300Y34290D01*
X92710Y12700D02*
X110490D01*
X92710Y38100D02*
X110490D01*
X161290Y12700D02*
X165100Y16510D01*
X146050Y12700D02*
X158750D01*
X143510D02*
X161290D01*
X139700Y16510D02*
X143510Y12700D01*
X118110Y38100D02*
X135890D01*
X118110Y12700D02*
X135890D01*
Y38100D02*
X139700Y34290D01*
X135890Y12700D02*
X139700Y16510D01*
X114300D02*
X118110Y12700D01*
X114300Y34290D02*
X118110Y38100D01*
X143510D02*
X161290D01*
X165100Y34290D01*
X139700D02*
X143510Y38100D01*
X165100Y34290D02*
X168910Y38100D01*
X165100Y16510D02*
X168910Y12700D01*
X186690D02*
X190500Y16510D01*
X186690Y38100D02*
X190500Y34290D01*
X168910Y12700D02*
X186690D01*
X190500Y16510D02*
Y34290D01*
X168910Y38100D02*
X186690D01*
X-12700Y-8890D02*
Y8890D01*
X-8890Y12700D02*
X8890D01*
X-8890Y-12700D02*
X8890D01*
Y12700D02*
X12700Y8890D01*
X8890Y-12700D02*
X12700Y-8890D01*
X-12700D02*
X-8890Y-12700D01*
X-12700Y8890D02*
X-8890Y12700D01*
X219710D02*
X237490D01*
X241300Y-8890D02*
Y8890D01*
X219710Y-12700D02*
X237490D01*
Y12700D02*
X241300Y8890D01*
X237490Y-12700D02*
X241300Y-8890D01*
X215900D02*
X219710Y-12700D01*
X215900Y8890D02*
X219710Y12700D01*
X190500Y8890D02*
X194310Y12700D01*
X212090D02*
X215900Y8890D01*
X194310Y12700D02*
X212090D01*
X165100Y8890D02*
X168910Y12700D01*
X165100Y-8890D02*
X168910Y-12700D01*
X186690D02*
X190500Y-8890D01*
X186690Y12700D02*
X190500Y8890D01*
X168910Y-12700D02*
X186690D01*
X168910Y12700D02*
X186690D01*
X190500Y-8890D02*
X194310Y-12700D01*
X212090D01*
X196850D02*
X209550D01*
X212090D02*
X215900Y-8890D01*
X143510Y12700D02*
X161290D01*
X143510Y-12700D02*
X161290D01*
Y12700D02*
X165100Y8890D01*
X161290Y-12700D02*
X165100Y-8890D01*
X139700D02*
X143510Y-12700D01*
X139700Y8890D02*
X143510Y12700D01*
X114300Y8890D02*
X118110Y12700D01*
X135890D02*
X139700Y8890D01*
X118110Y12700D02*
X135890D01*
X88900Y8890D02*
X92710Y12700D01*
X88900Y-8890D02*
X92710Y-12700D01*
X110490D02*
X114300Y-8890D01*
X110490Y12700D02*
X114300Y8890D01*
X92710Y-12700D02*
X110490D01*
X92710Y12700D02*
X110490D01*
X114300Y-8890D02*
X118110Y-12700D01*
X135890D01*
X120650D02*
X133350D01*
X135890D02*
X139700Y-8890D01*
X67310Y12700D02*
X85090D01*
X67310Y-12700D02*
X85090D01*
Y12700D02*
X88900Y8890D01*
X85090Y-12700D02*
X88900Y-8890D01*
X63500D02*
X67310Y-12700D01*
X63500Y8890D02*
X67310Y12700D01*
X38100Y8890D02*
X41910Y12700D01*
X59690D02*
X63500Y8890D01*
X41910Y12700D02*
X59690D01*
X38100Y-8890D02*
X41910Y-12700D01*
X59690D01*
X44450D02*
X57150D01*
X59690D02*
X63500Y-8890D01*
X12700Y8890D02*
X16510Y12700D01*
X12700Y-8890D02*
X16510Y-12700D01*
X34290D02*
X38100Y-8890D01*
X34290Y12700D02*
X38100Y8890D01*
X16510Y-12700D02*
X34290D01*
X16510Y12700D02*
X34290D01*
X241300Y-8890D02*
Y8890D01*
X245110Y12700D02*
X262890D01*
X245110Y-12700D02*
X262890D01*
Y12700D02*
X266700Y8890D01*
X262890Y-12700D02*
X266700Y-8890D01*
X241300D02*
X245110Y-12700D01*
X241300Y8890D02*
X245110Y12700D01*
X473710D02*
X491490D01*
X495300Y-8890D02*
Y8890D01*
X473710Y-12700D02*
X491490D01*
Y12700D02*
X495300Y8890D01*
X491490Y-12700D02*
X495300Y-8890D01*
X469900D02*
X473710Y-12700D01*
X469900Y8890D02*
X473710Y12700D01*
X444500Y8890D02*
X448310Y12700D01*
X466090D02*
X469900Y8890D01*
X448310Y12700D02*
X466090D01*
X419100Y8890D02*
X422910Y12700D01*
X419100Y-8890D02*
X422910Y-12700D01*
X440690D02*
X444500Y-8890D01*
X440690Y12700D02*
X444500Y8890D01*
X422910Y-12700D02*
X440690D01*
X422910Y12700D02*
X440690D01*
X444500Y-8890D02*
X448310Y-12700D01*
X466090D01*
X450850D02*
X463550D01*
X466090D02*
X469900Y-8890D01*
X397510Y12700D02*
X415290D01*
X397510Y-12700D02*
X415290D01*
Y12700D02*
X419100Y8890D01*
X415290Y-12700D02*
X419100Y-8890D01*
X393700D02*
X397510Y-12700D01*
X393700Y8890D02*
X397510Y12700D01*
X368300Y8890D02*
X372110Y12700D01*
X389890D02*
X393700Y8890D01*
X372110Y12700D02*
X389890D01*
X342900Y8890D02*
X346710Y12700D01*
X342900Y-8890D02*
X346710Y-12700D01*
X364490D02*
X368300Y-8890D01*
X364490Y12700D02*
X368300Y8890D01*
X346710Y-12700D02*
X364490D01*
X346710Y12700D02*
X364490D01*
X368300Y-8890D02*
X372110Y-12700D01*
X389890D01*
X374650D02*
X387350D01*
X389890D02*
X393700Y-8890D01*
X321310Y12700D02*
X339090D01*
X321310Y-12700D02*
X339090D01*
Y12700D02*
X342900Y8890D01*
X339090Y-12700D02*
X342900Y-8890D01*
X317500D02*
X321310Y-12700D01*
X317500Y8890D02*
X321310Y12700D01*
X292100Y8890D02*
X295910Y12700D01*
X313690D02*
X317500Y8890D01*
X295910Y12700D02*
X313690D01*
X292100Y-8890D02*
X295910Y-12700D01*
X313690D01*
X298450D02*
X311150D01*
X313690D02*
X317500Y-8890D01*
X266700Y8890D02*
X270510Y12700D01*
X266700Y-8890D02*
X270510Y-12700D01*
X288290D02*
X292100Y-8890D01*
X288290Y12700D02*
X292100Y8890D01*
X270510Y-12700D02*
X288290D01*
X270510Y12700D02*
X288290D01*
X241300Y168910D02*
Y186690D01*
X245110Y190500D02*
X262890D01*
X245110Y165100D02*
X262890D01*
Y190500D02*
X266700Y186690D01*
X262890Y165100D02*
X266700Y168910D01*
X241300D02*
X245110Y165100D01*
X241300Y186690D02*
X245110Y190500D01*
X473710D02*
X491490D01*
X495300Y168910D02*
Y186690D01*
X473710Y165100D02*
X491490D01*
Y190500D02*
X495300Y186690D01*
X491490Y165100D02*
X495300Y168910D01*
X469900D02*
X473710Y165100D01*
X469900Y186690D02*
X473710Y190500D01*
X444500Y186690D02*
X448310Y190500D01*
X466090D02*
X469900Y186690D01*
X448310Y190500D02*
X466090D01*
X419100Y186690D02*
X422910Y190500D01*
X419100Y168910D02*
X422910Y165100D01*
X440690D02*
X444500Y168910D01*
X440690Y190500D02*
X444500Y186690D01*
X422910Y165100D02*
X440690D01*
X422910Y190500D02*
X440690D01*
X444500Y168910D02*
X448310Y165100D01*
X466090D01*
X450850D02*
X463550D01*
X466090D02*
X469900Y168910D01*
X397510Y190500D02*
X415290D01*
X397510Y165100D02*
X415290D01*
Y190500D02*
X419100Y186690D01*
X415290Y165100D02*
X419100Y168910D01*
X393700D02*
X397510Y165100D01*
X393700Y186690D02*
X397510Y190500D01*
X368300Y186690D02*
X372110Y190500D01*
X389890D02*
X393700Y186690D01*
X372110Y190500D02*
X389890D01*
X342900Y186690D02*
X346710Y190500D01*
X342900Y168910D02*
X346710Y165100D01*
X364490D02*
X368300Y168910D01*
X364490Y190500D02*
X368300Y186690D01*
X346710Y165100D02*
X364490D01*
X346710Y190500D02*
X364490D01*
X368300Y168910D02*
X372110Y165100D01*
X389890D01*
X374650D02*
X387350D01*
X389890D02*
X393700Y168910D01*
X321310Y190500D02*
X339090D01*
X321310Y165100D02*
X339090D01*
Y190500D02*
X342900Y186690D01*
X339090Y165100D02*
X342900Y168910D01*
X317500D02*
X321310Y165100D01*
X317500Y186690D02*
X321310Y190500D01*
X292100Y186690D02*
X295910Y190500D01*
X313690D02*
X317500Y186690D01*
X295910Y190500D02*
X313690D01*
X292100Y168910D02*
X295910Y165100D01*
X313690D01*
X298450D02*
X311150D01*
X313690D02*
X317500Y168910D01*
X266700Y186690D02*
X270510Y190500D01*
X266700Y168910D02*
X270510Y165100D01*
X288290D02*
X292100Y168910D01*
X288290Y190500D02*
X292100Y186690D01*
X270510Y165100D02*
X288290D01*
X270510Y190500D02*
X288290D01*
X-12700Y168910D02*
Y186690D01*
X-8890Y190500D02*
X8890D01*
X-8890Y165100D02*
X8890D01*
Y190500D02*
X12700Y186690D01*
X8890Y165100D02*
X12700Y168910D01*
X-12700D02*
X-8890Y165100D01*
X-12700Y186690D02*
X-8890Y190500D01*
X219710D02*
X237490D01*
X241300Y168910D02*
Y186690D01*
X219710Y165100D02*
X237490D01*
Y190500D02*
X241300Y186690D01*
X237490Y165100D02*
X241300Y168910D01*
X215900D02*
X219710Y165100D01*
X215900Y186690D02*
X219710Y190500D01*
X190500Y186690D02*
X194310Y190500D01*
X212090D02*
X215900Y186690D01*
X194310Y190500D02*
X212090D01*
X165100Y186690D02*
X168910Y190500D01*
X165100Y168910D02*
X168910Y165100D01*
X186690D02*
X190500Y168910D01*
X186690Y190500D02*
X190500Y186690D01*
X168910Y165100D02*
X186690D01*
X168910Y190500D02*
X186690D01*
X190500Y168910D02*
X194310Y165100D01*
X212090D01*
X196850D02*
X209550D01*
X212090D02*
X215900Y168910D01*
X143510Y190500D02*
X161290D01*
X143510Y165100D02*
X161290D01*
Y190500D02*
X165100Y186690D01*
X161290Y165100D02*
X165100Y168910D01*
X139700D02*
X143510Y165100D01*
X139700Y186690D02*
X143510Y190500D01*
X114300Y186690D02*
X118110Y190500D01*
X135890D02*
X139700Y186690D01*
X118110Y190500D02*
X135890D01*
X88900Y186690D02*
X92710Y190500D01*
X88900Y168910D02*
X92710Y165100D01*
X110490D02*
X114300Y168910D01*
X110490Y190500D02*
X114300Y186690D01*
X92710Y165100D02*
X110490D01*
X92710Y190500D02*
X110490D01*
X114300Y168910D02*
X118110Y165100D01*
X135890D01*
X120650D02*
X133350D01*
X135890D02*
X139700Y168910D01*
X67310Y190500D02*
X85090D01*
X67310Y165100D02*
X85090D01*
Y190500D02*
X88900Y186690D01*
X85090Y165100D02*
X88900Y168910D01*
X63500D02*
X67310Y165100D01*
X63500Y186690D02*
X67310Y190500D01*
X38100Y186690D02*
X41910Y190500D01*
X59690D02*
X63500Y186690D01*
X41910Y190500D02*
X59690D01*
X38100Y168910D02*
X41910Y165100D01*
X59690D01*
X44450D02*
X57150D01*
X59690D02*
X63500Y168910D01*
X12700Y186690D02*
X16510Y190500D01*
X12700Y168910D02*
X16510Y165100D01*
X34290D02*
X38100Y168910D01*
X34290Y190500D02*
X38100Y186690D01*
X16510Y165100D02*
X34290D01*
X16510Y190500D02*
X34290D01*
X92710Y165100D02*
X110490D01*
X114300Y143510D02*
Y161290D01*
X92710Y139700D02*
X110490D01*
Y165100D02*
X114300Y161290D01*
X110490Y139700D02*
X114300Y143510D01*
X88900D02*
X92710Y139700D01*
X88900Y161290D02*
X92710Y165100D01*
X63500Y161290D02*
X67310Y165100D01*
X85090D02*
X88900Y161290D01*
X67310Y165100D02*
X85090D01*
X38100Y161290D02*
X41910Y165100D01*
X38100Y143510D02*
X41910Y139700D01*
X59690D02*
X63500Y143510D01*
X59690Y165100D02*
X63500Y161290D01*
X41910Y139700D02*
X59690D01*
X41910Y165100D02*
X59690D01*
X63500Y143510D02*
X67310Y139700D01*
X85090D01*
X69850D02*
X82550D01*
X85090D02*
X88900Y143510D01*
X16510Y165100D02*
X34290D01*
X16510Y139700D02*
X34290D01*
Y165100D02*
X38100Y161290D01*
X34290Y139700D02*
X38100Y143510D01*
X12700D02*
X16510Y139700D01*
X12700Y161290D02*
X16510Y165100D01*
X-12700Y161290D02*
X-8890Y165100D01*
X8890D02*
X12700Y161290D01*
X-8890Y165100D02*
X8890D01*
X-12700Y143510D02*
X-8890Y139700D01*
X8890D01*
X-6350D02*
X6350D01*
X8890D02*
X12700Y143510D01*
X-12700D02*
Y161290D01*
G54D70*
X293819Y74059D02*
X299819D01*
X293819Y85059D02*
X299819D01*
Y74059D02*
Y85059D01*
X293819Y74059D02*
Y85059D01*
X181283Y128070D02*
X186509D01*
X175896Y136091D02*
X191396D01*
Y128070D02*
Y136091D01*
X175896Y128070D02*
Y136091D01*
Y128070D02*
X181283D01*
X186509D02*
X191396D01*
X201944Y101458D02*
Y115458D01*
X171944Y101458D02*
Y115458D01*
X201944D01*
X171944Y101458D02*
X201944D01*
X287832Y45072D02*
Y56072D01*
X293832Y45072D02*
Y56072D01*
X287832D02*
X293832D01*
X287832Y45072D02*
X293832D01*
X305488Y42108D02*
Y59608D01*
X295988Y42108D02*
Y59608D01*
Y42108D02*
X305488D01*
X295988Y59608D02*
X305488D01*
X125363Y92624D02*
X131363D01*
X125363Y103624D02*
X131363D01*
X125363Y92624D02*
Y103624D01*
X131363Y92624D02*
Y103624D01*
X140337Y92624D02*
Y103624D01*
X134337Y92624D02*
Y103624D01*
X140337D01*
X134337Y92624D02*
X140337D01*
X101140Y64938D02*
X107140D01*
X101140Y75938D02*
X107140D01*
X101140Y64938D02*
Y75938D01*
X107140Y64938D02*
Y75938D01*
X152606Y64938D02*
Y75938D01*
X146606Y64938D02*
Y75938D01*
X152606D01*
X146606Y64938D02*
X152606D01*
X372192Y70620D02*
X378192D01*
X372192Y59620D02*
X378192D01*
Y70620D01*
X372192Y59620D02*
Y70620D01*
X410196Y132708D02*
X421196D01*
X410196Y138708D02*
X421196D01*
Y132708D02*
Y138708D01*
X410196Y132708D02*
Y138708D01*
X417522Y129524D02*
X423522D01*
X417522Y118524D02*
X423522D01*
Y129524D01*
X417522Y118524D02*
Y129524D01*
X294848Y50326D02*
Y61326D01*
X288848Y50326D02*
Y61326D01*
X294848D01*
X288848Y50326D02*
X294848D01*
X341600Y108000D02*
X347600D01*
X341600Y97000D02*
X347600D01*
Y108000D01*
X341600Y97000D02*
Y108000D01*
X351600D02*
X357600D01*
X351600Y97000D02*
X357600D01*
Y108000D01*
X351600Y97000D02*
Y108000D01*
X287482Y50326D02*
Y61326D01*
X281482Y50326D02*
Y61326D01*
X287482D01*
X281482Y50326D02*
X287482D01*
X355100Y84500D02*
Y90500D01*
X344100Y84500D02*
Y90500D01*
Y84500D02*
X355100D01*
X344100Y90500D02*
X355100D01*
X260556Y58588D02*
Y69588D01*
X254556Y58588D02*
Y69588D01*
X260556D01*
X254556Y58588D02*
X260556D01*
X306660Y50516D02*
X312660D01*
X306660Y61516D02*
X312660D01*
X306660Y50516D02*
Y61516D01*
X312660Y50516D02*
Y61516D01*
X319264Y50516D02*
Y61516D01*
X313264Y50516D02*
Y61516D01*
X319264D01*
X313264Y50516D02*
X319264D01*
X296246D02*
X302246D01*
X296246Y61516D02*
X302246D01*
X296246Y50516D02*
Y61516D01*
X302246Y50516D02*
Y61516D01*
X344100Y83000D02*
X355100D01*
X344100Y77000D02*
X355100D01*
X344100D02*
Y83000D01*
X355100Y77000D02*
Y83000D01*
X319614Y61516D02*
X325614D01*
X319614Y50516D02*
X325614D01*
Y61516D01*
X319614Y50516D02*
Y61516D01*
X331052Y43078D02*
X342052D01*
X331052Y37078D02*
X342052D01*
X331052D02*
Y43078D01*
X342052Y37078D02*
Y43078D01*
X268058Y98546D02*
Y104546D01*
X257058Y98546D02*
Y104546D01*
Y98546D02*
X268058D01*
X257058Y104546D02*
X268058D01*
X260558Y77250D02*
Y88250D01*
X254558Y77250D02*
Y88250D01*
X260558D01*
X254558Y77250D02*
X260558D01*
X265774Y106928D02*
Y112928D01*
X276774Y106928D02*
Y112928D01*
X265774D02*
X276774D01*
X265774Y106928D02*
X276774D01*
X346284Y59620D02*
Y70620D01*
X352284Y59620D02*
Y70620D01*
X346284Y59620D02*
X352284D01*
X346284Y70620D02*
X352284D01*
X152727Y128578D02*
X157614D01*
X142114D02*
X147501D01*
X142114D02*
Y136599D01*
X157614Y128578D02*
Y136599D01*
X142114D02*
X157614D01*
X147501Y128578D02*
X152727D01*
X101434Y100124D02*
X112434D01*
X101434Y106124D02*
X112434D01*
Y100124D02*
Y106124D01*
X101434Y100124D02*
Y106124D01*
X413664Y119024D02*
Y129025D01*
X407568D02*
X413664D01*
X407568Y119024D02*
Y129025D01*
Y119024D02*
X413664D01*
X143812Y92624D02*
Y103624D01*
X149812Y92624D02*
Y103624D01*
X143812Y92624D02*
X149812D01*
X143812Y103624D02*
X149812D01*
X118000Y50286D02*
Y81286D01*
X136000Y50286D02*
Y81286D01*
X118000D02*
X136000D01*
X118000Y50286D02*
X136000D01*
X341680Y126016D02*
X347680D01*
X341680Y115016D02*
X347680D01*
Y126016D01*
X341680Y115016D02*
Y126016D01*
X207058Y112434D02*
X213058D01*
X207058Y101434D02*
X213058D01*
Y112434D01*
X207058Y101434D02*
Y112434D01*
X191428Y83614D02*
Y89614D01*
X180428Y83614D02*
Y89614D01*
Y83614D02*
X191428D01*
X180428Y89614D02*
X191428D01*
X357238Y67406D02*
Y73502D01*
X367239D01*
Y67406D02*
Y73502D01*
X357238Y67406D02*
X367239D01*
X383052Y67487D02*
Y73583D01*
X393053D01*
Y67487D02*
Y73583D01*
X383052Y67487D02*
X393053D01*
X116888Y92624D02*
X122888D01*
X116888Y103624D02*
X122888D01*
X116888Y92624D02*
Y103624D01*
X122888Y92624D02*
Y103624D01*
X305864Y144692D02*
X311864D01*
X305864Y133692D02*
X311864D01*
Y144692D01*
X305864Y133692D02*
Y144692D01*
G54D71*
X90330Y78872D02*
Y108072D01*
X66130D02*
X90330D01*
X66130Y78872D02*
Y108072D01*
Y78872D02*
X90330D01*
X262506Y41515D02*
Y62514D01*
Y41515D02*
X277505D01*
Y62514D01*
X262506D02*
X277505D01*
X277404Y74934D02*
Y94934D01*
X265204D02*
X277404D01*
X265204Y74934D02*
Y94934D01*
Y74934D02*
X277404D01*
X330257Y46003D02*
X342844D01*
Y62604D01*
X330257D02*
X342844D01*
X330257Y46003D02*
Y62604D01*
G54D72*
X431084Y10540D02*
Y161416D01*
M02*
