G04*
G04 #@! TF.GenerationSoftware,Altium Limited,Altium Designer,22.8.2 (66)*
G04*
G04 Layer_Color=32768*
%FSLAX44Y44*%
%MOMM*%
G71*
G04*
G04 #@! TF.SameCoordinates,5B037859-B446-4BB1-8760-713DD72627CB*
G04*
G04*
G04 #@! TF.FilePolarity,Positive*
G04*
G01*
G75*
%ADD70C,0.1000*%
%ADD71C,0.1270*%
%ADD73C,0.0025*%
%ADD74C,0.0508*%
G36*
X168894Y44174D02*
Y44422D01*
X168542Y44774D01*
X168046D01*
X167694Y44422D01*
Y44174D01*
Y43925D01*
X168046Y43574D01*
X168542D01*
X168894Y43925D01*
Y44174D01*
D01*
D01*
D02*
G37*
G36*
X168294Y65174D02*
Y52174D01*
X180294D01*
Y65174D01*
X168294D01*
D01*
D02*
G37*
G36*
X218294D02*
Y52174D01*
X206294D01*
Y65174D01*
X218294D01*
D01*
D02*
G37*
G54D70*
X293319Y70559D02*
X300319D01*
X293319Y88559D02*
X300319D01*
Y70559D02*
Y88559D01*
X293319Y70559D02*
Y88559D01*
X296819Y76559D02*
Y82559D01*
X293819Y79559D02*
X299819D01*
X94232Y76972D02*
Y109972D01*
X62232Y76972D02*
Y109972D01*
Y76972D02*
X94232D01*
X62232Y109972D02*
X94232D01*
X73232Y93472D02*
X83232D01*
X78232Y88472D02*
Y98472D01*
X183896Y127330D02*
Y136830D01*
X179146Y132080D02*
X188646D01*
X171896Y126580D02*
X195896D01*
X171896Y137580D02*
X195896D01*
Y126580D02*
Y137580D01*
X171896Y126580D02*
Y137580D01*
X181944Y108458D02*
X191944D01*
X186944Y103458D02*
Y113458D01*
X202944Y92458D02*
Y124458D01*
X170944Y92458D02*
Y124458D01*
X202944D01*
X170944Y92458D02*
X202944D01*
X287832Y50572D02*
X293832D01*
X290832Y47572D02*
Y53572D01*
X286832Y41572D02*
Y59572D01*
X294832Y41572D02*
Y59572D01*
X286832D02*
X294832D01*
X286832Y41572D02*
X294832D01*
X295988Y50858D02*
X305488D01*
X300738Y46108D02*
Y55608D01*
X306238Y38858D02*
Y62858D01*
X295238Y38858D02*
Y62858D01*
Y38858D02*
X306238D01*
X295238Y62858D02*
X306238D01*
X124863Y89124D02*
X131863D01*
X124863Y107124D02*
X131863D01*
X124863Y89124D02*
Y107124D01*
X131863Y89124D02*
Y107124D01*
X128363Y95124D02*
Y101124D01*
X125363Y98124D02*
X131363D01*
X134337D02*
X140337D01*
X137337Y95124D02*
Y101124D01*
X140837Y89124D02*
Y107124D01*
X133837Y89124D02*
Y107124D01*
X140837D01*
X133837Y89124D02*
X140837D01*
X100640Y61438D02*
X107640D01*
X100640Y79438D02*
X107640D01*
X100640Y61438D02*
Y79438D01*
X107640Y61438D02*
Y79438D01*
X104140Y67438D02*
Y73438D01*
X101140Y70438D02*
X107140D01*
X146606D02*
X152606D01*
X149606Y67438D02*
Y73438D01*
X153106Y61438D02*
Y79438D01*
X146106Y61438D02*
Y79438D01*
X153106D01*
X146106Y61438D02*
X153106D01*
X371692Y74120D02*
X378692D01*
X371692Y56120D02*
X378692D01*
Y74120D01*
X371692Y56120D02*
Y74120D01*
X375192Y62120D02*
Y68120D01*
X372192Y65120D02*
X378192D01*
X415696Y132708D02*
Y138708D01*
X412696Y135708D02*
X418696D01*
X406696Y132208D02*
X424696D01*
X406696Y139208D02*
X424696D01*
Y132208D02*
Y139208D01*
X406696Y132208D02*
Y139208D01*
X417022Y133024D02*
X424022D01*
X417022Y115024D02*
X424022D01*
Y133024D01*
X417022Y115024D02*
Y133024D01*
X420522Y121024D02*
Y127024D01*
X417522Y124024D02*
X423522D01*
X288848Y55826D02*
X294848D01*
X291848Y52826D02*
Y58826D01*
X295348Y46826D02*
Y64826D01*
X288348Y46826D02*
Y64826D01*
X295348D01*
X288348Y46826D02*
X295348D01*
X341100Y111500D02*
X348100D01*
X341100Y93500D02*
X348100D01*
Y111500D01*
X341100Y93500D02*
Y111500D01*
X344600Y99500D02*
Y105500D01*
X341600Y102500D02*
X347600D01*
X351100Y111500D02*
X358100D01*
X351100Y93500D02*
X358100D01*
Y111500D01*
X351100Y93500D02*
Y111500D01*
X354600Y99500D02*
Y105500D01*
X351600Y102500D02*
X357600D01*
X281482Y55826D02*
X287482D01*
X284482Y52826D02*
Y58826D01*
X287982Y46826D02*
Y64826D01*
X280982Y46826D02*
Y64826D01*
X287982D01*
X280982Y46826D02*
X287982D01*
X358600Y84000D02*
Y91000D01*
X340600Y84000D02*
Y91000D01*
Y84000D02*
X358600D01*
X340600Y91000D02*
X358600D01*
X346600Y87500D02*
X352600D01*
X349600Y84500D02*
Y90500D01*
X254556Y64088D02*
X260556D01*
X257556Y61088D02*
Y67088D01*
X261056Y55088D02*
Y73088D01*
X254056Y55088D02*
Y73088D01*
X261056D01*
X254056Y55088D02*
X261056D01*
X306160Y47016D02*
X313160D01*
X306160Y65016D02*
X313160D01*
X306160Y47016D02*
Y65016D01*
X313160Y47016D02*
Y65016D01*
X309660Y53016D02*
Y59016D01*
X306660Y56016D02*
X312660D01*
X313264D02*
X319264D01*
X316264Y53016D02*
Y59016D01*
X319764Y47016D02*
Y65016D01*
X312764Y47016D02*
Y65016D01*
X319764D01*
X312764Y47016D02*
X319764D01*
X295746D02*
X302746D01*
X295746Y65016D02*
X302746D01*
X295746Y47016D02*
Y65016D01*
X302746Y47016D02*
Y65016D01*
X299246Y53016D02*
Y59016D01*
X296246Y56016D02*
X302246D01*
X349600Y77000D02*
Y83000D01*
X346600Y80000D02*
X352600D01*
X340600Y83500D02*
X358600D01*
X340600Y76500D02*
X358600D01*
X340600D02*
Y83500D01*
X358600Y76500D02*
Y83500D01*
X319114Y65016D02*
X326114D01*
X319114Y47016D02*
X326114D01*
Y65016D01*
X319114Y47016D02*
Y65016D01*
X322614Y53016D02*
Y59016D01*
X319614Y56016D02*
X325614D01*
X336552Y37078D02*
Y43078D01*
X333552Y40078D02*
X339552D01*
X327552Y43578D02*
X345552D01*
X327552Y36578D02*
X345552D01*
X327552D02*
Y43578D01*
X345552Y36578D02*
Y43578D01*
X271558Y98046D02*
Y105046D01*
X253558Y98046D02*
Y105046D01*
Y98046D02*
X271558D01*
X253558Y105046D02*
X271558D01*
X259558Y101546D02*
X265558D01*
X262558Y98546D02*
Y104546D01*
X254558Y82750D02*
X260558D01*
X257558Y79750D02*
Y85750D01*
X261058Y73750D02*
Y91750D01*
X254058Y73750D02*
Y91750D01*
X261058D01*
X254058Y73750D02*
X261058D01*
X262274Y106428D02*
Y113428D01*
X280274Y106428D02*
Y113428D01*
X262274D02*
X280274D01*
X262274Y106428D02*
X280274D01*
X268274Y109928D02*
X274274D01*
X271274Y106928D02*
Y112928D01*
X346284Y65120D02*
X352284D01*
X349284Y62120D02*
Y68120D01*
X345784Y56120D02*
Y74120D01*
X352784Y56120D02*
Y74120D01*
X345784Y56120D02*
X352784D01*
X345784Y74120D02*
X352784D01*
X138114Y127088D02*
Y138088D01*
X162114Y127088D02*
Y138088D01*
X138114D02*
X162114D01*
X138114Y127088D02*
X162114D01*
X145364Y132588D02*
X154864D01*
X150114Y127838D02*
Y137338D01*
X106934Y100124D02*
Y106124D01*
X103934Y103124D02*
X109934D01*
X97934Y99124D02*
X115934D01*
X97934Y107124D02*
X115934D01*
Y99124D02*
Y107124D01*
X97934Y99124D02*
Y107124D01*
X407116Y124024D02*
X414116D01*
X410616Y120524D02*
Y127524D01*
X414616Y115024D02*
Y133024D01*
X406616Y115024D02*
Y133024D01*
X414616D01*
X406616Y115024D02*
X414616D01*
X143812Y98124D02*
X149812D01*
X146812Y95124D02*
Y101124D01*
X142812Y89124D02*
Y107124D01*
X150812Y89124D02*
Y107124D01*
X142812Y89124D02*
X150812D01*
X142812Y107124D02*
X150812D01*
X109500Y49286D02*
Y82286D01*
X144500Y49286D02*
Y82286D01*
X109500D02*
X144500D01*
X109500Y49286D02*
X144500D01*
X122000Y65786D02*
X132000D01*
X127000Y60786D02*
Y70786D01*
X340680Y129516D02*
X348680D01*
X340680Y111516D02*
X348680D01*
Y129516D01*
X340680Y111516D02*
Y129516D01*
X344680Y117516D02*
Y123516D01*
X341680Y120516D02*
X347680D01*
X206058Y115934D02*
X214058D01*
X206058Y97934D02*
X214058D01*
Y115934D01*
X206058Y97934D02*
Y115934D01*
X210058Y103934D02*
Y109934D01*
X207058Y106934D02*
X213058D01*
X194928Y82614D02*
Y90614D01*
X176928Y82614D02*
Y90614D01*
Y82614D02*
X194928D01*
X176928Y90614D02*
X194928D01*
X182928Y86614D02*
X188928D01*
X185928Y83614D02*
Y89614D01*
X353238Y66454D02*
Y74454D01*
X371238Y66454D02*
Y74454D01*
X353238D02*
X371238D01*
X353238Y66454D02*
X371238D01*
X358738Y70454D02*
X365738D01*
X362238Y66954D02*
Y73954D01*
X379052Y66535D02*
Y74535D01*
X397052Y66535D02*
Y74535D01*
X379052D02*
X397052D01*
X379052Y66535D02*
X397052D01*
X384552Y70535D02*
X391552D01*
X388052Y67035D02*
Y74035D01*
X115888Y89124D02*
X123888D01*
X115888Y107124D02*
X123888D01*
X115888Y89124D02*
Y107124D01*
X123888Y89124D02*
Y107124D01*
X119888Y95124D02*
Y101124D01*
X116888Y98124D02*
X122888D01*
X304864Y148192D02*
X312864D01*
X304864Y130192D02*
X312864D01*
Y148192D01*
X304864Y130192D02*
Y148192D01*
X308864Y136192D02*
Y142192D01*
X305864Y139192D02*
X311864D01*
G54D71*
X259844Y36776D02*
Y67256D01*
Y36776D02*
X280164D01*
Y67256D01*
X259844D02*
X280164D01*
X281466Y69692D02*
Y100172D01*
X261146D02*
X281466D01*
X261146Y69692D02*
Y100172D01*
Y69692D02*
X281466D01*
X346712Y41602D02*
Y67002D01*
X326392D02*
X346712D01*
X326392Y41602D02*
Y67002D01*
Y41602D02*
X346712D01*
G54D73*
X16966Y89408D02*
X17474Y88900D01*
G54D74*
X173294Y73174D02*
X213294D01*
X173294Y44174D02*
Y73174D01*
Y44174D02*
X213294D01*
Y73174D01*
M02*
