G04*
G04 #@! TF.GenerationSoftware,Altium Limited,Altium Designer,22.8.2 (66)*
G04*
G04 Layer_Color=255*
%FSLAX44Y44*%
%MOMM*%
G71*
G04*
G04 #@! TF.SameCoordinates,5B037859-B446-4BB1-8760-713DD72627CB*
G04*
G04*
G04 #@! TF.FilePolarity,Positive*
G04*
G01*
G75*
%ADD22R,0.5000X0.6000*%
%ADD26R,0.6000X0.6000*%
%ADD60C,0.1000*%
%ADD61O,1.8000X1.2000*%
%ADD62O,2.1000X1.2000*%
%ADD63C,1.5000*%
%ADD68R,0.9000X0.8000*%
G54D22*
X296819Y74559D02*
D03*
Y84559D02*
D03*
G54D26*
X290832Y55572D02*
D03*
Y45572D02*
D03*
G54D60*
X35912Y60254D02*
D03*
Y118054D02*
D03*
G54D61*
X-588Y132354D02*
D03*
Y45954D02*
D03*
G54D62*
X41213D02*
D03*
Y132354D02*
D03*
G54D63*
X0Y25400D02*
D03*
X25400D02*
D03*
X50800D02*
D03*
X76200D02*
D03*
X177800D02*
D03*
X152400D02*
D03*
X127000D02*
D03*
X101600D02*
D03*
X0Y0D02*
D03*
X152400D02*
D03*
X177800D02*
D03*
X203200D02*
D03*
X228600D02*
D03*
X127000D02*
D03*
X101600D02*
D03*
X76200D02*
D03*
X50800D02*
D03*
X25400D02*
D03*
X254000D02*
D03*
X406400D02*
D03*
X431800D02*
D03*
X457200D02*
D03*
X482600D02*
D03*
X381000D02*
D03*
X355600D02*
D03*
X330200D02*
D03*
X304800D02*
D03*
X279400D02*
D03*
X254000Y177800D02*
D03*
X406400D02*
D03*
X431800D02*
D03*
X457200D02*
D03*
X482600D02*
D03*
X381000D02*
D03*
X355600D02*
D03*
X330200D02*
D03*
X304800D02*
D03*
X279400D02*
D03*
X0D02*
D03*
X152400D02*
D03*
X177800D02*
D03*
X203200D02*
D03*
X228600D02*
D03*
X127000D02*
D03*
X101600D02*
D03*
X76200D02*
D03*
X50800D02*
D03*
X25400D02*
D03*
Y152400D02*
D03*
X50800D02*
D03*
X76200D02*
D03*
X101600D02*
D03*
X0D02*
D03*
G54D68*
X300738Y43858D02*
D03*
Y57858D02*
D03*
M02*
