M48
;Layer_Color=9474304
;FILE_FORMAT=4:4
METRIC,LZ
;TYPE=PLATED
T1F00S00C0.1500
T2F00S00C0.2000
T3F00S00C0.2032
T5F00S00C0.9000
%
T01
X00291846Y00074422
X00292092Y0007951
X00291846Y00084328
X00296819Y00084559
X00301819
Y00079559
X00306832Y00079502
X0031682Y00079559
X0032182
Y00084559
X0031682
X0032682
X00327152Y00089154
X00326864Y00094604
X0032682Y0009956
X00331724Y00099568
X00331978Y00104648
X0032682Y0010456
X0032182
X0031682
Y0009956
X0032182
Y0009456
X0031682
X00306819
Y0009956
Y0010456
X00301819
X00296819
Y0009956
X00301819
Y0009456
X00296819
X00291819
Y00099675
Y0010456
X0028702Y00104648
X00286766Y00094488
X0029718Y00074676
X00332994Y00076962
X00331978Y00094488
T02
X00252984Y00058928
X0029932Y0006109
X00301246Y00042364
X0029083Y00040894
X00341376Y00059436
X0034925Y00055372
X00375158
X00347726Y0008001
X00420624Y00113792
X00257556Y00108966
X00192278Y00058674
X00157226Y00073914
X00153924
Y0007747
X00157226
X00119888Y0008763
X00088257Y00093095
X0009779Y00065532
T03
X00010093Y-00007796
X00035493
X00060893
X00086293
X00111693
X00137093
X00162493
X00187893
X00213293
X00264093
X00289493
X00314893
X00340293
X00365693
X00391093
X00416493
X00441893
X00467293
X00403793Y00017605
X00416493Y00043004
X00422843Y00055704
X00416493Y00068404
X00422843Y00081104
X00416493Y00093805
X00422843Y00106504
X00391093Y00119205
X00378393
X00365693
X00352993
X00359343Y00131904
X00372043
X00384743
X00391093Y00170005
X00365693
X00340293
X00321243Y00157304
X00308543
X00264093Y00170005
Y00119205
X00276793
X00251393
Y00043004
X00264093Y00017605
X00346643Y00030305
X00372043
X00365693Y00043004
Y00017605
X00372043Y00081104
X00238693Y00119205
X00225993
X00200593
X00194243Y00157304
X00187893Y00170005
X00213293
X00162493
X00168843Y00157304
X00137093Y00170005
Y00119205
X00149793
X00124393
X00111693
X00022793
X00010093
X-00002607
X00003743Y00106504
X00016443
X00029143
X00022793Y00093805
X00010093
X-00002607
X00003743Y00081104
X-00002607Y00068404
X00003743Y00055704
X00035493Y00017605
Y00144605
X00010093
X00016443Y00131904
X00187893Y00043004
X00200593
X00213293
X00225993
X00238693
Y00017605
X00213293
X00194243Y00030305
T05
X00254Y0
X002794
X003048
X003302
X003556
X00381
X004064
X004318
X004572
X004826
Y001778
X004572
X004318
X004064
X00381
X003556
X003302
X003048
X002794
X00254
X002286
X002032
X001778
X001524
X00127
X001016
X000762
X000508
X000254
X0
Y001524
X000254
X000508
X000762
X001016
Y000254
X000762
X000508
X000254
X0
Y0
X000254
X000508
X000762
X001016
X00127
Y000254
X001524
X001778
Y0
X001524
X002032
X002286
M30
