G04*
G04 #@! TF.GenerationSoftware,Altium Limited,Altium Designer,22.8.2 (66)*
G04*
G04 Layer_Physical_Order=4*
G04 Layer_Color=16711680*
%FSLAX44Y44*%
%MOMM*%
G71*
G04*
G04 #@! TF.SameCoordinates,5B037859-B446-4BB1-8760-713DD72627CB*
G04*
G04*
G04 #@! TF.FilePolarity,Positive*
G04*
G01*
G75*
%ADD13C,0.1524*%
%ADD22R,0.5000X0.6000*%
%ADD26R,0.6000X0.6000*%
%ADD53C,0.0762*%
%ADD60C,0.1000*%
%ADD61O,1.8000X1.2000*%
%ADD62O,2.1000X1.2000*%
%ADD63C,1.5000*%
%ADD64C,0.4064*%
%ADD65C,0.3000*%
%ADD66C,0.2500*%
%ADD68R,0.9000X0.8000*%
G36*
X487100Y190299D02*
Y190281D01*
X489114Y190015D01*
X490990Y189238D01*
X492602Y188002D01*
X493838Y186390D01*
X494615Y184514D01*
X494881Y182500D01*
X494899D01*
Y169169D01*
X494001Y168271D01*
X486589Y168274D01*
X486349Y169544D01*
X488141Y170579D01*
X489821Y172259D01*
X491009Y174317D01*
X491624Y176612D01*
Y178988D01*
X491009Y181283D01*
X489821Y183341D01*
X488141Y185021D01*
X486083Y186209D01*
X483788Y186824D01*
X481412D01*
X479117Y186209D01*
X477059Y185021D01*
X475379Y183341D01*
X474191Y181283D01*
X473576Y178988D01*
Y176612D01*
X474191Y174317D01*
X475379Y172259D01*
X477059Y170579D01*
X478846Y169547D01*
X478587Y168277D01*
X461266Y168284D01*
X460966Y169554D01*
X462741Y170579D01*
X464421Y172259D01*
X465609Y174317D01*
X466224Y176612D01*
Y178988D01*
X465609Y181283D01*
X464421Y183341D01*
X462741Y185021D01*
X460683Y186209D01*
X458388Y186824D01*
X456012D01*
X453717Y186209D01*
X451659Y185021D01*
X449979Y183341D01*
X448791Y181283D01*
X448176Y178988D01*
Y176612D01*
X448791Y174317D01*
X449979Y172259D01*
X451659Y170579D01*
X453428Y169557D01*
X453109Y168288D01*
X435924Y168295D01*
X435584Y169565D01*
X437341Y170579D01*
X439021Y172259D01*
X440209Y174317D01*
X440824Y176612D01*
Y178988D01*
X440209Y181283D01*
X439021Y183341D01*
X437341Y185021D01*
X435283Y186209D01*
X432988Y186824D01*
X430612D01*
X428317Y186209D01*
X426259Y185021D01*
X424579Y183341D01*
X423391Y181283D01*
X422776Y178988D01*
Y176612D01*
X423391Y174317D01*
X424579Y172259D01*
X426259Y170579D01*
X428011Y169568D01*
X427670Y168298D01*
X425701Y168299D01*
X425881Y28909D01*
X424708Y28423D01*
X413303Y39827D01*
Y94488D01*
X413125Y95380D01*
X412620Y96136D01*
X399412Y109344D01*
X398656Y109849D01*
X397764Y110027D01*
X338630D01*
X337738Y109849D01*
X336982Y109344D01*
X336707Y108933D01*
X324956D01*
X324081Y108571D01*
X322205Y106695D01*
X322172Y106681D01*
X322123Y106666D01*
X322067Y106653D01*
X322001Y106643D01*
X321926Y106636D01*
X321816Y106634D01*
X321673Y106572D01*
X321420D01*
X320680Y106265D01*
X320114Y105699D01*
X320005Y105436D01*
X318635D01*
X318526Y105699D01*
X317960Y106265D01*
X317220Y106572D01*
X316420D01*
X315680Y106265D01*
X315114Y105699D01*
X314808Y104960D01*
Y104159D01*
X315114Y103420D01*
X315680Y102854D01*
X315943Y102745D01*
Y101374D01*
X315680Y101265D01*
X315114Y100699D01*
X314808Y99960D01*
Y99706D01*
X314745Y99563D01*
X314743Y99454D01*
X314737Y99379D01*
X314727Y99313D01*
X314714Y99257D01*
X314699Y99208D01*
X314685Y99174D01*
X310101Y94591D01*
X309320Y94818D01*
X308785Y95071D01*
X308525Y95699D01*
X307959Y96265D01*
X307696Y96374D01*
Y97745D01*
X307959Y97854D01*
X308525Y98420D01*
X308831Y99159D01*
Y99960D01*
X308525Y100699D01*
X307959Y101265D01*
X307696Y101374D01*
Y102745D01*
X307959Y102854D01*
X308525Y103420D01*
X308831Y104159D01*
Y104960D01*
X308525Y105699D01*
X308346Y105879D01*
X308289Y106024D01*
X308213Y106103D01*
X308164Y106160D01*
X308125Y106214D01*
X308094Y106263D01*
X308071Y106308D01*
X308056Y106342D01*
Y118697D01*
X308467Y118971D01*
X308973Y119727D01*
X309150Y120619D01*
Y133871D01*
X308973Y134763D01*
X308467Y135519D01*
X292224Y151762D01*
X291468Y152267D01*
X290576Y152445D01*
X147396D01*
X131392Y168449D01*
X131538Y169981D01*
X131563Y170014D01*
X132541Y170579D01*
X134221Y172259D01*
X135409Y174317D01*
X136024Y176612D01*
Y178988D01*
X135409Y181283D01*
X134221Y183341D01*
X132541Y185021D01*
X130483Y186209D01*
X128188Y186824D01*
X125812D01*
X123517Y186209D01*
X121459Y185021D01*
X119779Y183341D01*
X118591Y181283D01*
X117976Y178988D01*
Y176612D01*
X118591Y174317D01*
X119779Y172259D01*
X121051Y170987D01*
X120525Y169717D01*
X108075D01*
X107549Y170987D01*
X108821Y172259D01*
X110009Y174317D01*
X110624Y176612D01*
Y178988D01*
X110009Y181283D01*
X108821Y183341D01*
X107141Y185021D01*
X105083Y186209D01*
X102788Y186824D01*
X100412D01*
X98117Y186209D01*
X96059Y185021D01*
X94379Y183341D01*
X93191Y181283D01*
X92576Y178988D01*
Y176612D01*
X93191Y174317D01*
X94379Y172259D01*
X95651Y170987D01*
X95125Y169717D01*
X82675D01*
X82149Y170987D01*
X83421Y172259D01*
X84609Y174317D01*
X85224Y176612D01*
Y178988D01*
X84609Y181283D01*
X83421Y183341D01*
X81741Y185021D01*
X79683Y186209D01*
X77388Y186824D01*
X75012D01*
X72717Y186209D01*
X70659Y185021D01*
X68979Y183341D01*
X67791Y181283D01*
X67176Y178988D01*
Y176612D01*
X67791Y174317D01*
X68979Y172259D01*
X70251Y170987D01*
X69725Y169717D01*
X57275D01*
X56749Y170987D01*
X58021Y172259D01*
X59209Y174317D01*
X59824Y176612D01*
Y178988D01*
X59209Y181283D01*
X58021Y183341D01*
X56341Y185021D01*
X54283Y186209D01*
X51988Y186824D01*
X49612D01*
X47317Y186209D01*
X45259Y185021D01*
X43579Y183341D01*
X42391Y181283D01*
X41776Y178988D01*
Y176612D01*
X42391Y174317D01*
X43579Y172259D01*
X44851Y170987D01*
X44325Y169717D01*
X36779D01*
X35715Y170781D01*
X35670Y170930D01*
X35460Y171185D01*
X35317Y171431D01*
X35159Y171807D01*
X35004Y172310D01*
X34863Y172934D01*
X34750Y173640D01*
X34553Y176573D01*
X34549Y177730D01*
X34424Y178030D01*
Y178988D01*
X33809Y181283D01*
X32621Y183341D01*
X30941Y185021D01*
X28883Y186209D01*
X26588Y186824D01*
X24212D01*
X21917Y186209D01*
X19859Y185021D01*
X18179Y183341D01*
X16991Y181283D01*
X16376Y178988D01*
Y176612D01*
X16991Y174317D01*
X18179Y172259D01*
X19859Y170579D01*
X21917Y169391D01*
X24212Y168776D01*
X25170D01*
X25470Y168651D01*
X26656Y168647D01*
X27701Y168613D01*
X29544Y168453D01*
X30266Y168337D01*
X30890Y168196D01*
X31393Y168041D01*
X31769Y167883D01*
X32015Y167740D01*
X32271Y167530D01*
X32519Y166896D01*
X31768Y165653D01*
X15443D01*
X10316Y170781D01*
X10270Y170930D01*
X10060Y171185D01*
X9917Y171431D01*
X9759Y171807D01*
X9604Y172310D01*
X9463Y172934D01*
X9350Y173640D01*
X9153Y176573D01*
X9149Y177730D01*
X9024Y178030D01*
Y178988D01*
X8409Y181283D01*
X7221Y183341D01*
X5541Y185021D01*
X3483Y186209D01*
X1188Y186824D01*
X-1188D01*
X-3483Y186209D01*
X-5541Y185021D01*
X-7221Y183341D01*
X-8409Y181283D01*
X-9024Y178988D01*
Y176612D01*
X-8409Y174317D01*
X-7221Y172259D01*
X-5541Y170579D01*
X-3483Y169391D01*
X-1188Y168776D01*
X-230D01*
X70Y168651D01*
X1256Y168647D01*
X2301Y168613D01*
X4144Y168453D01*
X4866Y168337D01*
X5490Y168196D01*
X5993Y168041D01*
X6369Y167883D01*
X6615Y167740D01*
X6870Y167530D01*
X7019Y167484D01*
X12830Y161674D01*
X13586Y161169D01*
X14478Y160991D01*
X45092D01*
X45433Y159721D01*
X45259Y159621D01*
X43579Y157941D01*
X42391Y155883D01*
X41776Y153588D01*
Y151212D01*
X42391Y148917D01*
X43579Y146859D01*
X45259Y145179D01*
X47317Y143991D01*
X49612Y143376D01*
X51988D01*
X54283Y143991D01*
X56341Y145179D01*
X58021Y146859D01*
X59209Y148917D01*
X59824Y151212D01*
Y153588D01*
X59209Y155883D01*
X58021Y157941D01*
X56341Y159621D01*
X56167Y159721D01*
X56508Y160991D01*
X70492D01*
X70833Y159721D01*
X70659Y159621D01*
X68979Y157941D01*
X67791Y155883D01*
X67176Y153588D01*
Y151212D01*
X67791Y148917D01*
X68979Y146859D01*
X70659Y145179D01*
X72717Y143991D01*
X75012Y143376D01*
X75682D01*
X76168Y142203D01*
X9050Y75084D01*
X8545Y74328D01*
X8367Y73436D01*
Y31606D01*
X7097Y31223D01*
X6541Y31798D01*
X6528Y31803D01*
X6522Y31816D01*
X6220Y31942D01*
X5541Y32621D01*
X3483Y33809D01*
X1188Y34424D01*
X-1188D01*
X-3483Y33809D01*
X-5541Y32621D01*
X-7221Y30941D01*
X-8409Y28883D01*
X-9024Y26588D01*
Y24212D01*
X-8409Y21917D01*
X-7221Y19859D01*
X-5541Y18179D01*
X-3483Y16991D01*
X-1188Y16376D01*
X1188D01*
X3483Y16991D01*
X5541Y18179D01*
X6220Y18858D01*
X6522Y18984D01*
X6528Y18997D01*
X6541Y19002D01*
X7367Y19855D01*
X7378Y19882D01*
X7404Y19894D01*
X9236Y21914D01*
X9254Y21965D01*
X9302Y21991D01*
X9383Y22093D01*
X10653Y21648D01*
Y13949D01*
X7019Y10316D01*
X6870Y10270D01*
X6615Y10060D01*
X6369Y9917D01*
X5993Y9759D01*
X5490Y9604D01*
X4866Y9463D01*
X4160Y9350D01*
X1227Y9153D01*
X70Y9149D01*
X-230Y9024D01*
X-1188D01*
X-3483Y8409D01*
X-5541Y7221D01*
X-7221Y5541D01*
X-8409Y3483D01*
X-9024Y1188D01*
Y-1188D01*
X-8409Y-3483D01*
X-7221Y-5541D01*
X-5541Y-7221D01*
X-3483Y-8409D01*
X-1188Y-9024D01*
X1188D01*
X3483Y-8409D01*
X5541Y-7221D01*
X7221Y-5541D01*
X8409Y-3483D01*
X9024Y-1188D01*
Y-230D01*
X9149Y70D01*
X9153Y1256D01*
X9187Y2301D01*
X9347Y4144D01*
X9463Y4866D01*
X9604Y5490D01*
X9759Y5993D01*
X9917Y6369D01*
X10060Y6615D01*
X10270Y6870D01*
X10316Y7019D01*
X13970Y10674D01*
X16276Y8368D01*
X16284Y8315D01*
X16389Y8237D01*
X16428Y8112D01*
X16671Y7819D01*
X16806Y7582D01*
X16927Y7260D01*
X17022Y6839D01*
X17080Y6317D01*
X17089Y5694D01*
X17045Y4999D01*
X16765Y3243D01*
X16531Y2247D01*
X16580Y1948D01*
X16376Y1188D01*
Y-1188D01*
X16991Y-3483D01*
X18179Y-5541D01*
X19859Y-7221D01*
X21917Y-8409D01*
X24212Y-9024D01*
X26588D01*
X28883Y-8409D01*
X30941Y-7221D01*
X32621Y-5541D01*
X33809Y-3483D01*
X34424Y-1188D01*
Y1188D01*
X33809Y3483D01*
X32621Y5541D01*
X30941Y7221D01*
X28883Y8409D01*
X27788Y8702D01*
X27518Y8901D01*
X27514Y8900D01*
X27511Y8903D01*
X26177Y9225D01*
X22910Y10110D01*
X21381Y10616D01*
X20843Y10829D01*
X20448Y11012D01*
X20234Y11136D01*
X20067Y11268D01*
X19928Y11308D01*
X17945Y13291D01*
Y18297D01*
X19215Y18823D01*
X19859Y18179D01*
X21917Y16991D01*
X24212Y16376D01*
X26588D01*
X28883Y16991D01*
X30941Y18179D01*
X32621Y19859D01*
X33809Y21917D01*
X34424Y24212D01*
Y26588D01*
X33809Y28883D01*
X32621Y30941D01*
X31943Y31618D01*
X31820Y31919D01*
X30984Y32760D01*
X30268Y33523D01*
X29079Y34940D01*
X28651Y35532D01*
X28309Y36073D01*
X28063Y36538D01*
X27909Y36916D01*
X27836Y37191D01*
X27804Y37520D01*
X27731Y37658D01*
Y66991D01*
X90346Y129606D01*
X91195Y129510D01*
X91681Y128251D01*
X57280Y93850D01*
X56775Y93094D01*
X56597Y92202D01*
Y34994D01*
X56239Y34901D01*
X55689Y34799D01*
X52025Y34550D01*
X50875Y34549D01*
X50573Y34424D01*
X49612D01*
X47317Y33809D01*
X45259Y32621D01*
X43579Y30941D01*
X42391Y28883D01*
X41776Y26588D01*
Y24212D01*
X42391Y21917D01*
X43579Y19859D01*
X45259Y18179D01*
X47317Y16991D01*
X49612Y16376D01*
X51988D01*
X54283Y16991D01*
X56341Y18179D01*
X58021Y19859D01*
X59209Y21917D01*
X59824Y24212D01*
Y25164D01*
X59949Y25456D01*
X59975Y27721D01*
X60099Y29532D01*
X60190Y30240D01*
X60301Y30839D01*
X60344Y31004D01*
X60661Y31184D01*
X61931Y30445D01*
Y14427D01*
X57819Y10316D01*
X57670Y10270D01*
X57415Y10060D01*
X57169Y9917D01*
X56793Y9759D01*
X56290Y9604D01*
X55666Y9463D01*
X54960Y9350D01*
X52027Y9153D01*
X50870Y9149D01*
X50570Y9024D01*
X49612D01*
X47317Y8409D01*
X45259Y7221D01*
X43579Y5541D01*
X42391Y3483D01*
X41776Y1188D01*
Y-1188D01*
X42391Y-3483D01*
X43579Y-5541D01*
X45259Y-7221D01*
X47317Y-8409D01*
X49612Y-9024D01*
X51988D01*
X54283Y-8409D01*
X56341Y-7221D01*
X58021Y-5541D01*
X59209Y-3483D01*
X59824Y-1188D01*
Y-230D01*
X59949Y70D01*
X59953Y1256D01*
X59987Y2301D01*
X60147Y4144D01*
X60263Y4866D01*
X60404Y5490D01*
X60559Y5993D01*
X60717Y6369D01*
X60860Y6615D01*
X61070Y6870D01*
X61115Y7019D01*
X65910Y11814D01*
X66415Y12570D01*
X66593Y13462D01*
Y21081D01*
X66759Y21186D01*
X68453Y20769D01*
X68979Y19859D01*
X70659Y18179D01*
X72717Y16991D01*
X75012Y16376D01*
X77388D01*
X79683Y16991D01*
X81741Y18179D01*
X83421Y19859D01*
X83947Y20769D01*
X85641Y21186D01*
X85807Y21081D01*
Y12903D01*
X83219Y10316D01*
X83070Y10270D01*
X82815Y10060D01*
X82569Y9917D01*
X82193Y9759D01*
X81690Y9604D01*
X81066Y9463D01*
X80360Y9350D01*
X77427Y9153D01*
X76270Y9149D01*
X75970Y9024D01*
X75012D01*
X72717Y8409D01*
X70659Y7221D01*
X68979Y5541D01*
X67791Y3483D01*
X67176Y1188D01*
Y-1188D01*
X67791Y-3483D01*
X68979Y-5541D01*
X70659Y-7221D01*
X72717Y-8409D01*
X75012Y-9024D01*
X77388D01*
X79683Y-8409D01*
X81741Y-7221D01*
X83421Y-5541D01*
X84609Y-3483D01*
X85224Y-1188D01*
Y-230D01*
X85349Y70D01*
X85353Y1256D01*
X85387Y2301D01*
X85547Y4144D01*
X85663Y4866D01*
X85804Y5490D01*
X85959Y5993D01*
X86117Y6369D01*
X86260Y6615D01*
X86470Y6870D01*
X86516Y7019D01*
X89786Y10290D01*
X90291Y11046D01*
X90469Y11938D01*
Y67615D01*
X117551Y94697D01*
X129620D01*
X130106Y93524D01*
X99952Y63370D01*
X99447Y62614D01*
X99269Y61722D01*
Y37658D01*
X99196Y37520D01*
X99164Y37191D01*
X99091Y36916D01*
X98937Y36538D01*
X98691Y36073D01*
X98350Y35532D01*
X97930Y34953D01*
X95996Y32739D01*
X95180Y31919D01*
X95057Y31618D01*
X94379Y30941D01*
X93191Y28883D01*
X92576Y26588D01*
Y24212D01*
X93191Y21917D01*
X94379Y19859D01*
X96059Y18179D01*
X98117Y16991D01*
X100412Y16376D01*
X102788D01*
X105083Y16991D01*
X107141Y18179D01*
X107905Y18943D01*
X109175Y18417D01*
Y10871D01*
X108619Y10316D01*
X108470Y10270D01*
X108215Y10060D01*
X107969Y9917D01*
X107593Y9759D01*
X107090Y9604D01*
X106466Y9463D01*
X105760Y9350D01*
X102827Y9153D01*
X101670Y9149D01*
X101370Y9024D01*
X100412D01*
X98117Y8409D01*
X96059Y7221D01*
X94379Y5541D01*
X93191Y3483D01*
X92576Y1188D01*
Y-1188D01*
X93191Y-3483D01*
X94379Y-5541D01*
X96059Y-7221D01*
X98117Y-8409D01*
X100412Y-9024D01*
X102788D01*
X105083Y-8409D01*
X107141Y-7221D01*
X108821Y-5541D01*
X110009Y-3483D01*
X110624Y-1188D01*
Y-230D01*
X110749Y70D01*
X110753Y1256D01*
X110787Y2301D01*
X110947Y4144D01*
X111063Y4866D01*
X111204Y5490D01*
X111359Y5993D01*
X111517Y6369D01*
X111660Y6615D01*
X111870Y6870D01*
X111916Y7019D01*
X113154Y8258D01*
X113659Y9014D01*
X113837Y9906D01*
Y61773D01*
X141173Y89109D01*
X147146D01*
X147632Y87936D01*
X125352Y65656D01*
X124847Y64900D01*
X124669Y64008D01*
Y37658D01*
X124596Y37520D01*
X124564Y37191D01*
X124491Y36916D01*
X124337Y36538D01*
X124091Y36073D01*
X123750Y35532D01*
X123330Y34953D01*
X121396Y32739D01*
X120580Y31919D01*
X120457Y31618D01*
X119779Y30941D01*
X118591Y28883D01*
X117976Y26588D01*
Y24212D01*
X118591Y21917D01*
X119779Y19859D01*
X121459Y18179D01*
X123517Y16991D01*
X125812Y16376D01*
X128188D01*
X130483Y16991D01*
X132541Y18179D01*
X134221Y19859D01*
X135409Y21917D01*
X136024Y24212D01*
Y26588D01*
X135409Y28883D01*
X134221Y30941D01*
X133543Y31618D01*
X133420Y31919D01*
X132584Y32760D01*
X131868Y33523D01*
X130679Y34940D01*
X130251Y35532D01*
X129909Y36073D01*
X129663Y36538D01*
X129509Y36916D01*
X129436Y37191D01*
X129404Y37520D01*
X129331Y37658D01*
Y63043D01*
X152857Y86569D01*
X173562D01*
X174048Y85396D01*
X161385Y72733D01*
X160472Y73199D01*
X160250Y73394D01*
Y74516D01*
X159790Y75627D01*
X159725Y75692D01*
X159790Y75757D01*
X160250Y76869D01*
Y78071D01*
X159790Y79183D01*
X158939Y80034D01*
X157828Y80494D01*
X156624D01*
X155575Y80059D01*
X154525Y80494D01*
X153322D01*
X152211Y80034D01*
X151360Y79183D01*
X150900Y78071D01*
Y76869D01*
X151360Y75757D01*
X151425Y75692D01*
X151360Y75627D01*
X150900Y74516D01*
Y73313D01*
X151360Y72201D01*
X152211Y71350D01*
X153322Y70890D01*
X154525D01*
X155575Y71325D01*
X156624Y70890D01*
X157746D01*
X157941Y70668D01*
X158407Y69756D01*
X138089Y49437D01*
X137583Y48681D01*
X137406Y47789D01*
Y13448D01*
X134157Y10200D01*
X134008Y10154D01*
X133748Y9939D01*
X133501Y9796D01*
X133129Y9642D01*
X132633Y9492D01*
X132018Y9361D01*
X131323Y9260D01*
X128427Y9122D01*
X127288Y9145D01*
X126978Y9024D01*
X125812D01*
X123517Y8409D01*
X121459Y7221D01*
X119779Y5541D01*
X118591Y3483D01*
X117976Y1188D01*
Y-1188D01*
X118591Y-3483D01*
X119779Y-5541D01*
X121459Y-7221D01*
X123517Y-8409D01*
X125812Y-9024D01*
X128188D01*
X130483Y-8409D01*
X132541Y-7221D01*
X134221Y-5541D01*
X135409Y-3483D01*
X136024Y-1188D01*
Y-438D01*
X136148Y-170D01*
X136238Y2127D01*
X136434Y3980D01*
X136562Y4714D01*
X136712Y5346D01*
X136874Y5855D01*
X137036Y6235D01*
X137178Y6480D01*
X137383Y6730D01*
X137429Y6878D01*
X141385Y10834D01*
X141890Y11591D01*
X142067Y12483D01*
Y46823D01*
X178512Y83267D01*
X279260D01*
X280152Y83445D01*
X280908Y83950D01*
X281182Y84361D01*
X289732D01*
X290607Y84723D01*
X292384Y86501D01*
X293557Y86014D01*
Y82456D01*
X292493Y81523D01*
X291692D01*
X290953Y81216D01*
X290828Y81092D01*
X290699Y81048D01*
X290614Y80974D01*
X290550Y80924D01*
X290490Y80883D01*
X290435Y80850D01*
X290384Y80825D01*
X290341Y80808D01*
X281182D01*
X280908Y81219D01*
X280152Y81724D01*
X279260Y81902D01*
X182949D01*
X182057Y81724D01*
X181301Y81219D01*
X150752Y50670D01*
X150247Y49914D01*
X150069Y49022D01*
Y37658D01*
X149996Y37520D01*
X149964Y37191D01*
X149891Y36916D01*
X149737Y36538D01*
X149491Y36073D01*
X149150Y35532D01*
X148730Y34953D01*
X146796Y32739D01*
X145980Y31919D01*
X145857Y31618D01*
X145179Y30941D01*
X143991Y28883D01*
X143376Y26588D01*
Y24212D01*
X143991Y21917D01*
X145179Y19859D01*
X146859Y18179D01*
X148917Y16991D01*
X151212Y16376D01*
X153588D01*
X155883Y16991D01*
X157941Y18179D01*
X159621Y19859D01*
X160809Y21917D01*
X161424Y24212D01*
Y26588D01*
X160809Y28883D01*
X159621Y30941D01*
X158943Y31618D01*
X158820Y31919D01*
X157984Y32760D01*
X157268Y33523D01*
X156079Y34940D01*
X155651Y35532D01*
X155309Y36073D01*
X155063Y36538D01*
X154909Y36916D01*
X154836Y37191D01*
X154804Y37520D01*
X154731Y37658D01*
Y48057D01*
X183914Y77240D01*
X279260D01*
X280152Y77418D01*
X280908Y77923D01*
X281182Y78334D01*
X290284D01*
X290307Y78323D01*
X290346Y78302D01*
X290389Y78273D01*
X290436Y78236D01*
X290487Y78189D01*
X290560Y78112D01*
X290714Y78043D01*
X290953Y77805D01*
X291321Y77652D01*
X291363Y77245D01*
X291195Y76330D01*
X290706Y76128D01*
X290140Y75562D01*
X289834Y74822D01*
Y74022D01*
X290140Y73282D01*
X290706Y72716D01*
X291446Y72410D01*
X292246D01*
X292986Y72716D01*
X293552Y73282D01*
X293858Y74022D01*
Y74822D01*
X293552Y75562D01*
X292986Y76128D01*
X292617Y76280D01*
X292576Y76688D01*
X292744Y77603D01*
X293232Y77805D01*
X293798Y78371D01*
X294104Y79110D01*
Y79847D01*
X294104Y79911D01*
X295112Y80797D01*
X298780D01*
X299807Y79959D01*
X299807Y79640D01*
Y79159D01*
X300114Y78419D01*
X300293Y78240D01*
X300350Y78095D01*
X300425Y78016D01*
X300474Y77958D01*
X300513Y77905D01*
X300544Y77855D01*
X300568Y77810D01*
X300582Y77777D01*
Y70938D01*
X299065Y69421D01*
X281182D01*
X280908Y69832D01*
X280152Y70337D01*
X279260Y70514D01*
X180198D01*
X179306Y70337D01*
X178549Y69832D01*
X165230Y56512D01*
X164725Y55756D01*
X164547Y54864D01*
Y15443D01*
X159419Y10316D01*
X159270Y10270D01*
X159015Y10060D01*
X158769Y9917D01*
X158393Y9759D01*
X157890Y9604D01*
X157266Y9463D01*
X156560Y9350D01*
X153627Y9153D01*
X152470Y9149D01*
X152170Y9024D01*
X151212D01*
X148917Y8409D01*
X146859Y7221D01*
X145179Y5541D01*
X143991Y3483D01*
X143376Y1188D01*
Y-1188D01*
X143991Y-3483D01*
X145179Y-5541D01*
X146859Y-7221D01*
X148917Y-8409D01*
X151212Y-9024D01*
X153588D01*
X155883Y-8409D01*
X157941Y-7221D01*
X159621Y-5541D01*
X160809Y-3483D01*
X161424Y-1188D01*
Y-230D01*
X161549Y70D01*
X161553Y1256D01*
X161587Y2301D01*
X161747Y4144D01*
X161863Y4866D01*
X162004Y5490D01*
X162159Y5993D01*
X162317Y6369D01*
X162460Y6615D01*
X162670Y6870D01*
X162715Y7019D01*
X168526Y12830D01*
X169031Y13586D01*
X169209Y14478D01*
Y19692D01*
X170479Y20033D01*
X170579Y19859D01*
X172259Y18179D01*
X174317Y16991D01*
X176612Y16376D01*
X178988D01*
X181283Y16991D01*
X183341Y18179D01*
X185021Y19859D01*
X186209Y21917D01*
X186824Y24212D01*
Y26588D01*
X186209Y28883D01*
X185021Y30941D01*
X184343Y31618D01*
X184220Y31919D01*
X183384Y32760D01*
X182668Y33523D01*
X181479Y34940D01*
X181050Y35532D01*
X180709Y36073D01*
X180463Y36538D01*
X180309Y36916D01*
X180236Y37191D01*
X180204Y37520D01*
X180131Y37658D01*
Y51867D01*
X188120Y59855D01*
X189032Y59389D01*
X189254Y59194D01*
Y58073D01*
X189714Y56961D01*
X190565Y56110D01*
X191677Y55650D01*
X192880D01*
X193991Y56110D01*
X194842Y56961D01*
X195302Y58073D01*
Y59275D01*
X194842Y60387D01*
X193991Y61238D01*
X193543Y61423D01*
X193796Y62693D01*
X279260D01*
X280152Y62871D01*
X280908Y63376D01*
X281182Y63787D01*
X293612D01*
X294714Y63382D01*
Y60096D01*
X286308D01*
Y51366D01*
X286308Y51048D01*
Y50096D01*
X286308Y49778D01*
Y41048D01*
X287806D01*
Y40293D01*
X288266Y39181D01*
X289117Y38330D01*
X290229Y37870D01*
X291432D01*
X292543Y38330D01*
X293394Y39181D01*
X293444Y39303D01*
X294714Y39050D01*
Y38334D01*
X304396D01*
X304882Y37161D01*
X302057Y34335D01*
X209804D01*
X208912Y34157D01*
X208156Y33652D01*
X184819Y10316D01*
X184671Y10270D01*
X184415Y10060D01*
X184169Y9917D01*
X183793Y9759D01*
X183290Y9604D01*
X182666Y9463D01*
X181960Y9350D01*
X179027Y9153D01*
X177870Y9149D01*
X177570Y9024D01*
X176612D01*
X174317Y8409D01*
X172259Y7221D01*
X170579Y5541D01*
X169391Y3483D01*
X168776Y1188D01*
Y-1188D01*
X169391Y-3483D01*
X170579Y-5541D01*
X172259Y-7221D01*
X174317Y-8409D01*
X176612Y-9024D01*
X178988D01*
X181283Y-8409D01*
X183341Y-7221D01*
X185021Y-5541D01*
X186209Y-3483D01*
X186824Y-1188D01*
Y-230D01*
X186949Y70D01*
X186953Y1256D01*
X186987Y2301D01*
X187147Y4144D01*
X187263Y4866D01*
X187404Y5490D01*
X187559Y5993D01*
X187717Y6369D01*
X187860Y6615D01*
X188070Y6870D01*
X188116Y7019D01*
X210769Y29673D01*
X228797D01*
X229323Y28403D01*
X210755Y9835D01*
X210606Y9789D01*
X210605Y9788D01*
X210603Y9787D01*
X210329Y9561D01*
X210083Y9419D01*
X209726Y9275D01*
X209251Y9145D01*
X208664Y9040D01*
X207967Y8969D01*
X207183Y8937D01*
X205245Y9001D01*
X204141Y9101D01*
X203895Y9024D01*
X202012D01*
X199717Y8409D01*
X197659Y7221D01*
X195979Y5541D01*
X194791Y3483D01*
X194176Y1188D01*
Y-1188D01*
X194791Y-3483D01*
X195979Y-5541D01*
X197659Y-7221D01*
X199717Y-8409D01*
X202012Y-9024D01*
X204388D01*
X206683Y-8409D01*
X208741Y-7221D01*
X210421Y-5541D01*
X211609Y-3483D01*
X212224Y-1188D01*
Y-972D01*
X212314Y-802D01*
Y-802D01*
X212314Y-802D01*
X212433Y435D01*
X212715Y2574D01*
X213052Y4267D01*
X213226Y4906D01*
X213407Y5433D01*
X213578Y5821D01*
X213718Y6061D01*
X213905Y6290D01*
X213949Y6437D01*
X232360Y24847D01*
X248355D01*
X248881Y23577D01*
X235619Y10316D01*
X235471Y10270D01*
X235215Y10060D01*
X234969Y9917D01*
X234593Y9759D01*
X234090Y9604D01*
X233466Y9463D01*
X232760Y9350D01*
X229827Y9153D01*
X228670Y9149D01*
X228370Y9024D01*
X227412D01*
X225117Y8409D01*
X223059Y7221D01*
X221379Y5541D01*
X220191Y3483D01*
X219576Y1188D01*
Y-1188D01*
X220191Y-3483D01*
X221379Y-5541D01*
X223059Y-7221D01*
X225117Y-8409D01*
X227412Y-9024D01*
X229788D01*
X232083Y-8409D01*
X234141Y-7221D01*
X235821Y-5541D01*
X237009Y-3483D01*
X237624Y-1188D01*
Y-230D01*
X237749Y70D01*
X237753Y1256D01*
X237787Y2301D01*
X237947Y4144D01*
X238063Y4866D01*
X238204Y5490D01*
X238359Y5993D01*
X238517Y6369D01*
X238660Y6615D01*
X238870Y6870D01*
X238916Y7019D01*
X251917Y20021D01*
X268929D01*
X269455Y18751D01*
X261019Y10316D01*
X260870Y10270D01*
X260615Y10060D01*
X260369Y9917D01*
X259993Y9759D01*
X259490Y9604D01*
X258866Y9463D01*
X258160Y9350D01*
X255227Y9153D01*
X254070Y9149D01*
X253770Y9024D01*
X252812D01*
X250517Y8409D01*
X248459Y7221D01*
X246779Y5541D01*
X245591Y3483D01*
X244976Y1188D01*
Y-1188D01*
X245591Y-3483D01*
X246779Y-5541D01*
X248459Y-7221D01*
X250517Y-8409D01*
X252812Y-9024D01*
X255188D01*
X257483Y-8409D01*
X259541Y-7221D01*
X261221Y-5541D01*
X262409Y-3483D01*
X263024Y-1188D01*
Y-230D01*
X263149Y70D01*
X263153Y1256D01*
X263187Y2301D01*
X263347Y4144D01*
X263463Y4866D01*
X263604Y5490D01*
X263759Y5993D01*
X263917Y6369D01*
X264060Y6615D01*
X264270Y6870D01*
X264315Y7019D01*
X272745Y15449D01*
X289757D01*
X290283Y14179D01*
X286419Y10316D01*
X286271Y10270D01*
X286015Y10060D01*
X285769Y9917D01*
X285393Y9759D01*
X284890Y9604D01*
X284266Y9463D01*
X283560Y9350D01*
X280627Y9153D01*
X279470Y9149D01*
X279170Y9024D01*
X278212D01*
X275917Y8409D01*
X273859Y7221D01*
X272179Y5541D01*
X270991Y3483D01*
X270376Y1188D01*
Y-1188D01*
X270991Y-3483D01*
X272179Y-5541D01*
X273859Y-7221D01*
X275917Y-8409D01*
X278212Y-9024D01*
X280588D01*
X282883Y-8409D01*
X284941Y-7221D01*
X286621Y-5541D01*
X287809Y-3483D01*
X288424Y-1188D01*
Y-230D01*
X288549Y70D01*
X288553Y1256D01*
X288587Y2301D01*
X288747Y4144D01*
X288863Y4866D01*
X289004Y5490D01*
X289159Y5993D01*
X289317Y6369D01*
X289460Y6615D01*
X289670Y6870D01*
X289715Y7019D01*
X293827Y11131D01*
X309118D01*
X310010Y11309D01*
X310766Y11814D01*
X331086Y32134D01*
X331591Y32890D01*
X331769Y33782D01*
Y62249D01*
X331591Y63141D01*
X331086Y63897D01*
X330675Y64172D01*
Y81677D01*
X330313Y82552D01*
X330313Y82552D01*
X328872Y83992D01*
X328871Y83994D01*
X328865Y84024D01*
X328860Y84060D01*
X328858Y84106D01*
X328861Y84162D01*
X328872Y84258D01*
X328832Y84405D01*
Y84959D01*
X328526Y85699D01*
X328387Y85837D01*
X328410Y87212D01*
X329193Y87958D01*
X330143Y87798D01*
X334150Y83791D01*
Y64172D01*
X333739Y63897D01*
X333234Y63141D01*
X333056Y62249D01*
Y31552D01*
X311819Y10316D01*
X311670Y10270D01*
X311415Y10060D01*
X311169Y9917D01*
X310793Y9759D01*
X310290Y9604D01*
X309666Y9463D01*
X308960Y9350D01*
X306027Y9153D01*
X304870Y9149D01*
X304570Y9024D01*
X303612D01*
X301317Y8409D01*
X299259Y7221D01*
X297579Y5541D01*
X296391Y3483D01*
X295776Y1188D01*
Y-1188D01*
X296391Y-3483D01*
X297579Y-5541D01*
X299259Y-7221D01*
X301317Y-8409D01*
X303612Y-9024D01*
X305988D01*
X308283Y-8409D01*
X310341Y-7221D01*
X312021Y-5541D01*
X313209Y-3483D01*
X313824Y-1188D01*
Y-230D01*
X313949Y70D01*
X313953Y1256D01*
X313987Y2301D01*
X314147Y4144D01*
X314263Y4866D01*
X314404Y5490D01*
X314559Y5993D01*
X314717Y6369D01*
X314860Y6615D01*
X315070Y6870D01*
X315116Y7019D01*
X334570Y26474D01*
X335743Y25988D01*
Y21031D01*
X328552Y13840D01*
X328047Y13084D01*
X327890Y12297D01*
X327796Y12120D01*
X327764Y11791D01*
X327691Y11516D01*
X327537Y11138D01*
X327291Y10673D01*
X326950Y10132D01*
X326530Y9553D01*
X324595Y7339D01*
X323780Y6519D01*
X323657Y6219D01*
X322979Y5541D01*
X321791Y3483D01*
X321176Y1188D01*
Y-1188D01*
X321791Y-3483D01*
X322979Y-5541D01*
X324659Y-7221D01*
X326717Y-8409D01*
X329012Y-9024D01*
X331388D01*
X333683Y-8409D01*
X335741Y-7221D01*
X337421Y-5541D01*
X338609Y-3483D01*
X339224Y-1188D01*
Y1188D01*
X338609Y3483D01*
X337421Y5541D01*
X336743Y6219D01*
X336620Y6519D01*
X335784Y7360D01*
X335069Y8123D01*
X333879Y9540D01*
X333451Y10132D01*
X333109Y10673D01*
X332863Y11138D01*
X332741Y11437D01*
X339722Y18418D01*
X340227Y19174D01*
X340405Y20066D01*
Y62249D01*
X340227Y63141D01*
X339722Y63897D01*
X339311Y64172D01*
Y84582D01*
X338949Y85457D01*
X333033Y91373D01*
X333118Y92782D01*
X333297Y92962D01*
X333442Y93018D01*
X333521Y93094D01*
X333579Y93143D01*
X333632Y93182D01*
X333681Y93213D01*
X333727Y93237D01*
X333760Y93251D01*
X336707D01*
X336982Y92840D01*
X337738Y92335D01*
X338630Y92157D01*
X345237D01*
X353269Y84125D01*
Y12258D01*
X353196Y12120D01*
X353164Y11791D01*
X353091Y11516D01*
X352937Y11138D01*
X352691Y10673D01*
X352350Y10132D01*
X351930Y9553D01*
X349995Y7339D01*
X349180Y6519D01*
X349057Y6219D01*
X348379Y5541D01*
X347191Y3483D01*
X346576Y1188D01*
Y-1188D01*
X347191Y-3483D01*
X348379Y-5541D01*
X350059Y-7221D01*
X352117Y-8409D01*
X354412Y-9024D01*
X356788D01*
X359083Y-8409D01*
X361141Y-7221D01*
X362821Y-5541D01*
X364009Y-3483D01*
X364624Y-1188D01*
Y1188D01*
X364009Y3483D01*
X362821Y5541D01*
X362143Y6219D01*
X362020Y6519D01*
X361184Y7360D01*
X360468Y8123D01*
X359279Y9540D01*
X358851Y10132D01*
X358509Y10673D01*
X358263Y11138D01*
X358109Y11516D01*
X358036Y11791D01*
X358004Y12120D01*
X357931Y12258D01*
Y85090D01*
X357753Y85982D01*
X357248Y86738D01*
X350315Y93671D01*
X350801Y94844D01*
X367442D01*
X378669Y83617D01*
Y12258D01*
X378596Y12120D01*
X378564Y11791D01*
X378491Y11516D01*
X378337Y11138D01*
X378091Y10673D01*
X377749Y10132D01*
X377330Y9553D01*
X375396Y7339D01*
X374580Y6519D01*
X374457Y6219D01*
X373779Y5541D01*
X372591Y3483D01*
X371976Y1188D01*
Y-1188D01*
X372591Y-3483D01*
X373779Y-5541D01*
X375459Y-7221D01*
X377517Y-8409D01*
X379812Y-9024D01*
X382188D01*
X384483Y-8409D01*
X386541Y-7221D01*
X388221Y-5541D01*
X389409Y-3483D01*
X390024Y-1188D01*
Y1188D01*
X389409Y3483D01*
X388221Y5541D01*
X387543Y6219D01*
X387420Y6519D01*
X386584Y7360D01*
X385868Y8123D01*
X384679Y9540D01*
X384250Y10132D01*
X383909Y10673D01*
X383663Y11138D01*
X383509Y11516D01*
X383436Y11791D01*
X383404Y12120D01*
X383331Y12258D01*
Y84582D01*
X383153Y85474D01*
X382648Y86230D01*
X372814Y96064D01*
X373300Y97237D01*
X375717D01*
X387813Y85141D01*
Y16256D01*
X387991Y15364D01*
X388496Y14608D01*
X396085Y7019D01*
X396130Y6870D01*
X396340Y6615D01*
X396483Y6369D01*
X396641Y5993D01*
X396796Y5490D01*
X396937Y4866D01*
X397050Y4160D01*
X397247Y1227D01*
X397251Y70D01*
X397376Y-230D01*
Y-1188D01*
X397991Y-3483D01*
X399179Y-5541D01*
X400859Y-7221D01*
X402917Y-8409D01*
X405212Y-9024D01*
X407588D01*
X409883Y-8409D01*
X411941Y-7221D01*
X413621Y-5541D01*
X414809Y-3483D01*
X415424Y-1188D01*
Y1188D01*
X414809Y3483D01*
X413621Y5541D01*
X411941Y7221D01*
X409883Y8409D01*
X407588Y9024D01*
X406630D01*
X406330Y9149D01*
X405144Y9153D01*
X404099Y9187D01*
X402256Y9347D01*
X401534Y9463D01*
X400910Y9604D01*
X400407Y9759D01*
X400031Y9917D01*
X399785Y10060D01*
X399529Y10270D01*
X399381Y10316D01*
X392475Y17221D01*
Y86106D01*
X392297Y86998D01*
X391792Y87754D01*
X381475Y98071D01*
X381932Y99410D01*
X382602Y99496D01*
X395179Y86918D01*
Y34290D01*
X395357Y33398D01*
X395862Y32642D01*
X421484Y7019D01*
X421530Y6870D01*
X421740Y6615D01*
X421883Y6369D01*
X422041Y5993D01*
X422196Y5490D01*
X422337Y4866D01*
X422450Y4160D01*
X422647Y1227D01*
X422651Y70D01*
X422776Y-230D01*
Y-1188D01*
X423391Y-3483D01*
X424579Y-5541D01*
X426259Y-7221D01*
X428317Y-8409D01*
X430612Y-9024D01*
X432988D01*
X435283Y-8409D01*
X437341Y-7221D01*
X439021Y-5541D01*
X440209Y-3483D01*
X440824Y-1188D01*
Y1188D01*
X440209Y3483D01*
X439021Y5541D01*
X437555Y7007D01*
X437856Y8278D01*
X445620Y8283D01*
X446884Y7019D01*
X446930Y6870D01*
X447140Y6615D01*
X447283Y6369D01*
X447441Y5993D01*
X447596Y5490D01*
X447737Y4866D01*
X447850Y4160D01*
X448047Y1227D01*
X448051Y70D01*
X448176Y-230D01*
Y-1188D01*
X448791Y-3483D01*
X449979Y-5541D01*
X451659Y-7221D01*
X453717Y-8409D01*
X456012Y-9024D01*
X458388D01*
X460683Y-8409D01*
X462741Y-7221D01*
X464421Y-5541D01*
X465609Y-3483D01*
X466224Y-1188D01*
Y1188D01*
X465609Y3483D01*
X464421Y5541D01*
X462935Y7027D01*
X463210Y8297D01*
X471001Y8303D01*
X472285Y7019D01*
X472330Y6870D01*
X472540Y6615D01*
X472683Y6369D01*
X472841Y5993D01*
X472996Y5490D01*
X473137Y4866D01*
X473250Y4160D01*
X473447Y1227D01*
X473451Y70D01*
X473576Y-230D01*
Y-1188D01*
X474191Y-3483D01*
X475379Y-5541D01*
X477059Y-7221D01*
X479117Y-8409D01*
X481412Y-9024D01*
X483788D01*
X486083Y-8409D01*
X488141Y-7221D01*
X489821Y-5541D01*
X491009Y-3483D01*
X491624Y-1188D01*
Y1188D01*
X491009Y3483D01*
X489821Y5541D01*
X488316Y7046D01*
X488564Y8316D01*
X494000Y8320D01*
X494899Y7422D01*
Y-5000D01*
X494881D01*
X494615Y-7014D01*
X493838Y-8890D01*
X492602Y-10502D01*
X490990Y-11738D01*
X489114Y-12515D01*
X487100Y-12781D01*
Y-12799D01*
X-2900Y-12799D01*
Y-12781D01*
X-4914Y-12515D01*
X-6790Y-11738D01*
X-8402Y-10502D01*
X-9638Y-8890D01*
X-10415Y-7014D01*
X-10681Y-5000D01*
X-10699D01*
Y182500D01*
X-10681D01*
X-10415Y184514D01*
X-9638Y186390D01*
X-8402Y188002D01*
X-6790Y189238D01*
X-4914Y190015D01*
X-2900Y190281D01*
X-2900Y190280D01*
Y190280D01*
X-1630Y190299D01*
X487100Y190299D01*
D02*
G37*
G36*
X32903Y176515D02*
X33109Y173454D01*
X33242Y172622D01*
X33408Y171885D01*
X33607Y171242D01*
X33838Y170694D01*
X34101Y170240D01*
X34397Y169881D01*
X33319Y168803D01*
X32960Y169099D01*
X32506Y169362D01*
X31958Y169593D01*
X31315Y169792D01*
X30578Y169958D01*
X29746Y170091D01*
X27800Y170261D01*
X26685Y170297D01*
X25475Y170300D01*
X32900Y177725D01*
X32903Y176515D01*
D02*
G37*
G36*
X7503D02*
X7709Y173454D01*
X7843Y172622D01*
X8008Y171885D01*
X8207Y171242D01*
X8438Y170694D01*
X8701Y170240D01*
X8997Y169881D01*
X7919Y168803D01*
X7560Y169099D01*
X7106Y169362D01*
X6558Y169593D01*
X5915Y169792D01*
X5178Y169958D01*
X4346Y170091D01*
X2400Y170261D01*
X1285Y170297D01*
X75Y170300D01*
X7500Y177725D01*
X7503Y176515D01*
D02*
G37*
G36*
X297162Y120081D02*
X297072Y119954D01*
X297050Y119916D01*
X297032Y119880D01*
X297018Y119846D01*
X297008Y119814D01*
X297002Y119784D01*
X297000Y119757D01*
X296238D01*
X296236Y119784D01*
X296230Y119814D01*
X296220Y119846D01*
X296206Y119880D01*
X296187Y119916D01*
X296165Y119954D01*
X296109Y120036D01*
X296075Y120081D01*
X296037Y120127D01*
X297201D01*
X297162Y120081D01*
D02*
G37*
G36*
X307328Y120036D02*
X307301Y119964D01*
X307278Y119866D01*
X307257Y119741D01*
X307225Y119412D01*
X307202Y118720D01*
X307200Y118435D01*
X306438D01*
X306437Y118720D01*
X306361Y119866D01*
X306337Y119964D01*
X306310Y120036D01*
X306280Y120081D01*
X307358D01*
X307328Y120036D01*
D02*
G37*
G36*
X304935D02*
X304908Y119964D01*
X304885Y119866D01*
X304864Y119741D01*
X304832Y119412D01*
X304809Y118720D01*
X304807Y118435D01*
X304045D01*
X304044Y118720D01*
X303968Y119866D01*
X303944Y119964D01*
X303917Y120036D01*
X303887Y120081D01*
X304965D01*
X304935Y120036D01*
D02*
G37*
G36*
X302328D02*
X302302Y119964D01*
X302278Y119866D01*
X302257Y119741D01*
X302225Y119412D01*
X302202Y118720D01*
X302200Y118435D01*
X301438D01*
X301437Y118720D01*
X301361Y119866D01*
X301337Y119964D01*
X301310Y120036D01*
X301280Y120081D01*
X302358D01*
X302328Y120036D01*
D02*
G37*
G36*
X299721D02*
X299694Y119964D01*
X299671Y119866D01*
X299650Y119741D01*
X299619Y119412D01*
X299595Y118720D01*
X299593Y118435D01*
X298831D01*
X298830Y118720D01*
X298754Y119866D01*
X298730Y119964D01*
X298703Y120036D01*
X298673Y120081D01*
X299751D01*
X299721Y120036D01*
D02*
G37*
G36*
X294721D02*
X294694Y119964D01*
X294671Y119866D01*
X294650Y119741D01*
X294618Y119412D01*
X294595Y118720D01*
X294593Y118435D01*
X293831D01*
X293830Y118720D01*
X293754Y119866D01*
X293730Y119964D01*
X293703Y120036D01*
X293673Y120081D01*
X294751D01*
X294721Y120036D01*
D02*
G37*
G36*
X292328D02*
X292301Y119964D01*
X292278Y119866D01*
X292257Y119741D01*
X292225Y119412D01*
X292202Y118720D01*
X292200Y118435D01*
X291438D01*
X291437Y118720D01*
X291361Y119866D01*
X291337Y119964D01*
X291310Y120036D01*
X291280Y120081D01*
X292358D01*
X292328Y120036D01*
D02*
G37*
G36*
X289922D02*
X289895Y119964D01*
X289872Y119866D01*
X289851Y119741D01*
X289819Y119412D01*
X289796Y118720D01*
X289794Y118435D01*
X289032D01*
X289030Y118720D01*
X288955Y119866D01*
X288931Y119964D01*
X288904Y120036D01*
X288874Y120081D01*
X289952D01*
X289922Y120036D01*
D02*
G37*
G36*
X338091Y107157D02*
X338046Y107187D01*
X337975Y107214D01*
X337877Y107238D01*
X337752Y107258D01*
X337423Y107290D01*
X336730Y107313D01*
X336446Y107315D01*
Y108077D01*
X336730Y108079D01*
X337877Y108154D01*
X337975Y108178D01*
X338046Y108205D01*
X338091Y108235D01*
Y107157D01*
D02*
G37*
G36*
X287082Y120619D02*
X287260Y119727D01*
X287765Y118971D01*
X288176Y118697D01*
Y107722D01*
X287420Y106660D01*
X286620D01*
X285880Y106354D01*
X285701Y106174D01*
X285556Y106118D01*
X285477Y106042D01*
X285419Y105993D01*
X285366Y105954D01*
X285317Y105923D01*
X285271Y105899D01*
X285238Y105885D01*
X281182D01*
X280908Y106296D01*
X280152Y106801D01*
X279260Y106979D01*
X108966D01*
X108074Y106801D01*
X107318Y106296D01*
X74552Y73530D01*
X74047Y72774D01*
X73869Y71882D01*
Y37658D01*
X73796Y37520D01*
X73764Y37191D01*
X73691Y36916D01*
X73537Y36538D01*
X73291Y36073D01*
X72950Y35532D01*
X72530Y34953D01*
X70595Y32739D01*
X69780Y31919D01*
X69657Y31618D01*
X68979Y30941D01*
X68453Y30031D01*
X66759Y29615D01*
X66593Y29719D01*
Y85141D01*
X104089Y122637D01*
X287082D01*
Y120619D01*
D02*
G37*
G36*
X307205Y106388D02*
X307220Y106278D01*
X307245Y106169D01*
X307279Y106062D01*
X307324Y105956D01*
X307378Y105852D01*
X307442Y105750D01*
X307516Y105649D01*
X307600Y105550D01*
X307694Y105452D01*
X305944D01*
X306038Y105550D01*
X306122Y105649D01*
X306196Y105750D01*
X306260Y105852D01*
X306315Y105956D01*
X306359Y106062D01*
X306394Y106169D01*
X306418Y106278D01*
X306433Y106388D01*
X306438Y106500D01*
X307200D01*
X307205Y106388D01*
D02*
G37*
G36*
X302205D02*
X302220Y106278D01*
X302245Y106169D01*
X302279Y106062D01*
X302324Y105956D01*
X302378Y105852D01*
X302442Y105750D01*
X302516Y105649D01*
X302600Y105550D01*
X302694Y105452D01*
X300944D01*
X301038Y105550D01*
X301122Y105649D01*
X301196Y105750D01*
X301260Y105852D01*
X301315Y105956D01*
X301359Y106062D01*
X301394Y106169D01*
X301418Y106278D01*
X301433Y106388D01*
X301438Y106500D01*
X302200D01*
X302205Y106388D01*
D02*
G37*
G36*
X297205D02*
X297220Y106278D01*
X297245Y106169D01*
X297279Y106062D01*
X297324Y105956D01*
X297378Y105852D01*
X297442Y105750D01*
X297516Y105649D01*
X297600Y105550D01*
X297694Y105452D01*
X295944D01*
X296038Y105550D01*
X296122Y105649D01*
X296196Y105750D01*
X296260Y105852D01*
X296315Y105956D01*
X296359Y106062D01*
X296394Y106169D01*
X296418Y106278D01*
X296433Y106388D01*
X296438Y106500D01*
X297200D01*
X297205Y106388D01*
D02*
G37*
G36*
X292205D02*
X292220Y106278D01*
X292245Y106169D01*
X292279Y106062D01*
X292324Y105956D01*
X292378Y105852D01*
X292442Y105750D01*
X292516Y105649D01*
X292600Y105550D01*
X292694Y105452D01*
X290944D01*
X291038Y105550D01*
X291122Y105649D01*
X291196Y105750D01*
X291260Y105852D01*
X291315Y105956D01*
X291359Y106062D01*
X291394Y106169D01*
X291418Y106278D01*
X291433Y106388D01*
X291438Y106500D01*
X292200D01*
X292205Y106388D01*
D02*
G37*
G36*
X323461Y105662D02*
X323386Y105580D01*
X323318Y105491D01*
X323259Y105397D01*
X323208Y105297D01*
X323164Y105191D01*
X323129Y105079D01*
X323102Y104961D01*
X323083Y104837D01*
X323073Y104708D01*
X323070Y104572D01*
X321833Y105810D01*
X321968Y105812D01*
X322097Y105823D01*
X322221Y105842D01*
X322339Y105869D01*
X322451Y105904D01*
X322557Y105947D01*
X322657Y105999D01*
X322752Y106058D01*
X322840Y106126D01*
X322923Y106201D01*
X323461Y105662D01*
D02*
G37*
G36*
X338091Y104109D02*
X338046Y104139D01*
X337975Y104166D01*
X337877Y104190D01*
X337752Y104210D01*
X337423Y104242D01*
X336730Y104265D01*
X336446Y104267D01*
Y105029D01*
X336730Y105031D01*
X337877Y105106D01*
X337975Y105130D01*
X338046Y105157D01*
X338091Y105187D01*
Y104109D01*
D02*
G37*
G36*
X279843Y105157D02*
X279915Y105130D01*
X280013Y105106D01*
X280137Y105086D01*
X280466Y105054D01*
X281159Y105031D01*
X281444Y105029D01*
Y104267D01*
X281159Y104265D01*
X280013Y104190D01*
X279915Y104166D01*
X279843Y104139D01*
X279798Y104109D01*
Y105187D01*
X279843Y105157D01*
D02*
G37*
G36*
X332968Y105429D02*
X333068Y105345D01*
X333168Y105271D01*
X333271Y105207D01*
X333375Y105153D01*
X333480Y105108D01*
X333587Y105073D01*
X333696Y105049D01*
X333807Y105034D01*
X333918Y105029D01*
Y104267D01*
X333807Y104262D01*
X333696Y104247D01*
X333587Y104222D01*
X333480Y104188D01*
X333375Y104143D01*
X333271Y104089D01*
X333168Y104025D01*
X333068Y103951D01*
X332968Y103867D01*
X332871Y103773D01*
Y105523D01*
X332968Y105429D01*
D02*
G37*
G36*
X286127Y103773D02*
X286030Y103867D01*
X285931Y103951D01*
X285830Y104025D01*
X285727Y104089D01*
X285623Y104143D01*
X285518Y104188D01*
X285410Y104222D01*
X285302Y104247D01*
X285191Y104262D01*
X285079Y104267D01*
Y105029D01*
X285191Y105034D01*
X285302Y105049D01*
X285410Y105073D01*
X285518Y105108D01*
X285623Y105153D01*
X285727Y105207D01*
X285830Y105271D01*
X285931Y105345D01*
X286030Y105429D01*
X286127Y105523D01*
Y103773D01*
D02*
G37*
G36*
X328081Y104595D02*
X328143Y104338D01*
X328183Y104219D01*
X328228Y104107D01*
X328279Y104001D01*
X328336Y103902D01*
X328398Y103809D01*
X328466Y103723D01*
X328539Y103643D01*
X328086Y103019D01*
X328001Y103096D01*
X327911Y103163D01*
X327817Y103220D01*
X327717Y103266D01*
X327613Y103302D01*
X327504Y103327D01*
X327390Y103342D01*
X327271Y103347D01*
X327148Y103342D01*
X327019Y103326D01*
X328058Y104734D01*
X328081Y104595D01*
D02*
G37*
G36*
X338091Y101569D02*
X338046Y101599D01*
X337975Y101626D01*
X337877Y101650D01*
X337752Y101670D01*
X337423Y101702D01*
X336730Y101725D01*
X336446Y101727D01*
Y102489D01*
X336730Y102491D01*
X337877Y102566D01*
X337975Y102590D01*
X338046Y102617D01*
X338091Y102647D01*
Y101569D01*
D02*
G37*
G36*
X290927Y101300D02*
X291014Y101233D01*
X291108Y101171D01*
X291207Y101116D01*
X291313Y101067D01*
X291426Y101025D01*
X291545Y100989D01*
X291670Y100959D01*
X291802Y100936D01*
X291940Y100919D01*
X290578Y99820D01*
X290588Y99951D01*
X290590Y100077D01*
X290581Y100198D01*
X290562Y100313D01*
X290534Y100423D01*
X290496Y100528D01*
X290449Y100628D01*
X290391Y100723D01*
X290324Y100812D01*
X290247Y100896D01*
X290847Y101375D01*
X290927Y101300D01*
D02*
G37*
G36*
X305946Y101192D02*
X306033Y101124D01*
X306126Y101063D01*
X306226Y101007D01*
X306332Y100958D01*
X306444Y100914D01*
X306563Y100877D01*
X306688Y100846D01*
X306820Y100821D01*
X306959Y100802D01*
X305580Y99724D01*
X305593Y99854D01*
X305595Y99979D01*
X305588Y100099D01*
X305571Y100214D01*
X305543Y100324D01*
X305506Y100428D01*
X305459Y100528D01*
X305402Y100623D01*
X305335Y100712D01*
X305258Y100797D01*
X305866Y101266D01*
X305946Y101192D01*
D02*
G37*
G36*
X300799Y101126D02*
X300888Y101058D01*
X300982Y100999D01*
X301082Y100947D01*
X301188Y100904D01*
X301300Y100869D01*
X301418Y100842D01*
X301542Y100823D01*
X301671Y100812D01*
X301807Y100810D01*
X300569Y99572D01*
X300567Y99708D01*
X300556Y99837D01*
X300537Y99961D01*
X300510Y100079D01*
X300475Y100191D01*
X300432Y100297D01*
X300380Y100397D01*
X300321Y100491D01*
X300253Y100580D01*
X300178Y100662D01*
X300716Y101201D01*
X300799Y101126D01*
D02*
G37*
G36*
X295799D02*
X295888Y101058D01*
X295982Y100999D01*
X296082Y100947D01*
X296188Y100904D01*
X296300Y100869D01*
X296418Y100842D01*
X296542Y100823D01*
X296671Y100812D01*
X296807Y100810D01*
X295569Y99572D01*
X295567Y99708D01*
X295556Y99837D01*
X295537Y99961D01*
X295510Y100079D01*
X295475Y100191D01*
X295432Y100297D01*
X295380Y100397D01*
X295321Y100491D01*
X295253Y100580D01*
X295178Y100662D01*
X295716Y101201D01*
X295799Y101126D01*
D02*
G37*
G36*
X338091Y99029D02*
X338046Y99059D01*
X337975Y99086D01*
X337877Y99109D01*
X337752Y99130D01*
X337423Y99162D01*
X336730Y99185D01*
X336446Y99187D01*
Y99949D01*
X336730Y99951D01*
X337877Y100027D01*
X337975Y100050D01*
X338046Y100077D01*
X338091Y100107D01*
Y99029D01*
D02*
G37*
G36*
X332714Y100349D02*
X332813Y100265D01*
X332914Y100191D01*
X333017Y100127D01*
X333121Y100072D01*
X333226Y100028D01*
X333334Y99993D01*
X333442Y99969D01*
X333553Y99954D01*
X333665Y99949D01*
Y99187D01*
X333553Y99182D01*
X333442Y99167D01*
X333334Y99143D01*
X333226Y99108D01*
X333121Y99064D01*
X333017Y99009D01*
X332914Y98945D01*
X332813Y98871D01*
X332714Y98787D01*
X332617Y98693D01*
Y100443D01*
X332714Y100349D01*
D02*
G37*
G36*
X328081Y99572D02*
X328139Y99315D01*
X328177Y99196D01*
X328222Y99084D01*
X328271Y98978D01*
X328327Y98878D01*
X328389Y98785D01*
X328457Y98699D01*
X328531Y98619D01*
X328067Y98005D01*
X327982Y98082D01*
X327893Y98149D01*
X327798Y98206D01*
X327698Y98253D01*
X327594Y98290D01*
X327484Y98316D01*
X327370Y98333D01*
X327250Y98340D01*
X327126Y98336D01*
X326996Y98322D01*
X328061Y99711D01*
X328081Y99572D01*
D02*
G37*
G36*
X316807Y98310D02*
X316672Y98307D01*
X316542Y98296D01*
X316419Y98277D01*
X316301Y98250D01*
X316189Y98215D01*
X316083Y98172D01*
X315983Y98121D01*
X315888Y98061D01*
X315800Y97994D01*
X315717Y97918D01*
X315178Y98457D01*
X315254Y98540D01*
X315322Y98628D01*
X315381Y98722D01*
X315432Y98823D01*
X315476Y98929D01*
X315511Y99041D01*
X315538Y99158D01*
X315557Y99282D01*
X315567Y99412D01*
X315570Y99547D01*
X316807Y98310D01*
D02*
G37*
G36*
X338091Y96636D02*
X338046Y96666D01*
X337975Y96693D01*
X337877Y96716D01*
X337752Y96737D01*
X337423Y96769D01*
X336730Y96792D01*
X336446Y96794D01*
Y97556D01*
X336730Y97558D01*
X337877Y97633D01*
X337975Y97657D01*
X338046Y97684D01*
X338091Y97714D01*
Y96636D01*
D02*
G37*
G36*
X279843Y97537D02*
X279915Y97510D01*
X280013Y97486D01*
X280137Y97466D01*
X280466Y97434D01*
X281159Y97411D01*
X281444Y97409D01*
Y96647D01*
X281159Y96645D01*
X280013Y96569D01*
X279915Y96546D01*
X279843Y96519D01*
X279798Y96489D01*
Y97567D01*
X279843Y97537D01*
D02*
G37*
G36*
X295667Y96044D02*
X295756Y95977D01*
X295851Y95920D01*
X295951Y95873D01*
X296055Y95836D01*
X296165Y95808D01*
X296280Y95791D01*
X296400Y95784D01*
X296525Y95786D01*
X296655Y95799D01*
X295577Y94420D01*
X295558Y94559D01*
X295502Y94816D01*
X295465Y94935D01*
X295421Y95047D01*
X295372Y95153D01*
X295316Y95253D01*
X295254Y95346D01*
X295187Y95433D01*
X295113Y95513D01*
X295582Y96121D01*
X295667Y96044D01*
D02*
G37*
G36*
X338091Y93949D02*
X338046Y93979D01*
X337975Y94006D01*
X337877Y94030D01*
X337752Y94050D01*
X337423Y94082D01*
X336730Y94105D01*
X336446Y94107D01*
Y94869D01*
X336730Y94871D01*
X337877Y94946D01*
X337975Y94970D01*
X338046Y94997D01*
X338091Y95027D01*
Y93949D01*
D02*
G37*
G36*
X279843Y94997D02*
X279915Y94970D01*
X280013Y94946D01*
X280137Y94926D01*
X280466Y94894D01*
X281159Y94871D01*
X281444Y94869D01*
Y94107D01*
X281159Y94105D01*
X280013Y94030D01*
X279915Y94006D01*
X279843Y93979D01*
X279798Y93949D01*
Y95027D01*
X279843Y94997D01*
D02*
G37*
G36*
X332968Y95269D02*
X333068Y95185D01*
X333168Y95111D01*
X333271Y95047D01*
X333375Y94993D01*
X333480Y94948D01*
X333587Y94913D01*
X333696Y94889D01*
X333807Y94874D01*
X333918Y94869D01*
Y94107D01*
X333807Y94102D01*
X333696Y94087D01*
X333587Y94062D01*
X333480Y94028D01*
X333375Y93983D01*
X333271Y93929D01*
X333168Y93865D01*
X333068Y93791D01*
X332968Y93707D01*
X332871Y93613D01*
Y95363D01*
X332968Y95269D01*
D02*
G37*
G36*
X285873Y93613D02*
X285776Y93707D01*
X285676Y93791D01*
X285576Y93865D01*
X285473Y93929D01*
X285369Y93983D01*
X285264Y94028D01*
X285156Y94062D01*
X285048Y94087D01*
X284937Y94102D01*
X284825Y94107D01*
Y94869D01*
X284937Y94874D01*
X285048Y94889D01*
X285156Y94913D01*
X285264Y94948D01*
X285369Y94993D01*
X285473Y95047D01*
X285576Y95111D01*
X285676Y95185D01*
X285776Y95269D01*
X285873Y95363D01*
Y93613D01*
D02*
G37*
G36*
X291756Y93311D02*
X291623Y93314D01*
X291494Y93308D01*
X291371Y93293D01*
X291255Y93269D01*
X291143Y93237D01*
X291037Y93195D01*
X290937Y93145D01*
X290842Y93087D01*
X290754Y93019D01*
X290670Y92943D01*
X290154Y93505D01*
X290229Y93587D01*
X290297Y93675D01*
X290357Y93769D01*
X290410Y93869D01*
X290455Y93975D01*
X290493Y94087D01*
X290523Y94206D01*
X290546Y94330D01*
X290562Y94461D01*
X290570Y94598D01*
X291756Y93311D01*
D02*
G37*
G36*
X328108Y94395D02*
X328113Y94268D01*
X328127Y94145D01*
X328150Y94028D01*
X328182Y93917D01*
X328223Y93811D01*
X328272Y93711D01*
X328331Y93617D01*
X328398Y93528D01*
X328475Y93444D01*
X327907Y92934D01*
X327826Y93009D01*
X327738Y93076D01*
X327644Y93137D01*
X327544Y93190D01*
X327437Y93236D01*
X327325Y93274D01*
X327206Y93305D01*
X327082Y93329D01*
X326951Y93346D01*
X326814Y93355D01*
X328112Y94529D01*
X328108Y94395D01*
D02*
G37*
G36*
X323073Y94412D02*
X323083Y94282D01*
X323102Y94158D01*
X323129Y94041D01*
X323164Y93929D01*
X323208Y93823D01*
X323259Y93722D01*
X323318Y93628D01*
X323386Y93540D01*
X323461Y93457D01*
X322923Y92918D01*
X322840Y92994D01*
X322752Y93061D01*
X322657Y93121D01*
X322557Y93172D01*
X322451Y93215D01*
X322339Y93250D01*
X322221Y93277D01*
X322097Y93296D01*
X321968Y93307D01*
X321833Y93310D01*
X323070Y94547D01*
X323073Y94412D01*
D02*
G37*
G36*
X316807Y93310D02*
X316672Y93307D01*
X316542Y93296D01*
X316419Y93277D01*
X316301Y93250D01*
X316189Y93215D01*
X316083Y93172D01*
X315983Y93121D01*
X315888Y93061D01*
X315800Y92994D01*
X315717Y92918D01*
X315178Y93457D01*
X315254Y93540D01*
X315322Y93628D01*
X315381Y93722D01*
X315432Y93823D01*
X315476Y93929D01*
X315511Y94041D01*
X315538Y94158D01*
X315557Y94282D01*
X315567Y94412D01*
X315570Y94547D01*
X316807Y93310D01*
D02*
G37*
G36*
X306807D02*
X306671Y93307D01*
X306542Y93296D01*
X306418Y93277D01*
X306300Y93250D01*
X306188Y93215D01*
X306082Y93172D01*
X305982Y93121D01*
X305888Y93061D01*
X305799Y92994D01*
X305716Y92918D01*
X305178Y93457D01*
X305253Y93540D01*
X305321Y93628D01*
X305380Y93722D01*
X305432Y93823D01*
X305475Y93929D01*
X305510Y94041D01*
X305537Y94158D01*
X305556Y94282D01*
X305567Y94412D01*
X305569Y94547D01*
X306807Y93310D01*
D02*
G37*
G36*
X301807D02*
X301671Y93307D01*
X301542Y93296D01*
X301418Y93277D01*
X301300Y93250D01*
X301188Y93215D01*
X301082Y93172D01*
X300982Y93121D01*
X300888Y93061D01*
X300799Y92994D01*
X300716Y92918D01*
X300178Y93457D01*
X300253Y93540D01*
X300321Y93628D01*
X300380Y93722D01*
X300432Y93823D01*
X300475Y93929D01*
X300510Y94041D01*
X300537Y94158D01*
X300556Y94282D01*
X300567Y94412D01*
X300569Y94547D01*
X301807Y93310D01*
D02*
G37*
G36*
X279843Y91949D02*
X279915Y91922D01*
X280013Y91898D01*
X280137Y91878D01*
X280466Y91846D01*
X281159Y91823D01*
X281444Y91821D01*
Y91059D01*
X281159Y91057D01*
X280013Y90982D01*
X279915Y90958D01*
X279843Y90931D01*
X279798Y90901D01*
Y91979D01*
X279843Y91949D01*
D02*
G37*
G36*
Y89409D02*
X279915Y89382D01*
X280013Y89359D01*
X280137Y89338D01*
X280466Y89306D01*
X281159Y89283D01*
X281444Y89281D01*
Y88519D01*
X281159Y88517D01*
X280013Y88441D01*
X279915Y88418D01*
X279843Y88391D01*
X279798Y88361D01*
Y89439D01*
X279843Y89409D01*
D02*
G37*
G36*
Y86107D02*
X279915Y86080D01*
X280013Y86056D01*
X280137Y86036D01*
X280466Y86004D01*
X281159Y85981D01*
X281444Y85979D01*
Y85217D01*
X281159Y85215D01*
X280013Y85140D01*
X279915Y85116D01*
X279843Y85089D01*
X279798Y85059D01*
Y86137D01*
X279843Y86107D01*
D02*
G37*
G36*
X323073Y84411D02*
X323083Y84282D01*
X323102Y84158D01*
X323129Y84040D01*
X323164Y83928D01*
X323208Y83822D01*
X323259Y83722D01*
X323318Y83627D01*
X323386Y83539D01*
X323461Y83456D01*
X322923Y82917D01*
X322840Y82993D01*
X322752Y83061D01*
X322657Y83120D01*
X322557Y83171D01*
X322451Y83215D01*
X322339Y83250D01*
X322221Y83277D01*
X322097Y83295D01*
X321968Y83306D01*
X321833Y83309D01*
X323070Y84546D01*
X323073Y84411D01*
D02*
G37*
G36*
X303072D02*
X303083Y84282D01*
X303102Y84158D01*
X303129Y84040D01*
X303164Y83928D01*
X303207Y83822D01*
X303258Y83722D01*
X303318Y83627D01*
X303385Y83539D01*
X303461Y83456D01*
X302922Y82917D01*
X302839Y82993D01*
X302751Y83061D01*
X302656Y83120D01*
X302556Y83171D01*
X302450Y83215D01*
X302338Y83250D01*
X302220Y83277D01*
X302097Y83295D01*
X301967Y83306D01*
X301832Y83309D01*
X303069Y84546D01*
X303072Y84411D01*
D02*
G37*
G36*
X318047Y84265D02*
X318044Y84140D01*
X318051Y84020D01*
X318069Y83905D01*
X318096Y83795D01*
X318133Y83690D01*
X318180Y83590D01*
X318237Y83496D01*
X318304Y83406D01*
X318381Y83322D01*
X317773Y82852D01*
X317693Y82926D01*
X317606Y82994D01*
X317513Y83056D01*
X317414Y83111D01*
X317307Y83161D01*
X317195Y83204D01*
X317076Y83242D01*
X316951Y83273D01*
X316819Y83298D01*
X316681Y83317D01*
X318059Y84395D01*
X318047Y84265D01*
D02*
G37*
G36*
X328038Y84231D02*
X328032Y84108D01*
X328037Y83989D01*
X328052Y83875D01*
X328078Y83766D01*
X328114Y83661D01*
X328160Y83562D01*
X328217Y83467D01*
X328284Y83378D01*
X328361Y83293D01*
X327736Y82840D01*
X327657Y82913D01*
X327571Y82981D01*
X327478Y83043D01*
X327379Y83100D01*
X327273Y83151D01*
X327160Y83196D01*
X327042Y83236D01*
X326916Y83270D01*
X326784Y83298D01*
X326646Y83321D01*
X328054Y84360D01*
X328038Y84231D01*
D02*
G37*
G36*
X279843Y80080D02*
X279915Y80053D01*
X280013Y80029D01*
X280137Y80009D01*
X280466Y79977D01*
X281159Y79953D01*
X281444Y79952D01*
Y79190D01*
X281159Y79188D01*
X280013Y79112D01*
X279915Y79089D01*
X279843Y79062D01*
X279798Y79032D01*
Y80110D01*
X279843Y80080D01*
D02*
G37*
G36*
X291158Y78680D02*
X291066Y78777D01*
X290972Y78863D01*
X290875Y78940D01*
X290777Y79006D01*
X290675Y79062D01*
X290572Y79108D01*
X290466Y79144D01*
X290358Y79170D01*
X290247Y79185D01*
X290134Y79190D01*
X290173Y79952D01*
X290284Y79957D01*
X290394Y79971D01*
X290503Y79995D01*
X290611Y80028D01*
X290719Y80071D01*
X290825Y80123D01*
X290931Y80185D01*
X291036Y80256D01*
X291140Y80337D01*
X291243Y80428D01*
X291158Y78680D01*
D02*
G37*
G36*
X302600Y78569D02*
X302516Y78469D01*
X302442Y78369D01*
X302378Y78266D01*
X302324Y78162D01*
X302279Y78057D01*
X302245Y77949D01*
X302220Y77841D01*
X302205Y77730D01*
X302200Y77618D01*
X301438D01*
X301433Y77730D01*
X301418Y77841D01*
X301394Y77949D01*
X301359Y78057D01*
X301315Y78162D01*
X301260Y78266D01*
X301196Y78369D01*
X301122Y78469D01*
X301038Y78569D01*
X300944Y78666D01*
X302694D01*
X302600Y78569D01*
D02*
G37*
G36*
X279843Y68693D02*
X279915Y68666D01*
X280013Y68642D01*
X280137Y68622D01*
X280466Y68590D01*
X281159Y68566D01*
X281444Y68565D01*
Y67803D01*
X281159Y67801D01*
X280013Y67725D01*
X279915Y67701D01*
X279843Y67674D01*
X279798Y67645D01*
Y68723D01*
X279843Y68693D01*
D02*
G37*
G36*
Y65533D02*
X279915Y65506D01*
X280013Y65483D01*
X280137Y65462D01*
X280466Y65430D01*
X281159Y65407D01*
X281444Y65405D01*
Y64643D01*
X281159Y64641D01*
X280013Y64566D01*
X279915Y64542D01*
X279843Y64515D01*
X279798Y64485D01*
Y65563D01*
X279843Y65533D01*
D02*
G37*
G36*
X338457Y64149D02*
X338532Y63002D01*
X338556Y62904D01*
X338583Y62833D01*
X338613Y62788D01*
X337535D01*
X337565Y62833D01*
X337592Y62904D01*
X337616Y63002D01*
X337636Y63127D01*
X337668Y63456D01*
X337691Y64149D01*
X337693Y64433D01*
X338455D01*
X338457Y64149D01*
D02*
G37*
G36*
X335770D02*
X335845Y63002D01*
X335869Y62904D01*
X335896Y62833D01*
X335926Y62788D01*
X334848D01*
X334878Y62833D01*
X334905Y62904D01*
X334929Y63002D01*
X334949Y63127D01*
X334981Y63456D01*
X335004Y64149D01*
X335006Y64433D01*
X335768D01*
X335770Y64149D01*
D02*
G37*
G36*
X329821D02*
X329897Y63002D01*
X329920Y62904D01*
X329947Y62833D01*
X329977Y62788D01*
X328899D01*
X328929Y62833D01*
X328956Y62904D01*
X328979Y63002D01*
X329000Y63127D01*
X329032Y63456D01*
X329055Y64149D01*
X329057Y64433D01*
X329819D01*
X329821Y64149D01*
D02*
G37*
G36*
X324995D02*
X325070Y63002D01*
X325094Y62904D01*
X325121Y62833D01*
X325151Y62788D01*
X324073D01*
X324103Y62833D01*
X324130Y62904D01*
X324154Y63002D01*
X324174Y63127D01*
X324206Y63456D01*
X324229Y64149D01*
X324231Y64433D01*
X324993D01*
X324995Y64149D01*
D02*
G37*
G36*
X319596D02*
X319671Y63002D01*
X319695Y62904D01*
X319722Y62833D01*
X319752Y62788D01*
X318674D01*
X318704Y62833D01*
X318731Y62904D01*
X318755Y63002D01*
X318775Y63127D01*
X318807Y63456D01*
X318830Y64149D01*
X318832Y64433D01*
X319594D01*
X319596Y64149D01*
D02*
G37*
G36*
X314073D02*
X314149Y63002D01*
X314172Y62904D01*
X314199Y62833D01*
X314229Y62788D01*
X313151D01*
X313181Y62833D01*
X313208Y62904D01*
X313232Y63002D01*
X313252Y63127D01*
X313284Y63456D01*
X313307Y64149D01*
X313309Y64433D01*
X314071D01*
X314073Y64149D01*
D02*
G37*
G36*
X310009D02*
X310084Y63002D01*
X310108Y62904D01*
X310135Y62833D01*
X310165Y62788D01*
X309087D01*
X309117Y62833D01*
X309144Y62904D01*
X309167Y63002D01*
X309188Y63127D01*
X309220Y63456D01*
X309243Y64149D01*
X309245Y64433D01*
X310007D01*
X310009Y64149D01*
D02*
G37*
G36*
X296299Y54810D02*
X296291Y54882D01*
X296267Y54947D01*
X296228Y55004D01*
X296172Y55054D01*
X296101Y55096D01*
X296014Y55130D01*
X295911Y55157D01*
X295792Y55176D01*
X295657Y55187D01*
X295506Y55191D01*
Y55953D01*
X295657Y55957D01*
X295792Y55968D01*
X295911Y55987D01*
X296014Y56014D01*
X296101Y56048D01*
X296172Y56090D01*
X296228Y56140D01*
X296267Y56197D01*
X296291Y56262D01*
X296299Y56334D01*
Y54810D01*
D02*
G37*
G36*
X293779Y56262D02*
X293803Y56197D01*
X293842Y56140D01*
X293898Y56090D01*
X293969Y56048D01*
X294056Y56014D01*
X294159Y55987D01*
X294278Y55968D01*
X294413Y55957D01*
X294564Y55953D01*
Y55191D01*
X294413Y55187D01*
X294278Y55176D01*
X294159Y55157D01*
X294056Y55130D01*
X293969Y55096D01*
X293898Y55054D01*
X293842Y55004D01*
X293803Y54947D01*
X293779Y54882D01*
X293771Y54810D01*
Y56334D01*
X293779Y56262D01*
D02*
G37*
G36*
X291218Y43120D02*
X291238Y42994D01*
X291271Y42868D01*
X291318Y42741D01*
X291378Y42613D01*
X291384Y42603D01*
X291592D01*
X291520Y42595D01*
X291455Y42572D01*
X291416Y42546D01*
X291452Y42485D01*
X291539Y42356D01*
X291639Y42226D01*
X291753Y42096D01*
X291880Y41965D01*
X291214D01*
X291211Y41841D01*
X290449D01*
X290446Y41965D01*
X289780D01*
X289907Y42096D01*
X290021Y42226D01*
X290121Y42356D01*
X290208Y42485D01*
X290243Y42546D01*
X290205Y42572D01*
X290140Y42595D01*
X290068Y42603D01*
X290276D01*
X290282Y42613D01*
X290342Y42741D01*
X290389Y42868D01*
X290422Y42994D01*
X290442Y43120D01*
X290449Y43245D01*
X291211D01*
X291218Y43120D01*
D02*
G37*
G36*
X178607Y36898D02*
X178741Y36391D01*
X178966Y35840D01*
X179280Y35245D01*
X179684Y34607D01*
X180178Y33925D01*
X181434Y32428D01*
X182197Y31614D01*
X183050Y30756D01*
X172550D01*
X173403Y31614D01*
X175422Y33925D01*
X175916Y34607D01*
X176320Y35245D01*
X176634Y35840D01*
X176859Y36391D01*
X176993Y36898D01*
X177038Y37361D01*
X178562D01*
X178607Y36898D01*
D02*
G37*
G36*
X153207D02*
X153342Y36391D01*
X153566Y35840D01*
X153880Y35245D01*
X154284Y34607D01*
X154778Y33925D01*
X156034Y32428D01*
X156797Y31614D01*
X157650Y30756D01*
X147150D01*
X148003Y31614D01*
X150022Y33925D01*
X150516Y34607D01*
X150920Y35245D01*
X151234Y35840D01*
X151459Y36391D01*
X151593Y36898D01*
X151638Y37361D01*
X153162D01*
X153207Y36898D01*
D02*
G37*
G36*
X127807D02*
X127942Y36391D01*
X128166Y35840D01*
X128480Y35245D01*
X128884Y34607D01*
X129378Y33925D01*
X130634Y32428D01*
X131397Y31614D01*
X132250Y30756D01*
X121750D01*
X122603Y31614D01*
X124622Y33925D01*
X125116Y34607D01*
X125520Y35245D01*
X125834Y35840D01*
X126059Y36391D01*
X126193Y36898D01*
X126238Y37361D01*
X127762D01*
X127807Y36898D01*
D02*
G37*
G36*
X102407D02*
X102542Y36391D01*
X102766Y35840D01*
X103080Y35245D01*
X103484Y34607D01*
X103978Y33925D01*
X105234Y32428D01*
X105997Y31614D01*
X106850Y30756D01*
X96350D01*
X97203Y31614D01*
X99222Y33925D01*
X99716Y34607D01*
X100120Y35245D01*
X100434Y35840D01*
X100659Y36391D01*
X100793Y36898D01*
X100838Y37361D01*
X102362D01*
X102407Y36898D01*
D02*
G37*
G36*
X77007D02*
X77141Y36391D01*
X77366Y35840D01*
X77680Y35245D01*
X78084Y34607D01*
X78578Y33925D01*
X79834Y32428D01*
X80597Y31614D01*
X81450Y30756D01*
X70950D01*
X71803Y31614D01*
X73822Y33925D01*
X74316Y34607D01*
X74720Y35245D01*
X75034Y35840D01*
X75258Y36391D01*
X75393Y36898D01*
X75438Y37361D01*
X76962D01*
X77007Y36898D01*
D02*
G37*
G36*
X26207D02*
X26342Y36391D01*
X26566Y35840D01*
X26880Y35245D01*
X27284Y34607D01*
X27778Y33925D01*
X29034Y32428D01*
X29797Y31614D01*
X30650Y30756D01*
X20150D01*
X21003Y31614D01*
X23022Y33925D01*
X23516Y34607D01*
X23920Y35245D01*
X24234Y35840D01*
X24458Y36391D01*
X24593Y36898D01*
X24638Y37361D01*
X26162D01*
X26207Y36898D01*
D02*
G37*
G36*
X59467Y32989D02*
X59234Y32693D01*
X59026Y32295D01*
X58845Y31796D01*
X58690Y31196D01*
X58560Y30496D01*
X58456Y29694D01*
X58326Y27787D01*
X58300Y25475D01*
X50875Y32900D01*
X52081Y32900D01*
X55896Y33160D01*
X56596Y33290D01*
X57196Y33445D01*
X57695Y33626D01*
X58093Y33834D01*
X58389Y34067D01*
X59467Y32989D01*
D02*
G37*
G36*
X6182Y29797D02*
X8697Y26880D01*
X8877Y26566D01*
X8949Y26342D01*
X8913Y26207D01*
X8770Y26162D01*
Y24638D01*
X8913Y24593D01*
X8949Y24458D01*
X8877Y24234D01*
X8697Y23920D01*
X8409Y23516D01*
X8014Y23022D01*
X6182Y21003D01*
X5356Y20150D01*
Y30650D01*
X6182Y29797D01*
D02*
G37*
G36*
X136109Y7778D02*
X135819Y7425D01*
X135558Y6975D01*
X135325Y6429D01*
X135121Y5786D01*
X134946Y5046D01*
X134799Y4210D01*
X134592Y2246D01*
X134499Y-105D01*
X127255Y7496D01*
X128450Y7472D01*
X131482Y7616D01*
X132309Y7737D01*
X133043Y7893D01*
X133685Y8086D01*
X134235Y8315D01*
X134692Y8580D01*
X135057Y8881D01*
X136109Y7778D01*
D02*
G37*
G36*
X212628Y7334D02*
X212358Y7005D01*
X212106Y6571D01*
X211869Y6033D01*
X211649Y5392D01*
X211445Y4646D01*
X211087Y2842D01*
X210794Y622D01*
X210672Y-644D01*
X203993Y7458D01*
X205144Y7354D01*
X207189Y7287D01*
X208084Y7323D01*
X208893Y7405D01*
X209616Y7534D01*
X210254Y7710D01*
X210806Y7932D01*
X211273Y8201D01*
X211654Y8516D01*
X212628Y7334D01*
D02*
G37*
G36*
X381807Y11498D02*
X381941Y10991D01*
X382166Y10440D01*
X382480Y9845D01*
X382884Y9207D01*
X383378Y8525D01*
X384634Y7028D01*
X385397Y6214D01*
X386250Y5356D01*
X375750D01*
X376603Y6214D01*
X378622Y8525D01*
X379116Y9207D01*
X379520Y9845D01*
X379834Y10440D01*
X380059Y10991D01*
X380193Y11498D01*
X380238Y11961D01*
X381762D01*
X381807Y11498D01*
D02*
G37*
G36*
X356407D02*
X356541Y10991D01*
X356766Y10440D01*
X357080Y9845D01*
X357484Y9207D01*
X357978Y8525D01*
X359234Y7028D01*
X359997Y6214D01*
X360850Y5356D01*
X350350D01*
X351203Y6214D01*
X353222Y8525D01*
X353716Y9207D01*
X354120Y9845D01*
X354434Y10440D01*
X354659Y10991D01*
X354793Y11498D01*
X354838Y11961D01*
X356362D01*
X356407Y11498D01*
D02*
G37*
G36*
X331007D02*
X331142Y10991D01*
X331366Y10440D01*
X331680Y9845D01*
X332084Y9207D01*
X332578Y8525D01*
X333834Y7028D01*
X334597Y6214D01*
X335450Y5356D01*
X324950D01*
X325803Y6214D01*
X327822Y8525D01*
X328316Y9207D01*
X328720Y9845D01*
X329034Y10440D01*
X329258Y10991D01*
X329393Y11498D01*
X329438Y11961D01*
X330962D01*
X331007Y11498D01*
D02*
G37*
G36*
X19303Y9768D02*
X19687Y9547D01*
X20192Y9312D01*
X20818Y9065D01*
X22434Y8529D01*
X25769Y7627D01*
X27123Y7299D01*
X18137Y1869D01*
X18385Y2923D01*
X18686Y4816D01*
X18740Y5654D01*
X18728Y6420D01*
X18652Y7114D01*
X18510Y7735D01*
X18304Y8284D01*
X18033Y8761D01*
X17697Y9166D01*
X19042Y9976D01*
X19303Y9768D01*
D02*
G37*
G36*
X475040Y8701D02*
X475494Y8438D01*
X476042Y8207D01*
X476685Y8008D01*
X477422Y7843D01*
X478254Y7709D01*
X480200Y7539D01*
X481315Y7503D01*
X482525Y7500D01*
X475100Y75D01*
X475097Y1285D01*
X474891Y4346D01*
X474757Y5178D01*
X474592Y5915D01*
X474393Y6558D01*
X474162Y7106D01*
X473899Y7560D01*
X473603Y7919D01*
X474681Y8997D01*
X475040Y8701D01*
D02*
G37*
G36*
X449640D02*
X450094Y8438D01*
X450642Y8207D01*
X451285Y8008D01*
X452022Y7843D01*
X452854Y7709D01*
X454800Y7539D01*
X455915Y7503D01*
X457125Y7500D01*
X449700Y75D01*
X449697Y1285D01*
X449491Y4346D01*
X449357Y5178D01*
X449192Y5915D01*
X448993Y6558D01*
X448762Y7106D01*
X448499Y7560D01*
X448203Y7919D01*
X449281Y8997D01*
X449640Y8701D01*
D02*
G37*
G36*
X424240D02*
X424694Y8438D01*
X425242Y8207D01*
X425885Y8008D01*
X426622Y7843D01*
X427454Y7709D01*
X429400Y7539D01*
X430515Y7503D01*
X431725Y7500D01*
X424300Y75D01*
X424297Y1285D01*
X424091Y4346D01*
X423957Y5178D01*
X423792Y5915D01*
X423593Y6558D01*
X423362Y7106D01*
X423099Y7560D01*
X422803Y7919D01*
X423881Y8997D01*
X424240Y8701D01*
D02*
G37*
G36*
X398840D02*
X399294Y8438D01*
X399842Y8207D01*
X400485Y8008D01*
X401222Y7843D01*
X402054Y7709D01*
X404000Y7539D01*
X405115Y7503D01*
X406325Y7500D01*
X398900Y75D01*
X398897Y1285D01*
X398691Y4346D01*
X398558Y5178D01*
X398392Y5915D01*
X398193Y6558D01*
X397962Y7106D01*
X397699Y7560D01*
X397403Y7919D01*
X398481Y8997D01*
X398840Y8701D01*
D02*
G37*
G36*
X313797Y7919D02*
X313501Y7560D01*
X313238Y7106D01*
X313007Y6558D01*
X312808Y5915D01*
X312642Y5178D01*
X312509Y4346D01*
X312339Y2400D01*
X312303Y1285D01*
X312300Y75D01*
X304875Y7500D01*
X306085Y7503D01*
X309146Y7709D01*
X309978Y7843D01*
X310715Y8008D01*
X311358Y8207D01*
X311906Y8438D01*
X312360Y8701D01*
X312719Y8997D01*
X313797Y7919D01*
D02*
G37*
G36*
X288397D02*
X288101Y7560D01*
X287838Y7106D01*
X287607Y6558D01*
X287408Y5915D01*
X287243Y5178D01*
X287109Y4346D01*
X286939Y2400D01*
X286903Y1285D01*
X286900Y75D01*
X279475Y7500D01*
X280685Y7503D01*
X283746Y7709D01*
X284578Y7843D01*
X285315Y8008D01*
X285958Y8207D01*
X286506Y8438D01*
X286960Y8701D01*
X287319Y8997D01*
X288397Y7919D01*
D02*
G37*
G36*
X262997D02*
X262701Y7560D01*
X262438Y7106D01*
X262207Y6558D01*
X262008Y5915D01*
X261842Y5178D01*
X261709Y4346D01*
X261539Y2400D01*
X261503Y1285D01*
X261500Y75D01*
X254075Y7500D01*
X255285Y7503D01*
X258346Y7709D01*
X259178Y7843D01*
X259915Y8008D01*
X260558Y8207D01*
X261106Y8438D01*
X261560Y8701D01*
X261919Y8997D01*
X262997Y7919D01*
D02*
G37*
G36*
X237597D02*
X237301Y7560D01*
X237038Y7106D01*
X236807Y6558D01*
X236608Y5915D01*
X236443Y5178D01*
X236309Y4346D01*
X236139Y2400D01*
X236103Y1285D01*
X236100Y75D01*
X228675Y7500D01*
X229885Y7503D01*
X232946Y7709D01*
X233778Y7843D01*
X234515Y8008D01*
X235158Y8207D01*
X235706Y8438D01*
X236160Y8701D01*
X236519Y8997D01*
X237597Y7919D01*
D02*
G37*
G36*
X186797D02*
X186501Y7560D01*
X186238Y7106D01*
X186007Y6558D01*
X185808Y5915D01*
X185643Y5178D01*
X185509Y4346D01*
X185339Y2400D01*
X185303Y1285D01*
X185300Y75D01*
X177875Y7500D01*
X179085Y7503D01*
X182146Y7709D01*
X182978Y7843D01*
X183715Y8008D01*
X184358Y8207D01*
X184906Y8438D01*
X185360Y8701D01*
X185719Y8997D01*
X186797Y7919D01*
D02*
G37*
G36*
X161397D02*
X161101Y7560D01*
X160838Y7106D01*
X160607Y6558D01*
X160408Y5915D01*
X160243Y5178D01*
X160109Y4346D01*
X159939Y2400D01*
X159903Y1285D01*
X159900Y75D01*
X152475Y7500D01*
X153685Y7503D01*
X156746Y7709D01*
X157578Y7843D01*
X158315Y8008D01*
X158958Y8207D01*
X159506Y8438D01*
X159960Y8701D01*
X160319Y8997D01*
X161397Y7919D01*
D02*
G37*
G36*
X110597D02*
X110301Y7560D01*
X110038Y7106D01*
X109807Y6558D01*
X109608Y5915D01*
X109443Y5178D01*
X109309Y4346D01*
X109139Y2400D01*
X109103Y1285D01*
X109100Y75D01*
X101675Y7500D01*
X102885Y7503D01*
X105946Y7709D01*
X106778Y7843D01*
X107515Y8008D01*
X108158Y8207D01*
X108706Y8438D01*
X109160Y8701D01*
X109519Y8997D01*
X110597Y7919D01*
D02*
G37*
G36*
X85197D02*
X84901Y7560D01*
X84638Y7106D01*
X84407Y6558D01*
X84208Y5915D01*
X84043Y5178D01*
X83909Y4346D01*
X83739Y2400D01*
X83703Y1285D01*
X83700Y75D01*
X76275Y7500D01*
X77485Y7503D01*
X80546Y7709D01*
X81378Y7843D01*
X82115Y8008D01*
X82758Y8207D01*
X83306Y8438D01*
X83760Y8701D01*
X84119Y8997D01*
X85197Y7919D01*
D02*
G37*
G36*
X59797D02*
X59501Y7560D01*
X59238Y7106D01*
X59007Y6558D01*
X58808Y5915D01*
X58643Y5178D01*
X58509Y4346D01*
X58339Y2400D01*
X58303Y1285D01*
X58300Y75D01*
X50875Y7500D01*
X52085Y7503D01*
X55146Y7709D01*
X55978Y7843D01*
X56715Y8008D01*
X57358Y8207D01*
X57906Y8438D01*
X58360Y8701D01*
X58719Y8997D01*
X59797Y7919D01*
D02*
G37*
G36*
X8997D02*
X8701Y7560D01*
X8438Y7106D01*
X8207Y6558D01*
X8008Y5915D01*
X7843Y5178D01*
X7709Y4346D01*
X7539Y2400D01*
X7503Y1285D01*
X7500Y75D01*
X75Y7500D01*
X1285Y7503D01*
X4346Y7709D01*
X5178Y7843D01*
X5915Y8008D01*
X6558Y8207D01*
X7106Y8438D01*
X7560Y8701D01*
X7919Y8997D01*
X8997Y7919D01*
D02*
G37*
%LPC*%
G36*
X407588Y186824D02*
X405212D01*
X402917Y186209D01*
X400859Y185021D01*
X399179Y183341D01*
X397991Y181283D01*
X397376Y178988D01*
Y176612D01*
X397991Y174317D01*
X399179Y172259D01*
X400859Y170579D01*
X402917Y169391D01*
X405212Y168776D01*
X407588D01*
X409883Y169391D01*
X411941Y170579D01*
X413621Y172259D01*
X414809Y174317D01*
X415424Y176612D01*
Y178988D01*
X414809Y181283D01*
X413621Y183341D01*
X411941Y185021D01*
X409883Y186209D01*
X407588Y186824D01*
D02*
G37*
G36*
X382188D02*
X379812D01*
X377517Y186209D01*
X375459Y185021D01*
X373779Y183341D01*
X372591Y181283D01*
X371976Y178988D01*
Y176612D01*
X372591Y174317D01*
X373779Y172259D01*
X375459Y170579D01*
X377517Y169391D01*
X379812Y168776D01*
X382188D01*
X384483Y169391D01*
X386541Y170579D01*
X388221Y172259D01*
X389409Y174317D01*
X390024Y176612D01*
Y178988D01*
X389409Y181283D01*
X388221Y183341D01*
X386541Y185021D01*
X384483Y186209D01*
X382188Y186824D01*
D02*
G37*
G36*
X356788D02*
X354412D01*
X352117Y186209D01*
X350059Y185021D01*
X348379Y183341D01*
X347191Y181283D01*
X346576Y178988D01*
Y176612D01*
X347191Y174317D01*
X348379Y172259D01*
X350059Y170579D01*
X352117Y169391D01*
X354412Y168776D01*
X356788D01*
X359083Y169391D01*
X361141Y170579D01*
X362821Y172259D01*
X364009Y174317D01*
X364624Y176612D01*
Y178988D01*
X364009Y181283D01*
X362821Y183341D01*
X361141Y185021D01*
X359083Y186209D01*
X356788Y186824D01*
D02*
G37*
G36*
X331388D02*
X329012D01*
X326717Y186209D01*
X324659Y185021D01*
X322979Y183341D01*
X321791Y181283D01*
X321176Y178988D01*
Y176612D01*
X321791Y174317D01*
X322979Y172259D01*
X324659Y170579D01*
X326717Y169391D01*
X329012Y168776D01*
X331388D01*
X333683Y169391D01*
X335741Y170579D01*
X337421Y172259D01*
X338609Y174317D01*
X339224Y176612D01*
Y178988D01*
X338609Y181283D01*
X337421Y183341D01*
X335741Y185021D01*
X333683Y186209D01*
X331388Y186824D01*
D02*
G37*
G36*
X305988D02*
X303612D01*
X301317Y186209D01*
X299259Y185021D01*
X297579Y183341D01*
X296391Y181283D01*
X295776Y178988D01*
Y176612D01*
X296391Y174317D01*
X297579Y172259D01*
X299259Y170579D01*
X301317Y169391D01*
X303612Y168776D01*
X305988D01*
X308283Y169391D01*
X310341Y170579D01*
X312021Y172259D01*
X313209Y174317D01*
X313824Y176612D01*
Y178988D01*
X313209Y181283D01*
X312021Y183341D01*
X310341Y185021D01*
X308283Y186209D01*
X305988Y186824D01*
D02*
G37*
G36*
X280588D02*
X278212D01*
X275917Y186209D01*
X273859Y185021D01*
X272179Y183341D01*
X270991Y181283D01*
X270376Y178988D01*
Y176612D01*
X270991Y174317D01*
X272179Y172259D01*
X273859Y170579D01*
X275917Y169391D01*
X278212Y168776D01*
X280588D01*
X282883Y169391D01*
X284941Y170579D01*
X286621Y172259D01*
X287809Y174317D01*
X288424Y176612D01*
Y178988D01*
X287809Y181283D01*
X286621Y183341D01*
X284941Y185021D01*
X282883Y186209D01*
X280588Y186824D01*
D02*
G37*
G36*
X255188D02*
X252812D01*
X250517Y186209D01*
X248459Y185021D01*
X246779Y183341D01*
X245591Y181283D01*
X244976Y178988D01*
Y176612D01*
X245591Y174317D01*
X246779Y172259D01*
X248459Y170579D01*
X250517Y169391D01*
X252812Y168776D01*
X255188D01*
X257483Y169391D01*
X259541Y170579D01*
X261221Y172259D01*
X262409Y174317D01*
X263024Y176612D01*
Y178988D01*
X262409Y181283D01*
X261221Y183341D01*
X259541Y185021D01*
X257483Y186209D01*
X255188Y186824D01*
D02*
G37*
G36*
X229788D02*
X227412D01*
X225117Y186209D01*
X223059Y185021D01*
X221379Y183341D01*
X220191Y181283D01*
X219576Y178988D01*
Y176612D01*
X220191Y174317D01*
X221379Y172259D01*
X223059Y170579D01*
X225117Y169391D01*
X227412Y168776D01*
X229788D01*
X232083Y169391D01*
X234141Y170579D01*
X235821Y172259D01*
X237009Y174317D01*
X237624Y176612D01*
Y178988D01*
X237009Y181283D01*
X235821Y183341D01*
X234141Y185021D01*
X232083Y186209D01*
X229788Y186824D01*
D02*
G37*
G36*
X204388D02*
X202012D01*
X199717Y186209D01*
X197659Y185021D01*
X195979Y183341D01*
X194791Y181283D01*
X194176Y178988D01*
Y176612D01*
X194791Y174317D01*
X195979Y172259D01*
X197659Y170579D01*
X199717Y169391D01*
X202012Y168776D01*
X204388D01*
X206683Y169391D01*
X208741Y170579D01*
X210421Y172259D01*
X211609Y174317D01*
X212224Y176612D01*
Y178988D01*
X211609Y181283D01*
X210421Y183341D01*
X208741Y185021D01*
X206683Y186209D01*
X204388Y186824D01*
D02*
G37*
G36*
X178988D02*
X176612D01*
X174317Y186209D01*
X172259Y185021D01*
X170579Y183341D01*
X169391Y181283D01*
X168776Y178988D01*
Y176612D01*
X169391Y174317D01*
X170579Y172259D01*
X172259Y170579D01*
X174317Y169391D01*
X176612Y168776D01*
X178988D01*
X181283Y169391D01*
X183341Y170579D01*
X185021Y172259D01*
X186209Y174317D01*
X186824Y176612D01*
Y178988D01*
X186209Y181283D01*
X185021Y183341D01*
X183341Y185021D01*
X181283Y186209D01*
X178988Y186824D01*
D02*
G37*
G36*
X153588D02*
X151212D01*
X148917Y186209D01*
X146859Y185021D01*
X145179Y183341D01*
X143991Y181283D01*
X143376Y178988D01*
Y176612D01*
X143991Y174317D01*
X145179Y172259D01*
X146859Y170579D01*
X148917Y169391D01*
X151212Y168776D01*
X153588D01*
X155883Y169391D01*
X157941Y170579D01*
X159621Y172259D01*
X160809Y174317D01*
X161424Y176612D01*
Y178988D01*
X160809Y181283D01*
X159621Y183341D01*
X157941Y185021D01*
X155883Y186209D01*
X153588Y186824D01*
D02*
G37*
G36*
X1188Y161424D02*
X-1188D01*
X-3483Y160809D01*
X-5541Y159621D01*
X-7221Y157941D01*
X-8409Y155883D01*
X-9024Y153588D01*
Y151212D01*
X-8409Y148917D01*
X-7221Y146859D01*
X-5541Y145179D01*
X-3483Y143991D01*
X-1188Y143376D01*
X1188D01*
X3483Y143991D01*
X5541Y145179D01*
X7221Y146859D01*
X8409Y148917D01*
X9024Y151212D01*
Y153588D01*
X8409Y155883D01*
X7221Y157941D01*
X5541Y159621D01*
X3483Y160809D01*
X1188Y161424D01*
D02*
G37*
G36*
X36911Y123078D02*
X34913D01*
X33066Y122313D01*
X31653Y120900D01*
X30888Y119053D01*
Y117055D01*
X31653Y115208D01*
X33066Y113795D01*
X34913Y113030D01*
X36911D01*
X38758Y113795D01*
X40171Y115208D01*
X40936Y117055D01*
Y119053D01*
X40171Y120900D01*
X38758Y122313D01*
X36911Y123078D01*
D02*
G37*
G36*
X348327Y83034D02*
X347124D01*
X346013Y82574D01*
X345162Y81723D01*
X344702Y80611D01*
Y79408D01*
X345162Y78297D01*
X346013Y77446D01*
X347124Y76986D01*
X348327D01*
X349439Y77446D01*
X350290Y78297D01*
X350750Y79408D01*
Y80611D01*
X350290Y81723D01*
X349439Y82574D01*
X348327Y83034D01*
D02*
G37*
G36*
X36911Y65278D02*
X34913D01*
X33066Y64513D01*
X31653Y63100D01*
X30888Y61253D01*
Y59254D01*
X31653Y57408D01*
X33066Y55995D01*
X34913Y55230D01*
X36911D01*
X38758Y55995D01*
X40171Y57408D01*
X40936Y59254D01*
Y61253D01*
X40171Y63100D01*
X38758Y64513D01*
X36911Y65278D01*
D02*
G37*
%LPD*%
G54D13*
X338630Y104648D02*
X389636D01*
X404876Y34798D02*
Y89408D01*
X389636Y104648D02*
X404876Y89408D01*
X338630Y107696D02*
X397764D01*
X410972Y38862D02*
Y94488D01*
X397764Y107696D02*
X410972Y94488D01*
X449072Y18288D02*
X454406Y12954D01*
X431546Y18288D02*
X449072D01*
X410972Y38862D02*
X431546Y18288D01*
X444246Y12954D02*
X457200Y0D01*
X426720Y12954D02*
X444246D01*
X404876Y34798D02*
X426720Y12954D01*
X383286Y102108D02*
X397510Y87884D01*
Y34290D02*
X431800Y0D01*
X397510Y34290D02*
Y87884D01*
X338630Y102108D02*
X383286D01*
X390144Y16256D02*
Y86106D01*
Y16256D02*
X406400Y0D01*
X376682Y99568D02*
X390144Y86106D01*
X338630Y99568D02*
X376682D01*
X368407Y97175D02*
X381000Y84582D01*
X338630Y97175D02*
X368407D01*
X381000Y0D02*
Y84582D01*
X482600Y-1525D02*
Y0D01*
X469646Y12954D02*
X482600Y0D01*
X454406Y12954D02*
X469646D01*
X319213Y37019D02*
Y62249D01*
X250952Y22352D02*
X304546D01*
X319213Y37019D01*
X228600Y0D02*
X250952Y22352D01*
X329438Y33782D02*
Y62249D01*
X309118Y13462D02*
X329438Y33782D01*
X346202Y94488D02*
X355600Y85090D01*
Y0D02*
Y85090D01*
X146431Y150114D02*
X290576D01*
X129159Y167386D02*
X146431Y150114D01*
X290576D02*
X306819Y133871D01*
X141732Y145796D02*
X290322D01*
X124206Y163322D02*
X141732Y145796D01*
X290322D02*
X304426Y131692D01*
X15614Y63874D02*
X87376Y135636D01*
X15614Y12326D02*
X25400Y2540D01*
X15614Y12326D02*
Y63874D01*
X8770Y25400D02*
X10698Y27328D01*
Y73436D02*
X79248Y141986D01*
X10698Y27328D02*
Y73436D01*
X83312Y138684D02*
X287274D01*
X299212Y126746D01*
X12984Y68356D02*
X83312Y138684D01*
X89524Y132080D02*
X287412D01*
X25400Y67956D02*
X89524Y132080D01*
X287412D02*
X294212Y125280D01*
X95504Y128778D02*
X287481D01*
X58928Y92202D02*
X95504Y128778D01*
X287481D02*
X291819Y124440D01*
X103124Y124968D02*
X288058D01*
X64262Y86106D02*
X103124Y124968D01*
X288058D02*
X289413Y123613D01*
X79248Y141986D02*
X289052D01*
X301819Y129219D01*
X335387Y30587D02*
Y62249D01*
X303904Y-896D02*
X335387Y30587D01*
X338074Y20066D02*
Y62249D01*
X330200Y12192D02*
X338074Y20066D01*
X182949Y79571D02*
X279260D01*
X152400Y49022D02*
X182949Y79571D01*
X101600Y61722D02*
X134366Y94488D01*
X279260D01*
X101600Y23618D02*
Y61722D01*
X177800Y52832D02*
X189992Y65024D01*
X177800Y25400D02*
Y52832D01*
X189992Y65024D02*
X279260D01*
X177546Y85598D02*
X279260D01*
X139737Y47789D02*
X177546Y85598D01*
X139737Y12483D02*
Y47789D01*
X152400Y25400D02*
Y49022D01*
X292862Y13462D02*
X309118D01*
X279400Y0D02*
X292862Y13462D01*
X254000Y0D02*
X271780Y17780D01*
X306324D01*
X203200Y0D02*
X204216D01*
X231394Y27178D02*
X303276D01*
X204216Y0D02*
X231394Y27178D01*
X209804Y32004D02*
X303022D01*
X177800Y0D02*
X209804Y32004D01*
X289413Y120619D02*
Y123613D01*
X291819Y120619D02*
Y124440D01*
X166878Y14478D02*
Y54864D01*
X180198Y68184D02*
X279260D01*
X166878Y54864D02*
X180198Y68184D01*
X301819Y120619D02*
Y129219D01*
X306819Y120619D02*
Y133871D01*
X304426Y120619D02*
Y131692D01*
X294212Y120619D02*
Y125280D01*
X87376Y135636D02*
X287089D01*
X296619Y120619D02*
Y126107D01*
X299212Y120619D02*
Y126746D01*
X287089Y135636D02*
X296619Y126107D01*
X338630Y94488D02*
X346202D01*
X303276Y27178D02*
X313690Y37592D01*
Y62249D01*
X324612Y36068D02*
Y62249D01*
X306324Y17780D02*
X324612Y36068D01*
X303022Y32004D02*
X309626Y38608D01*
X151892Y88900D02*
X279260D01*
X127000Y23249D02*
Y64008D01*
X151892Y88900D01*
X111506Y9906D02*
Y62738D01*
X140208Y91440D01*
X279260D01*
X116586Y97028D02*
X279260D01*
X88138Y11938D02*
Y68580D01*
X116586Y97028D01*
X108966Y104648D02*
X279260D01*
X76200Y24013D02*
Y71882D01*
X108966Y104648D01*
X58928Y33528D02*
Y92202D01*
X64262Y13462D02*
Y86106D01*
X12984Y12984D02*
Y68356D01*
X49958Y24558D02*
X58928Y33528D01*
X50800Y0D02*
X64262Y13462D01*
X0Y25400D02*
X8770D01*
X0Y0D02*
X12984Y12984D01*
X25400Y0D02*
Y2540D01*
Y24088D02*
Y67956D01*
X76200Y0D02*
X88138Y11938D01*
X127127Y-127D02*
X139737Y12483D01*
X151976Y-424D02*
X166878Y14478D01*
X330200Y0D02*
Y12192D01*
X35814Y167386D02*
X129159D01*
X25400Y177800D02*
X35814Y167386D01*
X14478Y163322D02*
X124206D01*
X0Y177800D02*
X14478Y163322D01*
X309626Y38608D02*
Y62249D01*
X101600Y0D02*
X111506Y9906D01*
G54D22*
X296819Y74559D02*
D03*
Y84559D02*
D03*
G54D26*
X290832Y55572D02*
D03*
Y45572D02*
D03*
G54D53*
X329438Y62249D02*
Y81677D01*
X326820Y84295D02*
X329438Y81677D01*
X338074Y62249D02*
Y84582D01*
X328309Y93071D02*
X329585D01*
X338074Y84582D01*
X328143Y91547D02*
X335387Y84303D01*
Y62249D02*
Y84303D01*
X326864Y94515D02*
X328309Y93071D01*
X326864Y94515D02*
Y94604D01*
X321820Y94560D02*
X324833Y91547D01*
X328143D01*
X279260Y79571D02*
X292032D01*
X292092Y79510D01*
X279260Y85598D02*
X289732D01*
X293542Y89408D01*
X301667D01*
X301819Y84559D02*
X304439Y81939D01*
Y68727D02*
Y81939D01*
X290830Y40894D02*
Y45570D01*
X290832Y45572D01*
X300736Y65024D02*
X304439Y68727D01*
X301819Y70425D02*
Y79559D01*
X289413Y102269D02*
Y120619D01*
X279260Y104648D02*
X287020D01*
X289413Y102269D02*
X291819Y99863D01*
Y104560D02*
Y120619D01*
X279260Y65024D02*
X300736D01*
X299578Y68184D02*
X301819Y70425D01*
X279260Y68184D02*
X299578D01*
X309626Y62249D02*
Y92366D01*
X316820Y99560D01*
X326820Y84295D02*
Y84559D01*
X324612Y62249D02*
Y81767D01*
X321820Y84559D02*
X324612Y81767D01*
X279260Y91440D02*
X288628D01*
X291748Y94560D01*
X279260Y88900D02*
X289560D01*
X292354Y91694D01*
X298954D02*
X301819Y94560D01*
X292354Y91694D02*
X298954D01*
X301667Y89408D02*
X306819Y94560D01*
X279260Y97028D02*
X294136D01*
X296605Y94560D01*
X279260Y94488D02*
X286766D01*
X291748Y94560D02*
X291819D01*
X313690Y62249D02*
Y91430D01*
X316820Y94560D01*
X291819Y99675D02*
Y99863D01*
X294212Y102167D02*
X296819Y99560D01*
X294212Y102167D02*
Y120619D01*
X296619Y119757D02*
X296819Y119556D01*
X299212Y102167D02*
Y120619D01*
X296619Y119757D02*
Y120619D01*
X296819Y104560D02*
Y119556D01*
X299212Y102167D02*
X301819Y99560D01*
X304426Y102167D02*
Y120619D01*
Y102167D02*
X306819Y99774D01*
Y99560D02*
Y99774D01*
X296605Y94560D02*
X296819D01*
X319213Y62249D02*
Y81951D01*
X316820Y84344D02*
Y84559D01*
Y84344D02*
X319213Y81951D01*
X306819Y104560D02*
Y120619D01*
X301819Y104560D02*
Y120619D01*
X331978Y94488D02*
X338630D01*
X329436Y97175D02*
X338630D01*
X321820Y104560D02*
X324956Y107696D01*
X338630D01*
X329536Y102108D02*
X338630D01*
X327084Y104560D02*
X329536Y102108D01*
X331978Y104648D02*
X338630D01*
X327051Y99560D02*
X329436Y97175D01*
X326820Y99560D02*
X327051D01*
X331724Y99568D02*
X338630D01*
X326820Y104560D02*
X327084D01*
X290832Y55572D02*
X298452D01*
X300738Y57858D01*
G54D60*
X35912Y60254D02*
D03*
Y118054D02*
D03*
G54D61*
X-588Y132354D02*
D03*
Y45954D02*
D03*
G54D62*
X41213D02*
D03*
Y132354D02*
D03*
G54D63*
X0Y25400D02*
D03*
X25400D02*
D03*
X50800D02*
D03*
X76200D02*
D03*
X177800D02*
D03*
X152400D02*
D03*
X127000D02*
D03*
X101600D02*
D03*
X0Y0D02*
D03*
X152400D02*
D03*
X177800D02*
D03*
X203200D02*
D03*
X228600D02*
D03*
X127000D02*
D03*
X101600D02*
D03*
X76200D02*
D03*
X50800D02*
D03*
X25400D02*
D03*
X254000D02*
D03*
X406400D02*
D03*
X431800D02*
D03*
X457200D02*
D03*
X482600D02*
D03*
X381000D02*
D03*
X355600D02*
D03*
X330200D02*
D03*
X304800D02*
D03*
X279400D02*
D03*
X254000Y177800D02*
D03*
X406400D02*
D03*
X431800D02*
D03*
X457200D02*
D03*
X482600D02*
D03*
X381000D02*
D03*
X355600D02*
D03*
X330200D02*
D03*
X304800D02*
D03*
X279400D02*
D03*
X0D02*
D03*
X152400D02*
D03*
X177800D02*
D03*
X203200D02*
D03*
X228600D02*
D03*
X127000D02*
D03*
X101600D02*
D03*
X76200D02*
D03*
X50800D02*
D03*
X25400D02*
D03*
Y152400D02*
D03*
X50800D02*
D03*
X76200D02*
D03*
X101600D02*
D03*
X0D02*
D03*
G54D64*
X467293Y-7796D02*
D03*
X441893D02*
D03*
X422843Y106504D02*
D03*
X416493Y93805D02*
D03*
X422843Y81104D02*
D03*
X416493Y68404D02*
D03*
X422843Y55704D02*
D03*
X416493Y43004D02*
D03*
Y-7796D02*
D03*
X403793Y17605D02*
D03*
X391093Y170005D02*
D03*
Y119205D02*
D03*
Y-7796D02*
D03*
X384743Y131904D02*
D03*
X378393Y119205D02*
D03*
X365693Y170005D02*
D03*
X372043Y131904D02*
D03*
X365693Y119205D02*
D03*
X372043Y81104D02*
D03*
X365693Y43004D02*
D03*
X372043Y30305D02*
D03*
X365693Y17605D02*
D03*
Y-7796D02*
D03*
X359343Y131904D02*
D03*
X352993Y119205D02*
D03*
X340293Y170005D02*
D03*
X346643Y30305D02*
D03*
X340293Y-7796D02*
D03*
X321243Y157304D02*
D03*
X314893Y-7796D02*
D03*
X308543Y157304D02*
D03*
X289493Y-7796D02*
D03*
X276793Y119205D02*
D03*
X264093Y170005D02*
D03*
Y119205D02*
D03*
Y17605D02*
D03*
Y-7796D02*
D03*
X251393Y119205D02*
D03*
Y43004D02*
D03*
X238693Y119205D02*
D03*
Y43004D02*
D03*
Y17605D02*
D03*
X225993Y119205D02*
D03*
Y43004D02*
D03*
X213293Y170005D02*
D03*
Y43004D02*
D03*
Y17605D02*
D03*
Y-7796D02*
D03*
X200593Y119205D02*
D03*
Y43004D02*
D03*
X187893Y170005D02*
D03*
X194243Y157304D02*
D03*
X187893Y43004D02*
D03*
X194243Y30305D02*
D03*
X187893Y-7796D02*
D03*
X162493Y170005D02*
D03*
X168843Y157304D02*
D03*
X162493Y-7796D02*
D03*
X149793Y119205D02*
D03*
X137093Y170005D02*
D03*
Y119205D02*
D03*
Y-7796D02*
D03*
X124393Y119205D02*
D03*
X111693D02*
D03*
Y-7796D02*
D03*
X86293D02*
D03*
X60893D02*
D03*
X35493Y144605D02*
D03*
Y17605D02*
D03*
Y-7796D02*
D03*
X22793Y119205D02*
D03*
X29143Y106504D02*
D03*
X22793Y93805D02*
D03*
X10093Y144605D02*
D03*
X16443Y131904D02*
D03*
X10093Y119205D02*
D03*
X16443Y106504D02*
D03*
X10093Y93805D02*
D03*
Y-7796D02*
D03*
X-2607Y119205D02*
D03*
X3743Y106504D02*
D03*
X-2607Y93805D02*
D03*
X3743Y81104D02*
D03*
X-2607Y68404D02*
D03*
X3743Y55704D02*
D03*
G54D65*
X257556Y108966D02*
D03*
X252984Y58928D02*
D03*
X349250Y55372D02*
D03*
X375158D02*
D03*
X341376Y59436D02*
D03*
X420624Y113792D02*
D03*
X290830Y40894D02*
D03*
X347726Y80010D02*
D03*
X88257Y93095D02*
D03*
X97790Y65532D02*
D03*
X119888Y87630D02*
D03*
X192278Y58674D02*
D03*
X153924Y73914D02*
D03*
Y77470D02*
D03*
X157226Y73914D02*
D03*
Y77470D02*
D03*
X299320Y61090D02*
D03*
X301246Y42364D02*
D03*
G54D66*
X327152Y89154D02*
D03*
X292092Y79510D02*
D03*
X291846Y84328D02*
D03*
X301819Y84559D02*
D03*
X332994Y76962D02*
D03*
X306832Y79502D02*
D03*
X301819Y79559D02*
D03*
X297180Y74676D02*
D03*
X296819Y84559D02*
D03*
X291846Y74422D02*
D03*
X287020Y104648D02*
D03*
X326820Y84559D02*
D03*
X321820Y94560D02*
D03*
X326864Y94604D02*
D03*
X291819Y99675D02*
D03*
X321820Y84559D02*
D03*
X316820Y79559D02*
D03*
X321820D02*
D03*
X316820Y84559D02*
D03*
X331978Y104648D02*
D03*
Y94488D02*
D03*
X331724Y99568D02*
D03*
X286766Y94488D02*
D03*
X291819Y94560D02*
D03*
X326820Y99560D02*
D03*
X296819Y104560D02*
D03*
X291819D02*
D03*
X326820D02*
D03*
X316820Y99560D02*
D03*
Y104560D02*
D03*
X321820Y99560D02*
D03*
X316820Y94560D02*
D03*
X321820Y104560D02*
D03*
X306819D02*
D03*
Y94560D02*
D03*
Y99560D02*
D03*
X296819D02*
D03*
X301819Y104560D02*
D03*
Y99560D02*
D03*
Y94560D02*
D03*
X296819D02*
D03*
G54D68*
X300738Y43858D02*
D03*
Y57858D02*
D03*
M02*
