G04*
G04 #@! TF.GenerationSoftware,Altium Limited,Altium Designer,22.8.2 (66)*
G04*
G04 Layer_Color=2752767*
%FSLAX44Y44*%
%MOMM*%
G71*
G04*
G04 #@! TF.SameCoordinates,5B037859-B446-4BB1-8760-713DD72627CB*
G04*
G04*
G04 #@! TF.FilePolarity,Positive*
G04*
G01*
G75*
%ADD74C,0.0508*%
%ADD75C,0.0677*%
G54D74*
X33880Y58222D02*
X34896Y60254D01*
X33880Y62286D01*
X35912Y61270D01*
X37944Y62286D01*
X36928Y60254D01*
X37944Y58222D01*
X35912Y59238D01*
X33880Y58222D01*
Y116022D02*
X34896Y118054D01*
X33880Y120086D01*
X35912Y119070D01*
X37944Y120086D01*
X36928Y118054D01*
X37944Y116022D01*
X35912Y117038D01*
X33880Y116022D01*
X-1604Y131338D02*
Y130322D01*
X428D01*
Y131338D01*
X1444D01*
Y133370D01*
X428D01*
Y134386D01*
X-1604D01*
Y133370D01*
X-2620D01*
Y131338D01*
X-1604D01*
Y44938D02*
Y43922D01*
X428D01*
Y44938D01*
X1444D01*
Y46970D01*
X428D01*
Y47986D01*
X-1604D01*
Y46970D01*
X-2620D01*
Y44938D01*
X-1604D01*
X39181Y43922D02*
X40197D01*
X41213Y44938D01*
X42229Y43922D01*
X43245D01*
Y44938D01*
X42229Y45954D01*
X43245Y46970D01*
Y47986D01*
X42229D01*
X41213Y46970D01*
X40197Y47986D01*
X39181D01*
Y46970D01*
X40197Y45954D01*
X39181Y44938D01*
Y43922D01*
Y130322D02*
X40197D01*
X41213Y131338D01*
X42229Y130322D01*
X43245D01*
Y131338D01*
X42229Y132354D01*
X43245Y133370D01*
Y134386D01*
X42229D01*
X41213Y133370D01*
X40197Y134386D01*
X39181D01*
Y133370D01*
X40197Y132354D01*
X39181Y131338D01*
Y130322D01*
X465261Y-9827D02*
Y-5763D01*
X469325D01*
Y-9827D01*
X465261D01*
X439861D02*
Y-5763D01*
X443925D01*
Y-9827D01*
X439861D01*
X420811Y104473D02*
Y108537D01*
X424875D01*
Y104473D01*
X420811D01*
X414461Y91772D02*
Y95836D01*
X418525D01*
Y91772D01*
X414461D01*
X420811Y79072D02*
Y83137D01*
X424875D01*
Y79072D01*
X420811D01*
X414461Y66372D02*
Y70437D01*
X418525D01*
Y66372D01*
X414461D01*
X420811Y53672D02*
Y57737D01*
X424875D01*
Y53672D01*
X420811D01*
X414461Y40972D02*
Y45037D01*
X418525D01*
Y40972D01*
X414461D01*
Y-9827D02*
Y-5763D01*
X418525D01*
Y-9827D01*
X414461D01*
X401761Y15573D02*
Y19636D01*
X405825D01*
Y15573D01*
X401761D01*
X389061Y167973D02*
Y172036D01*
X393125D01*
Y167973D01*
X389061D01*
Y117172D02*
Y121236D01*
X393125D01*
Y117172D01*
X389061D01*
Y-9827D02*
Y-5763D01*
X393125D01*
Y-9827D01*
X389061D01*
X382711Y129873D02*
Y133937D01*
X386775D01*
Y129873D01*
X382711D01*
X376361Y117172D02*
Y121236D01*
X380425D01*
Y117172D01*
X376361D01*
X363661Y167973D02*
Y172036D01*
X367725D01*
Y167973D01*
X363661D01*
X370011Y129873D02*
Y133937D01*
X374075D01*
Y129873D01*
X370011D01*
X363661Y117172D02*
Y121236D01*
X367725D01*
Y117172D01*
X363661D01*
X370011Y79072D02*
Y83137D01*
X374075D01*
Y79072D01*
X370011D01*
X363661Y40972D02*
Y45037D01*
X367725D01*
Y40972D01*
X363661D01*
X370011Y28273D02*
Y32336D01*
X374075D01*
Y28273D01*
X370011D01*
X363661Y15573D02*
Y19636D01*
X367725D01*
Y15573D01*
X363661D01*
Y-9827D02*
Y-5763D01*
X367725D01*
Y-9827D01*
X363661D01*
X357311Y129873D02*
Y133937D01*
X361375D01*
Y129873D01*
X357311D01*
X350961Y117172D02*
Y121236D01*
X355025D01*
Y117172D01*
X350961D01*
X338261Y167973D02*
Y172036D01*
X342325D01*
Y167973D01*
X338261D01*
X344611Y28273D02*
Y32336D01*
X348675D01*
Y28273D01*
X344611D01*
X338261Y-9827D02*
Y-5763D01*
X342325D01*
Y-9827D01*
X338261D01*
X319211Y155273D02*
Y159337D01*
X323275D01*
Y155273D01*
X319211D01*
X312861Y-9827D02*
Y-5763D01*
X316925D01*
Y-9827D01*
X312861D01*
X306511Y155273D02*
Y159337D01*
X310575D01*
Y155273D01*
X306511D01*
X287461Y-9827D02*
Y-5763D01*
X291525D01*
Y-9827D01*
X287461D01*
X274761Y117172D02*
Y121236D01*
X278825D01*
Y117172D01*
X274761D01*
X262061Y167973D02*
Y172036D01*
X266125D01*
Y167973D01*
X262061D01*
Y117172D02*
Y121236D01*
X266125D01*
Y117172D01*
X262061D01*
Y15573D02*
Y19636D01*
X266125D01*
Y15573D01*
X262061D01*
Y-9827D02*
Y-5763D01*
X266125D01*
Y-9827D01*
X262061D01*
X249361Y117172D02*
Y121236D01*
X253425D01*
Y117172D01*
X249361D01*
Y40972D02*
Y45037D01*
X253425D01*
Y40972D01*
X249361D01*
X236661Y117172D02*
Y121236D01*
X240725D01*
Y117172D01*
X236661D01*
Y40972D02*
Y45037D01*
X240725D01*
Y40972D01*
X236661D01*
Y15573D02*
Y19636D01*
X240725D01*
Y15573D01*
X236661D01*
X223961Y117172D02*
Y121236D01*
X228025D01*
Y117172D01*
X223961D01*
Y40972D02*
Y45037D01*
X228025D01*
Y40972D01*
X223961D01*
X211261Y167973D02*
Y172036D01*
X215325D01*
Y167973D01*
X211261D01*
Y40972D02*
Y45037D01*
X215325D01*
Y40972D01*
X211261D01*
Y15573D02*
Y19636D01*
X215325D01*
Y15573D01*
X211261D01*
Y-9827D02*
Y-5763D01*
X215325D01*
Y-9827D01*
X211261D01*
X198561Y117172D02*
Y121236D01*
X202625D01*
Y117172D01*
X198561D01*
Y40972D02*
Y45037D01*
X202625D01*
Y40972D01*
X198561D01*
X185861Y167973D02*
Y172036D01*
X189925D01*
Y167973D01*
X185861D01*
X192211Y155273D02*
Y159337D01*
X196275D01*
Y155273D01*
X192211D01*
X185861Y40972D02*
Y45037D01*
X189925D01*
Y40972D01*
X185861D01*
X192211Y28273D02*
Y32336D01*
X196275D01*
Y28273D01*
X192211D01*
X185861Y-9827D02*
Y-5763D01*
X189925D01*
Y-9827D01*
X185861D01*
X160461Y167973D02*
Y172036D01*
X164525D01*
Y167973D01*
X160461D01*
X166811Y155273D02*
Y159337D01*
X170875D01*
Y155273D01*
X166811D01*
X160461Y-9827D02*
Y-5763D01*
X164525D01*
Y-9827D01*
X160461D01*
X147761Y117172D02*
Y121236D01*
X151825D01*
Y117172D01*
X147761D01*
X135061Y167973D02*
Y172036D01*
X139125D01*
Y167973D01*
X135061D01*
Y117172D02*
Y121236D01*
X139125D01*
Y117172D01*
X135061D01*
Y-9827D02*
Y-5763D01*
X139125D01*
Y-9827D01*
X135061D01*
X122361Y117172D02*
Y121236D01*
X126425D01*
Y117172D01*
X122361D01*
X109661D02*
Y121236D01*
X113725D01*
Y117172D01*
X109661D01*
Y-9827D02*
Y-5763D01*
X113725D01*
Y-9827D01*
X109661D01*
X84261D02*
Y-5763D01*
X88325D01*
Y-9827D01*
X84261D01*
X58861D02*
Y-5763D01*
X62925D01*
Y-9827D01*
X58861D01*
X33461Y142572D02*
Y146636D01*
X37525D01*
Y142572D01*
X33461D01*
Y15573D02*
Y19636D01*
X37525D01*
Y15573D01*
X33461D01*
Y-9827D02*
Y-5763D01*
X37525D01*
Y-9827D01*
X33461D01*
X20761Y117172D02*
Y121236D01*
X24825D01*
Y117172D01*
X20761D01*
X27111Y104473D02*
Y108537D01*
X31175D01*
Y104473D01*
X27111D01*
X20761Y91772D02*
Y95836D01*
X24825D01*
Y91772D01*
X20761D01*
X8061Y142572D02*
Y146636D01*
X12125D01*
Y142572D01*
X8061D01*
X14411Y129873D02*
Y133937D01*
X18475D01*
Y129873D01*
X14411D01*
X8061Y117172D02*
Y121236D01*
X12125D01*
Y117172D01*
X8061D01*
X14411Y104473D02*
Y108537D01*
X18475D01*
Y104473D01*
X14411D01*
X8061Y91772D02*
Y95836D01*
X12125D01*
Y91772D01*
X8061D01*
Y-9827D02*
Y-5763D01*
X12125D01*
Y-9827D01*
X8061D01*
X-4639Y117172D02*
Y121236D01*
X-575D01*
Y117172D01*
X-4639D01*
X1711Y104473D02*
Y108537D01*
X5775D01*
Y104473D01*
X1711D01*
X-4639Y91772D02*
Y95836D01*
X-575D01*
Y91772D01*
X-4639D01*
X1711Y79072D02*
Y83137D01*
X5775D01*
Y79072D01*
X1711D01*
X-4639Y66372D02*
Y70437D01*
X-575D01*
Y66372D01*
X-4639D01*
X1711Y53672D02*
Y57737D01*
X5775D01*
Y53672D01*
X1711D01*
X257556Y106934D02*
X255524Y110998D01*
X259588D01*
X257556Y106934D01*
X252984Y56896D02*
X250952Y60960D01*
X255016D01*
X252984Y56896D01*
X349250Y53340D02*
X347218Y57404D01*
X351282D01*
X349250Y53340D01*
X375158D02*
X373126Y57404D01*
X377190D01*
X375158Y53340D01*
X341376Y57404D02*
X339344Y61468D01*
X343408D01*
X341376Y57404D01*
X420624Y111760D02*
X418592Y115824D01*
X422656D01*
X420624Y111760D01*
X327152Y87122D02*
X328168Y88138D01*
X329184D01*
X328168Y89154D01*
X329184Y90170D01*
X328168D01*
X327152Y91186D01*
X326136Y90170D01*
X325120D01*
X326136Y89154D01*
X325120Y88138D01*
X326136D01*
X327152Y87122D01*
X292092Y77478D02*
X293108Y78495D01*
X294124D01*
X293108Y79510D01*
X294124Y80527D01*
X293108D01*
X292092Y81543D01*
X291076Y80527D01*
X290060D01*
X291076Y79510D01*
X290060Y78495D01*
X291076D01*
X292092Y77478D01*
X291846Y82296D02*
X292862Y83312D01*
X293878D01*
X292862Y84328D01*
X293878Y85344D01*
X292862D01*
X291846Y86360D01*
X290830Y85344D01*
X289814D01*
X290830Y84328D01*
X289814Y83312D01*
X290830D01*
X291846Y82296D01*
X301819Y82527D02*
X302835Y83543D01*
X303851D01*
X302835Y84559D01*
X303851Y85575D01*
X302835D01*
X301819Y86591D01*
X300803Y85575D01*
X299787D01*
X300803Y84559D01*
X299787Y83543D01*
X300803D01*
X301819Y82527D01*
X290830Y38862D02*
X288798Y42926D01*
X292862D01*
X290830Y38862D01*
X347726Y77978D02*
X345694Y82042D01*
X349758D01*
X347726Y77978D01*
X332994Y74930D02*
X334010Y75946D01*
X335026D01*
X334010Y76962D01*
X335026Y77978D01*
X334010D01*
X332994Y78994D01*
X331978Y77978D01*
X330962D01*
X331978Y76962D01*
X330962Y75946D01*
X331978D01*
X332994Y74930D01*
X306832Y77470D02*
X307848Y78486D01*
X308864D01*
X307848Y79502D01*
X308864Y80518D01*
X307848D01*
X306832Y81534D01*
X305816Y80518D01*
X304800D01*
X305816Y79502D01*
X304800Y78486D01*
X305816D01*
X306832Y77470D01*
X301819Y77527D02*
X302835Y78543D01*
X303851D01*
X302835Y79559D01*
X303851Y80575D01*
X302835D01*
X301819Y81591D01*
X300803Y80575D01*
X299787D01*
X300803Y79559D01*
X299787Y78543D01*
X300803D01*
X301819Y77527D01*
X297180Y72644D02*
X298196Y73660D01*
X299212D01*
X298196Y74676D01*
X299212Y75692D01*
X298196D01*
X297180Y76708D01*
X296164Y75692D01*
X295148D01*
X296164Y74676D01*
X295148Y73660D01*
X296164D01*
X297180Y72644D01*
X88257Y91063D02*
X86225Y95127D01*
X90289D01*
X88257Y91063D01*
X97790Y63500D02*
X95758Y67564D01*
X99822D01*
X97790Y63500D01*
X119888Y85598D02*
X117856Y89662D01*
X121920D01*
X119888Y85598D01*
X192278Y56642D02*
X190246Y60706D01*
X194310D01*
X192278Y56642D01*
X153924Y71882D02*
X151892Y75946D01*
X155956D01*
X153924Y71882D01*
Y75438D02*
X151892Y79502D01*
X155956D01*
X153924Y75438D01*
X157226Y71882D02*
X155194Y75946D01*
X159258D01*
X157226Y71882D01*
Y75438D02*
X155194Y79502D01*
X159258D01*
X157226Y75438D01*
X296819Y82527D02*
X297835Y83543D01*
X298851D01*
X297835Y84559D01*
X298851Y85575D01*
X297835D01*
X296819Y86591D01*
X295803Y85575D01*
X294787D01*
X295803Y84559D01*
X294787Y83543D01*
X295803D01*
X296819Y82527D01*
X291846Y72390D02*
X292862Y73406D01*
X293878D01*
X292862Y74422D01*
X293878Y75438D01*
X292862D01*
X291846Y76454D01*
X290830Y75438D01*
X289814D01*
X290830Y74422D01*
X289814Y73406D01*
X290830D01*
X291846Y72390D01*
X287020Y102616D02*
X288036Y103632D01*
X289052D01*
X288036Y104648D01*
X289052Y105664D01*
X288036D01*
X287020Y106680D01*
X286004Y105664D01*
X284988D01*
X286004Y104648D01*
X284988Y103632D01*
X286004D01*
X287020Y102616D01*
X326820Y82527D02*
X327836Y83543D01*
X328852D01*
X327836Y84559D01*
X328852Y85575D01*
X327836D01*
X326820Y86591D01*
X325804Y85575D01*
X324788D01*
X325804Y84559D01*
X324788Y83543D01*
X325804D01*
X326820Y82527D01*
X321820Y92528D02*
X322836Y93544D01*
X323852D01*
X322836Y94560D01*
X323852Y95576D01*
X322836D01*
X321820Y96592D01*
X320804Y95576D01*
X319788D01*
X320804Y94560D01*
X319788Y93544D01*
X320804D01*
X321820Y92528D01*
X326864Y92572D02*
X327880Y93588D01*
X328896D01*
X327880Y94604D01*
X328896Y95620D01*
X327880D01*
X326864Y96636D01*
X325848Y95620D01*
X324832D01*
X325848Y94604D01*
X324832Y93588D01*
X325848D01*
X326864Y92572D01*
X291819Y97643D02*
X292835Y98659D01*
X293851D01*
X292835Y99675D01*
X293851Y100691D01*
X292835D01*
X291819Y101707D01*
X290803Y100691D01*
X289787D01*
X290803Y99675D01*
X289787Y98659D01*
X290803D01*
X291819Y97643D01*
X321820Y82527D02*
X322836Y83543D01*
X323852D01*
X322836Y84559D01*
X323852Y85575D01*
X322836D01*
X321820Y86591D01*
X320804Y85575D01*
X319788D01*
X320804Y84559D01*
X319788Y83543D01*
X320804D01*
X321820Y82527D01*
X316820Y77527D02*
X317836Y78543D01*
X318852D01*
X317836Y79559D01*
X318852Y80575D01*
X317836D01*
X316820Y81591D01*
X315804Y80575D01*
X314788D01*
X315804Y79559D01*
X314788Y78543D01*
X315804D01*
X316820Y77527D01*
X321820D02*
X322836Y78543D01*
X323852D01*
X322836Y79559D01*
X323852Y80575D01*
X322836D01*
X321820Y81591D01*
X320804Y80575D01*
X319788D01*
X320804Y79559D01*
X319788Y78543D01*
X320804D01*
X321820Y77527D01*
X316820Y82527D02*
X317836Y83543D01*
X318852D01*
X317836Y84559D01*
X318852Y85575D01*
X317836D01*
X316820Y86591D01*
X315804Y85575D01*
X314788D01*
X315804Y84559D01*
X314788Y83543D01*
X315804D01*
X316820Y82527D01*
X331978Y102616D02*
X332994Y103632D01*
X334010D01*
X332994Y104648D01*
X334010Y105664D01*
X332994D01*
X331978Y106680D01*
X330962Y105664D01*
X329946D01*
X330962Y104648D01*
X329946Y103632D01*
X330962D01*
X331978Y102616D01*
Y92456D02*
X332994Y93472D01*
X334010D01*
X332994Y94488D01*
X334010Y95504D01*
X332994D01*
X331978Y96520D01*
X330962Y95504D01*
X329946D01*
X330962Y94488D01*
X329946Y93472D01*
X330962D01*
X331978Y92456D01*
X331724Y97536D02*
X332740Y98552D01*
X333756D01*
X332740Y99568D01*
X333756Y100584D01*
X332740D01*
X331724Y101600D01*
X330708Y100584D01*
X329692D01*
X330708Y99568D01*
X329692Y98552D01*
X330708D01*
X331724Y97536D01*
X286766Y92456D02*
X287782Y93472D01*
X288798D01*
X287782Y94488D01*
X288798Y95504D01*
X287782D01*
X286766Y96520D01*
X285750Y95504D01*
X284734D01*
X285750Y94488D01*
X284734Y93472D01*
X285750D01*
X286766Y92456D01*
X291819Y92528D02*
X292835Y93544D01*
X293851D01*
X292835Y94560D01*
X293851Y95576D01*
X292835D01*
X291819Y96592D01*
X290803Y95576D01*
X289787D01*
X290803Y94560D01*
X289787Y93544D01*
X290803D01*
X291819Y92528D01*
X326820Y97528D02*
X327836Y98544D01*
X328852D01*
X327836Y99560D01*
X328852Y100576D01*
X327836D01*
X326820Y101592D01*
X325804Y100576D01*
X324788D01*
X325804Y99560D01*
X324788Y98544D01*
X325804D01*
X326820Y97528D01*
X296819Y102528D02*
X297835Y103544D01*
X298851D01*
X297835Y104560D01*
X298851Y105576D01*
X297835D01*
X296819Y106592D01*
X295803Y105576D01*
X294787D01*
X295803Y104560D01*
X294787Y103544D01*
X295803D01*
X296819Y102528D01*
X291819D02*
X292835Y103544D01*
X293851D01*
X292835Y104560D01*
X293851Y105576D01*
X292835D01*
X291819Y106592D01*
X290803Y105576D01*
X289787D01*
X290803Y104560D01*
X289787Y103544D01*
X290803D01*
X291819Y102528D01*
X326820D02*
X327836Y103544D01*
X328852D01*
X327836Y104560D01*
X328852Y105576D01*
X327836D01*
X326820Y106592D01*
X325804Y105576D01*
X324788D01*
X325804Y104560D01*
X324788Y103544D01*
X325804D01*
X326820Y102528D01*
X299320Y59058D02*
X297288Y63122D01*
X301352D01*
X299320Y59058D01*
X301246Y40332D02*
X299214Y44396D01*
X303278D01*
X301246Y40332D01*
X316820Y97528D02*
X317836Y98544D01*
X318852D01*
X317836Y99560D01*
X318852Y100576D01*
X317836D01*
X316820Y101592D01*
X315804Y100576D01*
X314788D01*
X315804Y99560D01*
X314788Y98544D01*
X315804D01*
X316820Y97528D01*
Y102528D02*
X317836Y103544D01*
X318852D01*
X317836Y104560D01*
X318852Y105576D01*
X317836D01*
X316820Y106592D01*
X315804Y105576D01*
X314788D01*
X315804Y104560D01*
X314788Y103544D01*
X315804D01*
X316820Y102528D01*
X321820Y97528D02*
X322836Y98544D01*
X323852D01*
X322836Y99560D01*
X323852Y100576D01*
X322836D01*
X321820Y101592D01*
X320804Y100576D01*
X319788D01*
X320804Y99560D01*
X319788Y98544D01*
X320804D01*
X321820Y97528D01*
X316820Y92528D02*
X317836Y93544D01*
X318852D01*
X317836Y94560D01*
X318852Y95576D01*
X317836D01*
X316820Y96592D01*
X315804Y95576D01*
X314788D01*
X315804Y94560D01*
X314788Y93544D01*
X315804D01*
X316820Y92528D01*
X321820Y102528D02*
X322836Y103544D01*
X323852D01*
X322836Y104560D01*
X323852Y105576D01*
X322836D01*
X321820Y106592D01*
X320804Y105576D01*
X319788D01*
X320804Y104560D01*
X319788Y103544D01*
X320804D01*
X321820Y102528D01*
X306819D02*
X307835Y103544D01*
X308851D01*
X307835Y104560D01*
X308851Y105576D01*
X307835D01*
X306819Y106592D01*
X305803Y105576D01*
X304787D01*
X305803Y104560D01*
X304787Y103544D01*
X305803D01*
X306819Y102528D01*
Y92528D02*
X307835Y93544D01*
X308851D01*
X307835Y94560D01*
X308851Y95576D01*
X307835D01*
X306819Y96592D01*
X305803Y95576D01*
X304787D01*
X305803Y94560D01*
X304787Y93544D01*
X305803D01*
X306819Y92528D01*
Y97528D02*
X307835Y98544D01*
X308851D01*
X307835Y99560D01*
X308851Y100576D01*
X307835D01*
X306819Y101592D01*
X305803Y100576D01*
X304787D01*
X305803Y99560D01*
X304787Y98544D01*
X305803D01*
X306819Y97528D01*
X296819D02*
X297835Y98544D01*
X298851D01*
X297835Y99560D01*
X298851Y100576D01*
X297835D01*
X296819Y101592D01*
X295803Y100576D01*
X294787D01*
X295803Y99560D01*
X294787Y98544D01*
X295803D01*
X296819Y97528D01*
X301819Y102528D02*
X302835Y103544D01*
X303851D01*
X302835Y104560D01*
X303851Y105576D01*
X302835D01*
X301819Y106592D01*
X300803Y105576D01*
X299787D01*
X300803Y104560D01*
X299787Y103544D01*
X300803D01*
X301819Y102528D01*
Y97528D02*
X302835Y98544D01*
X303851D01*
X302835Y99560D01*
X303851Y100576D01*
X302835D01*
X301819Y101592D01*
X300803Y100576D01*
X299787D01*
X300803Y99560D01*
X299787Y98544D01*
X300803D01*
X301819Y97528D01*
Y92528D02*
X302835Y93544D01*
X303851D01*
X302835Y94560D01*
X303851Y95576D01*
X302835D01*
X301819Y96592D01*
X300803Y95576D01*
X299787D01*
X300803Y94560D01*
X299787Y93544D01*
X300803D01*
X301819Y92528D01*
X296819D02*
X297835Y93544D01*
X298851D01*
X297835Y94560D01*
X298851Y95576D01*
X297835D01*
X296819Y96592D01*
X295803Y95576D01*
X294787D01*
X295803Y94560D01*
X294787Y93544D01*
X295803D01*
X296819Y92528D01*
G54D75*
X2032Y25400D02*
X628Y27333D01*
X-1644Y26594D01*
Y24206D01*
X628Y23467D01*
X2032Y25400D01*
X27432D02*
X26028Y27333D01*
X23756Y26594D01*
Y24206D01*
X26028Y23467D01*
X27432Y25400D01*
X52832D02*
X51428Y27333D01*
X49156Y26594D01*
Y24206D01*
X51428Y23467D01*
X52832Y25400D01*
X78232D02*
X76828Y27333D01*
X74556Y26594D01*
Y24206D01*
X76828Y23467D01*
X78232Y25400D01*
X179832D02*
X178428Y27333D01*
X176156Y26594D01*
Y24206D01*
X178428Y23467D01*
X179832Y25400D01*
X154432D02*
X153028Y27333D01*
X150756Y26594D01*
Y24206D01*
X153028Y23467D01*
X154432Y25400D01*
X129032D02*
X127628Y27333D01*
X125356Y26594D01*
Y24206D01*
X127628Y23467D01*
X129032Y25400D01*
X103632D02*
X102228Y27333D01*
X99956Y26594D01*
Y24206D01*
X102228Y23467D01*
X103632Y25400D01*
X2032Y0D02*
X628Y1933D01*
X-1644Y1194D01*
Y-1194D01*
X628Y-1933D01*
X2032Y0D01*
X154432D02*
X153028Y1933D01*
X150756Y1194D01*
Y-1194D01*
X153028Y-1933D01*
X154432Y0D01*
X179832D02*
X178428Y1933D01*
X176156Y1194D01*
Y-1194D01*
X178428Y-1933D01*
X179832Y0D01*
X205232D02*
X203828Y1933D01*
X201556Y1194D01*
Y-1194D01*
X203828Y-1933D01*
X205232Y0D01*
X230632D02*
X229228Y1933D01*
X226956Y1194D01*
Y-1194D01*
X229228Y-1933D01*
X230632Y0D01*
X129032D02*
X127628Y1933D01*
X125356Y1194D01*
Y-1194D01*
X127628Y-1933D01*
X129032Y0D01*
X103632D02*
X102228Y1933D01*
X99956Y1194D01*
Y-1194D01*
X102228Y-1933D01*
X103632Y0D01*
X78232D02*
X76828Y1933D01*
X74556Y1194D01*
Y-1194D01*
X76828Y-1933D01*
X78232Y0D01*
X52832D02*
X51428Y1933D01*
X49156Y1194D01*
Y-1194D01*
X51428Y-1933D01*
X52832Y0D01*
X27432D02*
X26028Y1933D01*
X23756Y1194D01*
Y-1194D01*
X26028Y-1933D01*
X27432Y0D01*
X256032D02*
X254628Y1933D01*
X252356Y1194D01*
Y-1194D01*
X254628Y-1933D01*
X256032Y0D01*
X408432D02*
X407028Y1933D01*
X404756Y1194D01*
Y-1194D01*
X407028Y-1933D01*
X408432Y0D01*
X433832D02*
X432428Y1933D01*
X430156Y1194D01*
Y-1194D01*
X432428Y-1933D01*
X433832Y0D01*
X459232D02*
X457828Y1933D01*
X455556Y1194D01*
Y-1194D01*
X457828Y-1933D01*
X459232Y0D01*
X484632D02*
X483228Y1933D01*
X480956Y1194D01*
Y-1194D01*
X483228Y-1933D01*
X484632Y0D01*
X383032D02*
X381628Y1933D01*
X379356Y1194D01*
Y-1194D01*
X381628Y-1933D01*
X383032Y0D01*
X357632D02*
X356228Y1933D01*
X353956Y1194D01*
Y-1194D01*
X356228Y-1933D01*
X357632Y0D01*
X332232D02*
X330828Y1933D01*
X328556Y1194D01*
Y-1194D01*
X330828Y-1933D01*
X332232Y0D01*
X306832D02*
X305428Y1933D01*
X303156Y1194D01*
Y-1194D01*
X305428Y-1933D01*
X306832Y0D01*
X281432D02*
X280028Y1933D01*
X277756Y1194D01*
Y-1194D01*
X280028Y-1933D01*
X281432Y0D01*
X256032Y177800D02*
X254628Y179733D01*
X252356Y178994D01*
Y176606D01*
X254628Y175867D01*
X256032Y177800D01*
X408432D02*
X407028Y179733D01*
X404756Y178994D01*
Y176606D01*
X407028Y175867D01*
X408432Y177800D01*
X433832D02*
X432428Y179733D01*
X430156Y178994D01*
Y176606D01*
X432428Y175867D01*
X433832Y177800D01*
X459232D02*
X457828Y179733D01*
X455556Y178994D01*
Y176606D01*
X457828Y175867D01*
X459232Y177800D01*
X484632D02*
X483228Y179733D01*
X480956Y178994D01*
Y176606D01*
X483228Y175867D01*
X484632Y177800D01*
X383032D02*
X381628Y179733D01*
X379356Y178994D01*
Y176606D01*
X381628Y175867D01*
X383032Y177800D01*
X357632D02*
X356228Y179733D01*
X353956Y178994D01*
Y176606D01*
X356228Y175867D01*
X357632Y177800D01*
X332232D02*
X330828Y179733D01*
X328556Y178994D01*
Y176606D01*
X330828Y175867D01*
X332232Y177800D01*
X306832D02*
X305428Y179733D01*
X303156Y178994D01*
Y176606D01*
X305428Y175867D01*
X306832Y177800D01*
X281432D02*
X280028Y179733D01*
X277756Y178994D01*
Y176606D01*
X280028Y175867D01*
X281432Y177800D01*
X2032D02*
X628Y179733D01*
X-1644Y178994D01*
Y176606D01*
X628Y175867D01*
X2032Y177800D01*
X154432D02*
X153028Y179733D01*
X150756Y178994D01*
Y176606D01*
X153028Y175867D01*
X154432Y177800D01*
X179832D02*
X178428Y179733D01*
X176156Y178994D01*
Y176606D01*
X178428Y175867D01*
X179832Y177800D01*
X205232D02*
X203828Y179733D01*
X201556Y178994D01*
Y176606D01*
X203828Y175867D01*
X205232Y177800D01*
X230632D02*
X229228Y179733D01*
X226956Y178994D01*
Y176606D01*
X229228Y175867D01*
X230632Y177800D01*
X129032D02*
X127628Y179733D01*
X125356Y178994D01*
Y176606D01*
X127628Y175867D01*
X129032Y177800D01*
X103632D02*
X102228Y179733D01*
X99956Y178994D01*
Y176606D01*
X102228Y175867D01*
X103632Y177800D01*
X78232D02*
X76828Y179733D01*
X74556Y178994D01*
Y176606D01*
X76828Y175867D01*
X78232Y177800D01*
X52832D02*
X51428Y179733D01*
X49156Y178994D01*
Y176606D01*
X51428Y175867D01*
X52832Y177800D01*
X27432D02*
X26028Y179733D01*
X23756Y178994D01*
Y176606D01*
X26028Y175867D01*
X27432Y177800D01*
Y152400D02*
X26028Y154333D01*
X23756Y153594D01*
Y151206D01*
X26028Y150467D01*
X27432Y152400D01*
X52832D02*
X51428Y154333D01*
X49156Y153594D01*
Y151206D01*
X51428Y150467D01*
X52832Y152400D01*
X78232D02*
X76828Y154333D01*
X74556Y153594D01*
Y151206D01*
X76828Y150467D01*
X78232Y152400D01*
X103632D02*
X102228Y154333D01*
X99956Y153594D01*
Y151206D01*
X102228Y150467D01*
X103632Y152400D01*
X2032D02*
X628Y154333D01*
X-1644Y153594D01*
Y151206D01*
X628Y150467D01*
X2032Y152400D01*
M02*
