G04*
G04 #@! TF.GenerationSoftware,Altium Limited,Altium Designer,22.8.2 (66)*
G04*
G04 Layer_Physical_Order=2*
G04 Layer_Color=16440176*
%FSLAX44Y44*%
%MOMM*%
G71*
G04*
G04 #@! TF.SameCoordinates,5B037859-B446-4BB1-8760-713DD72627CB*
G04*
G04*
G04 #@! TF.FilePolarity,Positive*
G04*
G01*
G75*
%ADD11C,0.2540*%
%ADD13C,0.1524*%
%ADD53C,0.0762*%
%ADD59C,0.2032*%
%ADD61O,1.8000X1.2000*%
%ADD62O,2.1000X1.2000*%
%ADD63C,1.5000*%
%ADD64C,0.4064*%
%ADD65C,0.3000*%
%ADD66C,0.2500*%
%ADD67C,0.3810*%
G36*
X487100Y190299D02*
Y190281D01*
X489114Y190015D01*
X490990Y189238D01*
X492602Y188002D01*
X493838Y186390D01*
X494615Y184514D01*
X494881Y182500D01*
X494899D01*
Y169482D01*
X494001Y168584D01*
X487231Y168587D01*
X486891Y169857D01*
X488141Y170579D01*
X489821Y172259D01*
X491009Y174317D01*
X491624Y176612D01*
Y178988D01*
X491009Y181283D01*
X489821Y183341D01*
X488141Y185021D01*
X486083Y186209D01*
X483788Y186824D01*
X481412D01*
X479117Y186209D01*
X477059Y185021D01*
X475379Y183341D01*
X474191Y181283D01*
X473576Y178988D01*
Y176612D01*
X474191Y174317D01*
X475379Y172259D01*
X477059Y170579D01*
X478303Y169861D01*
X477963Y168591D01*
X461848Y168597D01*
X461508Y169867D01*
X462741Y170579D01*
X464421Y172259D01*
X465609Y174317D01*
X466224Y176612D01*
Y178988D01*
X465609Y181283D01*
X464421Y183341D01*
X462741Y185021D01*
X460683Y186209D01*
X458388Y186824D01*
X456012D01*
X453717Y186209D01*
X451659Y185021D01*
X449979Y183341D01*
X448791Y181283D01*
X448176Y178988D01*
Y176612D01*
X448791Y174317D01*
X449979Y172259D01*
X451659Y170579D01*
X452886Y169871D01*
X452545Y168601D01*
X436466Y168608D01*
X436126Y169878D01*
X437341Y170579D01*
X439021Y172259D01*
X440209Y174317D01*
X440824Y176612D01*
Y178988D01*
X440209Y181283D01*
X439021Y183341D01*
X437341Y185021D01*
X435283Y186209D01*
X432988Y186824D01*
X430612D01*
X428317Y186209D01*
X426259Y185021D01*
X424579Y183341D01*
X423391Y181283D01*
X422776Y178988D01*
Y176612D01*
X423391Y174317D01*
X424579Y172259D01*
X426259Y170579D01*
X427468Y169881D01*
X427127Y168611D01*
X425891Y168612D01*
X426098Y8582D01*
X426098Y8582D01*
X426098D01*
X426417Y7312D01*
X426259Y7221D01*
X424579Y5541D01*
X423391Y3483D01*
X422776Y1188D01*
Y-1188D01*
X423391Y-3483D01*
X424579Y-5541D01*
X426259Y-7221D01*
X428317Y-8409D01*
X430612Y-9024D01*
X432988D01*
X435283Y-8409D01*
X437341Y-7221D01*
X439021Y-5541D01*
X440209Y-3483D01*
X440824Y-1188D01*
Y1188D01*
X440209Y3483D01*
X439021Y5541D01*
X437341Y7221D01*
X437169Y7320D01*
X437509Y8590D01*
X451509Y8601D01*
X451850Y7331D01*
X451659Y7221D01*
X449979Y5541D01*
X448791Y3483D01*
X448176Y1188D01*
Y-1188D01*
X448791Y-3483D01*
X449979Y-5541D01*
X451659Y-7221D01*
X453717Y-8409D01*
X456012Y-9024D01*
X458388D01*
X460683Y-8409D01*
X462741Y-7221D01*
X464421Y-5541D01*
X465609Y-3483D01*
X466224Y-1188D01*
Y1188D01*
X465609Y3483D01*
X464421Y5541D01*
X462741Y7221D01*
X462536Y7339D01*
X462876Y8609D01*
X476942Y8620D01*
X477283Y7350D01*
X477059Y7221D01*
X475379Y5541D01*
X474191Y3483D01*
X473576Y1188D01*
Y-1188D01*
X474191Y-3483D01*
X475379Y-5541D01*
X477059Y-7221D01*
X479117Y-8409D01*
X481412Y-9024D01*
X483788D01*
X486083Y-8409D01*
X488141Y-7221D01*
X489821Y-5541D01*
X491009Y-3483D01*
X491624Y-1188D01*
Y1188D01*
X491009Y3483D01*
X489821Y5541D01*
X488141Y7221D01*
X487903Y7358D01*
X488243Y8629D01*
X494000Y8633D01*
X494899Y7735D01*
Y-5000D01*
X494881D01*
X494615Y-7014D01*
X493838Y-8890D01*
X492602Y-10502D01*
X490990Y-11738D01*
X489114Y-12515D01*
X487100Y-12781D01*
Y-12799D01*
X-2900Y-12799D01*
Y-12781D01*
X-4914Y-12515D01*
X-6790Y-11738D01*
X-8402Y-10502D01*
X-9638Y-8890D01*
X-10415Y-7014D01*
X-10681Y-5000D01*
X-10699D01*
Y182500D01*
X-10681D01*
X-10415Y184514D01*
X-9638Y186390D01*
X-8402Y188002D01*
X-6790Y189238D01*
X-4914Y190015D01*
X-2900Y190281D01*
X-2900Y190280D01*
Y190280D01*
X-1630Y190299D01*
X487100Y190299D01*
D02*
G37*
%LPC*%
G36*
X407588Y186824D02*
X405212D01*
X402917Y186209D01*
X400859Y185021D01*
X399179Y183341D01*
X397991Y181283D01*
X397376Y178988D01*
Y176612D01*
X397991Y174317D01*
X399179Y172259D01*
X400859Y170579D01*
X402917Y169391D01*
X405212Y168776D01*
X407588D01*
X409883Y169391D01*
X411941Y170579D01*
X413621Y172259D01*
X414809Y174317D01*
X415424Y176612D01*
Y178988D01*
X414809Y181283D01*
X413621Y183341D01*
X411941Y185021D01*
X409883Y186209D01*
X407588Y186824D01*
D02*
G37*
G36*
X382188D02*
X379812D01*
X377517Y186209D01*
X375459Y185021D01*
X373779Y183341D01*
X372591Y181283D01*
X371976Y178988D01*
Y176612D01*
X372591Y174317D01*
X373779Y172259D01*
X375459Y170579D01*
X377517Y169391D01*
X379812Y168776D01*
X382188D01*
X384483Y169391D01*
X386541Y170579D01*
X388221Y172259D01*
X389409Y174317D01*
X390024Y176612D01*
Y178988D01*
X389409Y181283D01*
X388221Y183341D01*
X386541Y185021D01*
X384483Y186209D01*
X382188Y186824D01*
D02*
G37*
G36*
X356788D02*
X354412D01*
X352117Y186209D01*
X350059Y185021D01*
X348379Y183341D01*
X347191Y181283D01*
X346576Y178988D01*
Y176612D01*
X347191Y174317D01*
X348379Y172259D01*
X350059Y170579D01*
X352117Y169391D01*
X354412Y168776D01*
X356788D01*
X359083Y169391D01*
X361141Y170579D01*
X362821Y172259D01*
X364009Y174317D01*
X364624Y176612D01*
Y178988D01*
X364009Y181283D01*
X362821Y183341D01*
X361141Y185021D01*
X359083Y186209D01*
X356788Y186824D01*
D02*
G37*
G36*
X331388D02*
X329012D01*
X326717Y186209D01*
X324659Y185021D01*
X322979Y183341D01*
X321791Y181283D01*
X321176Y178988D01*
Y176612D01*
X321791Y174317D01*
X322979Y172259D01*
X324659Y170579D01*
X326717Y169391D01*
X329012Y168776D01*
X331388D01*
X333683Y169391D01*
X335741Y170579D01*
X337421Y172259D01*
X338609Y174317D01*
X339224Y176612D01*
Y178988D01*
X338609Y181283D01*
X337421Y183341D01*
X335741Y185021D01*
X333683Y186209D01*
X331388Y186824D01*
D02*
G37*
G36*
X305988D02*
X303612D01*
X301317Y186209D01*
X299259Y185021D01*
X297579Y183341D01*
X296391Y181283D01*
X295776Y178988D01*
Y176612D01*
X296391Y174317D01*
X297579Y172259D01*
X299259Y170579D01*
X301317Y169391D01*
X303612Y168776D01*
X305988D01*
X308283Y169391D01*
X310341Y170579D01*
X312021Y172259D01*
X313209Y174317D01*
X313824Y176612D01*
Y178988D01*
X313209Y181283D01*
X312021Y183341D01*
X310341Y185021D01*
X308283Y186209D01*
X305988Y186824D01*
D02*
G37*
G36*
X280588D02*
X278212D01*
X275917Y186209D01*
X273859Y185021D01*
X272179Y183341D01*
X270991Y181283D01*
X270376Y178988D01*
Y176612D01*
X270991Y174317D01*
X272179Y172259D01*
X273859Y170579D01*
X275917Y169391D01*
X278212Y168776D01*
X280588D01*
X282883Y169391D01*
X284941Y170579D01*
X286621Y172259D01*
X287809Y174317D01*
X288424Y176612D01*
Y178988D01*
X287809Y181283D01*
X286621Y183341D01*
X284941Y185021D01*
X282883Y186209D01*
X280588Y186824D01*
D02*
G37*
G36*
X255188D02*
X252812D01*
X250517Y186209D01*
X248459Y185021D01*
X246779Y183341D01*
X245591Y181283D01*
X244976Y178988D01*
Y176612D01*
X245591Y174317D01*
X246779Y172259D01*
X248459Y170579D01*
X250517Y169391D01*
X252812Y168776D01*
X255188D01*
X257483Y169391D01*
X259541Y170579D01*
X261221Y172259D01*
X262409Y174317D01*
X263024Y176612D01*
Y178988D01*
X262409Y181283D01*
X261221Y183341D01*
X259541Y185021D01*
X257483Y186209D01*
X255188Y186824D01*
D02*
G37*
G36*
X229788D02*
X227412D01*
X225117Y186209D01*
X223059Y185021D01*
X221379Y183341D01*
X220191Y181283D01*
X219576Y178988D01*
Y176612D01*
X220191Y174317D01*
X221379Y172259D01*
X223059Y170579D01*
X225117Y169391D01*
X227412Y168776D01*
X229788D01*
X232083Y169391D01*
X234141Y170579D01*
X235821Y172259D01*
X237009Y174317D01*
X237624Y176612D01*
Y178988D01*
X237009Y181283D01*
X235821Y183341D01*
X234141Y185021D01*
X232083Y186209D01*
X229788Y186824D01*
D02*
G37*
G36*
X204388D02*
X202012D01*
X199717Y186209D01*
X197659Y185021D01*
X195979Y183341D01*
X194791Y181283D01*
X194176Y178988D01*
Y176612D01*
X194791Y174317D01*
X195979Y172259D01*
X197659Y170579D01*
X199717Y169391D01*
X202012Y168776D01*
X204388D01*
X206683Y169391D01*
X208741Y170579D01*
X210421Y172259D01*
X211609Y174317D01*
X212224Y176612D01*
Y178988D01*
X211609Y181283D01*
X210421Y183341D01*
X208741Y185021D01*
X206683Y186209D01*
X204388Y186824D01*
D02*
G37*
G36*
X178988D02*
X176612D01*
X174317Y186209D01*
X172259Y185021D01*
X170579Y183341D01*
X169391Y181283D01*
X168776Y178988D01*
Y176612D01*
X169391Y174317D01*
X170579Y172259D01*
X172259Y170579D01*
X174317Y169391D01*
X176612Y168776D01*
X178988D01*
X181283Y169391D01*
X183341Y170579D01*
X185021Y172259D01*
X186209Y174317D01*
X186824Y176612D01*
Y178988D01*
X186209Y181283D01*
X185021Y183341D01*
X183341Y185021D01*
X181283Y186209D01*
X178988Y186824D01*
D02*
G37*
G36*
X153588D02*
X151212D01*
X148917Y186209D01*
X146859Y185021D01*
X145179Y183341D01*
X143991Y181283D01*
X143376Y178988D01*
Y176612D01*
X143991Y174317D01*
X145179Y172259D01*
X146859Y170579D01*
X148917Y169391D01*
X151212Y168776D01*
X153588D01*
X155883Y169391D01*
X157941Y170579D01*
X159621Y172259D01*
X160809Y174317D01*
X161424Y176612D01*
Y178988D01*
X160809Y181283D01*
X159621Y183341D01*
X157941Y185021D01*
X155883Y186209D01*
X153588Y186824D01*
D02*
G37*
G36*
X128188D02*
X125812D01*
X123517Y186209D01*
X121459Y185021D01*
X119779Y183341D01*
X118591Y181283D01*
X117976Y178988D01*
Y176612D01*
X118591Y174317D01*
X119779Y172259D01*
X121459Y170579D01*
X123517Y169391D01*
X125812Y168776D01*
X128188D01*
X130483Y169391D01*
X132541Y170579D01*
X134221Y172259D01*
X135409Y174317D01*
X136024Y176612D01*
Y178988D01*
X135409Y181283D01*
X134221Y183341D01*
X132541Y185021D01*
X130483Y186209D01*
X128188Y186824D01*
D02*
G37*
G36*
X102788D02*
X100412D01*
X98117Y186209D01*
X96059Y185021D01*
X94379Y183341D01*
X93191Y181283D01*
X92576Y178988D01*
Y176612D01*
X93191Y174317D01*
X94379Y172259D01*
X96059Y170579D01*
X98117Y169391D01*
X100412Y168776D01*
X102788D01*
X105083Y169391D01*
X107141Y170579D01*
X108821Y172259D01*
X110009Y174317D01*
X110624Y176612D01*
Y178988D01*
X110009Y181283D01*
X108821Y183341D01*
X107141Y185021D01*
X105083Y186209D01*
X102788Y186824D01*
D02*
G37*
G36*
X77388D02*
X75012D01*
X72717Y186209D01*
X70659Y185021D01*
X68979Y183341D01*
X67791Y181283D01*
X67176Y178988D01*
Y176612D01*
X67791Y174317D01*
X68979Y172259D01*
X70659Y170579D01*
X72717Y169391D01*
X75012Y168776D01*
X77388D01*
X79683Y169391D01*
X81741Y170579D01*
X83421Y172259D01*
X84609Y174317D01*
X85224Y176612D01*
Y178988D01*
X84609Y181283D01*
X83421Y183341D01*
X81741Y185021D01*
X79683Y186209D01*
X77388Y186824D01*
D02*
G37*
G36*
X51988D02*
X49612D01*
X47317Y186209D01*
X45259Y185021D01*
X43579Y183341D01*
X42391Y181283D01*
X41776Y178988D01*
Y176612D01*
X42391Y174317D01*
X43579Y172259D01*
X45259Y170579D01*
X47317Y169391D01*
X49612Y168776D01*
X51988D01*
X54283Y169391D01*
X56341Y170579D01*
X58021Y172259D01*
X59209Y174317D01*
X59824Y176612D01*
Y178988D01*
X59209Y181283D01*
X58021Y183341D01*
X56341Y185021D01*
X54283Y186209D01*
X51988Y186824D01*
D02*
G37*
G36*
X26588D02*
X24212D01*
X21917Y186209D01*
X19859Y185021D01*
X18179Y183341D01*
X16991Y181283D01*
X16376Y178988D01*
Y176612D01*
X16991Y174317D01*
X18179Y172259D01*
X19859Y170579D01*
X21917Y169391D01*
X24212Y168776D01*
X26588D01*
X28883Y169391D01*
X30941Y170579D01*
X32621Y172259D01*
X33809Y174317D01*
X34424Y176612D01*
Y178988D01*
X33809Y181283D01*
X32621Y183341D01*
X30941Y185021D01*
X28883Y186209D01*
X26588Y186824D01*
D02*
G37*
G36*
X1188D02*
X-1188D01*
X-3483Y186209D01*
X-5541Y185021D01*
X-7221Y183341D01*
X-8409Y181283D01*
X-9024Y178988D01*
Y176612D01*
X-8409Y174317D01*
X-7221Y172259D01*
X-5541Y170579D01*
X-3483Y169391D01*
X-1188Y168776D01*
X1188D01*
X3483Y169391D01*
X5541Y170579D01*
X7221Y172259D01*
X8409Y174317D01*
X9024Y176612D01*
Y178988D01*
X8409Y181283D01*
X7221Y183341D01*
X5541Y185021D01*
X3483Y186209D01*
X1188Y186824D01*
D02*
G37*
G36*
X36911Y123078D02*
X34913D01*
X33066Y122313D01*
X31653Y120900D01*
X30888Y119053D01*
Y117055D01*
X31653Y115208D01*
X33066Y113795D01*
X34913Y113030D01*
X36911D01*
X38758Y113795D01*
X40171Y115208D01*
X40936Y117055D01*
Y119053D01*
X40171Y120900D01*
X38758Y122313D01*
X36911Y123078D01*
D02*
G37*
G36*
X55590Y166813D02*
X55590Y166813D01*
X11564D01*
X10474Y166596D01*
X9550Y165978D01*
X9550Y165978D01*
X6573Y163002D01*
X6433Y162956D01*
X6108Y162675D01*
X5798Y162474D01*
X5400Y162276D01*
X4911Y162092D01*
X4328Y161927D01*
X3655Y161787D01*
X2911Y161680D01*
X1090Y161557D01*
X63Y161549D01*
X-233Y161424D01*
X-1188D01*
X-3483Y160809D01*
X-5541Y159621D01*
X-7221Y157941D01*
X-8409Y155883D01*
X-9024Y153588D01*
Y151212D01*
X-8409Y148917D01*
X-7221Y146859D01*
X-5541Y145179D01*
X-3483Y143991D01*
X-1188Y143376D01*
X1188D01*
X3483Y143991D01*
X5541Y145179D01*
X7221Y146859D01*
X8409Y148917D01*
X9024Y151212D01*
Y152167D01*
X9149Y152463D01*
X9157Y153490D01*
X9280Y155311D01*
X9388Y156055D01*
X9527Y156728D01*
X9692Y157311D01*
X9876Y157800D01*
X10073Y158198D01*
X10275Y158508D01*
X10556Y158833D01*
X10602Y158973D01*
X12744Y161115D01*
X45307D01*
X45648Y159845D01*
X45259Y159621D01*
X43579Y157941D01*
X42391Y155883D01*
X41776Y153588D01*
Y151212D01*
X42391Y148917D01*
X43579Y146859D01*
X45259Y145179D01*
X47317Y143991D01*
X49612Y143376D01*
X50570D01*
X50870Y143251D01*
X52056Y143247D01*
X53101Y143213D01*
X54944Y143053D01*
X55666Y142937D01*
X56290Y142796D01*
X56793Y142641D01*
X57169Y142483D01*
X57415Y142340D01*
X57670Y142130D01*
X57819Y142085D01*
X62439Y137465D01*
Y65532D01*
X62617Y64640D01*
X63122Y63884D01*
X69980Y57026D01*
X70736Y56521D01*
X71628Y56343D01*
X189851D01*
X190025Y56263D01*
X190284Y56254D01*
X190327Y56250D01*
X190362Y56244D01*
X190363Y56244D01*
X190385Y56235D01*
X190394Y56235D01*
X190422Y56227D01*
X190446Y56230D01*
X190565Y56110D01*
X191677Y55650D01*
X191845D01*
X191860Y55631D01*
X191886Y55617D01*
X191893Y55611D01*
X191914Y55601D01*
X191928Y55592D01*
X192063Y55476D01*
X192144Y55398D01*
X192332Y55324D01*
X194948Y52708D01*
X195704Y52203D01*
X196596Y52025D01*
X314960D01*
X315852Y52203D01*
X316608Y52708D01*
X323468Y59568D01*
X323973Y60324D01*
X324151Y61216D01*
Y62249D01*
X323973Y63141D01*
X323468Y63897D01*
X323057Y64172D01*
Y77777D01*
X323071Y77811D01*
X323095Y77856D01*
X323126Y77905D01*
X323165Y77958D01*
X323214Y78016D01*
X323289Y78095D01*
X323346Y78240D01*
X323526Y78419D01*
X323832Y79159D01*
Y79959D01*
X323526Y80699D01*
X322960Y81265D01*
X322697Y81374D01*
Y82744D01*
X322960Y82853D01*
X323526Y83419D01*
X323635Y83682D01*
X325005D01*
X325114Y83419D01*
X325680Y82853D01*
X326420Y82547D01*
X327220D01*
X327960Y82853D01*
X328526Y83419D01*
X328832Y84159D01*
Y84959D01*
X329667Y85340D01*
X330507Y85902D01*
X331069Y86742D01*
X331266Y87733D01*
X331069Y88724D01*
X331053Y88748D01*
X331069Y88772D01*
X331266Y89763D01*
X331242Y89881D01*
X331266Y90000D01*
X331069Y90991D01*
X330772Y91435D01*
X331578Y92476D01*
X332378D01*
X333118Y92782D01*
X333684Y93348D01*
X333990Y94088D01*
Y94888D01*
X333684Y95628D01*
X333118Y96194D01*
X332636Y96393D01*
X332468Y97333D01*
X332509Y97716D01*
X332864Y97862D01*
X333430Y98428D01*
X333736Y99168D01*
Y99968D01*
X333430Y100708D01*
X332864Y101274D01*
X332509Y101420D01*
X332468Y101803D01*
X332636Y102743D01*
X333118Y102942D01*
X333684Y103508D01*
X333990Y104248D01*
Y105048D01*
X333684Y105788D01*
X333118Y106354D01*
X332378Y106660D01*
X331578D01*
X330838Y106354D01*
X330272Y105788D01*
X330076Y105313D01*
X330016Y105168D01*
X329780Y105127D01*
X329428Y105101D01*
X328746Y105168D01*
X328686Y105312D01*
X328526Y105699D01*
X327960Y106265D01*
X327220Y106572D01*
X326420D01*
X325680Y106265D01*
X325114Y105699D01*
X325005Y105436D01*
X323635D01*
X323526Y105699D01*
X322960Y106265D01*
X322220Y106572D01*
X321420D01*
X320680Y106265D01*
X320114Y105699D01*
X320098Y105660D01*
X318832Y105560D01*
X318057Y106467D01*
Y118697D01*
X318468Y118971D01*
X318973Y119727D01*
X319151Y120619D01*
Y129458D01*
X318973Y130350D01*
X318468Y131106D01*
X295526Y154048D01*
X294770Y154553D01*
X293878Y154731D01*
X113858D01*
X113720Y154804D01*
X113391Y154836D01*
X113116Y154909D01*
X112738Y155063D01*
X112273Y155309D01*
X111732Y155651D01*
X111153Y156070D01*
X108939Y158005D01*
X108119Y158820D01*
X107818Y158943D01*
X107141Y159621D01*
X105083Y160809D01*
X102788Y161424D01*
X100412D01*
X98117Y160809D01*
X96059Y159621D01*
X94379Y157941D01*
X93191Y155883D01*
X92576Y153588D01*
Y151212D01*
X93191Y148917D01*
X94379Y146859D01*
X96059Y145179D01*
X98117Y143991D01*
X100412Y143376D01*
X102788D01*
X105083Y143991D01*
X107141Y145179D01*
X107818Y145857D01*
X108119Y145980D01*
X108960Y146816D01*
X109723Y147531D01*
X111140Y148721D01*
X111732Y149150D01*
X112273Y149491D01*
X112738Y149737D01*
X113116Y149891D01*
X113391Y149964D01*
X113720Y149996D01*
X113858Y150069D01*
X292913D01*
X304401Y138580D01*
X303776Y137410D01*
X303530Y137459D01*
X94437D01*
X86516Y145381D01*
X86470Y145529D01*
X86260Y145785D01*
X86117Y146031D01*
X85959Y146407D01*
X85804Y146910D01*
X85663Y147534D01*
X85550Y148240D01*
X85353Y151173D01*
X85349Y152330D01*
X85224Y152630D01*
Y153588D01*
X84609Y155883D01*
X83421Y157941D01*
X81741Y159621D01*
X79683Y160809D01*
X77388Y161424D01*
X75012D01*
X72717Y160809D01*
X70659Y159621D01*
X68979Y157941D01*
X67791Y155883D01*
X67619Y155240D01*
X66349Y155408D01*
Y156054D01*
X66132Y157144D01*
X65514Y158068D01*
X65514Y158068D01*
X57604Y165978D01*
X56680Y166596D01*
X55590Y166813D01*
D02*
G37*
G36*
X36911Y65278D02*
X34913D01*
X33066Y64513D01*
X31653Y63100D01*
X30888Y61253D01*
Y59254D01*
X31653Y57408D01*
X33066Y55995D01*
X34913Y55230D01*
X36911D01*
X38758Y55995D01*
X40171Y57408D01*
X40936Y59254D01*
Y61253D01*
X40171Y63100D01*
X38758Y64513D01*
X36911Y65278D01*
D02*
G37*
G36*
X348327Y83034D02*
X347124D01*
X346013Y82574D01*
X345162Y81723D01*
X344702Y80611D01*
Y80309D01*
X344577Y80019D01*
X344575Y79880D01*
X344569Y79799D01*
X344562Y79739D01*
X344554Y79699D01*
X344552Y79691D01*
X344542Y79678D01*
X344539Y79663D01*
X344527Y79643D01*
X344524Y79626D01*
X344520Y79617D01*
X344519Y79588D01*
X344519Y79581D01*
X344501Y79532D01*
X344321Y79351D01*
X343899Y78721D01*
X343752Y77978D01*
Y51097D01*
X331427Y38772D01*
X303590D01*
X303506Y38909D01*
X303201Y40042D01*
X303810Y40651D01*
X304270Y41762D01*
Y42965D01*
X303810Y44077D01*
X302959Y44928D01*
X301847Y45388D01*
X300644D01*
X299533Y44928D01*
X298682Y44077D01*
X298222Y42965D01*
Y41762D01*
X298682Y40651D01*
X299291Y40042D01*
X298986Y38909D01*
X298902Y38772D01*
X295699D01*
X294055Y40416D01*
X294037Y40465D01*
X294037Y40472D01*
X294035Y40501D01*
X294032Y40510D01*
X294029Y40527D01*
X294017Y40547D01*
X294014Y40562D01*
X294004Y40575D01*
X294002Y40582D01*
X293994Y40623D01*
X293987Y40683D01*
X293981Y40764D01*
X293979Y40903D01*
X293854Y41193D01*
Y41495D01*
X293394Y42607D01*
X292543Y43458D01*
X291432Y43918D01*
X290229D01*
X289117Y43458D01*
X288266Y42607D01*
X287806Y41495D01*
Y40293D01*
X288266Y39181D01*
X289117Y38330D01*
X290229Y37870D01*
X290530D01*
X290821Y37745D01*
X290960Y37743D01*
X291040Y37737D01*
X291101Y37730D01*
X291141Y37722D01*
X291149Y37720D01*
X291162Y37710D01*
X291177Y37707D01*
X291197Y37695D01*
X291214Y37692D01*
X291223Y37689D01*
X291252Y37687D01*
X291259Y37687D01*
X291308Y37669D01*
X293521Y35457D01*
X294151Y35036D01*
X294894Y34888D01*
X332232D01*
X332975Y35036D01*
X333605Y35457D01*
X347067Y48919D01*
X347489Y49549D01*
X347636Y50292D01*
Y76859D01*
X347735Y76861D01*
X348026Y76986D01*
X348327D01*
X349439Y77446D01*
X350290Y78297D01*
X350750Y79408D01*
Y80611D01*
X350290Y81723D01*
X349439Y82574D01*
X348327Y83034D01*
D02*
G37*
G36*
X178988Y34424D02*
X176612D01*
X174317Y33809D01*
X172259Y32621D01*
X170579Y30941D01*
X169391Y28883D01*
X168776Y26588D01*
Y24212D01*
X169391Y21917D01*
X170579Y19859D01*
X172259Y18179D01*
X174317Y16991D01*
X176612Y16376D01*
X178988D01*
X181283Y16991D01*
X183341Y18179D01*
X185021Y19859D01*
X186209Y21917D01*
X186824Y24212D01*
Y26588D01*
X186209Y28883D01*
X185021Y30941D01*
X183341Y32621D01*
X181283Y33809D01*
X178988Y34424D01*
D02*
G37*
G36*
X153588D02*
X151212D01*
X148917Y33809D01*
X146859Y32621D01*
X145179Y30941D01*
X143991Y28883D01*
X143376Y26588D01*
Y24212D01*
X143991Y21917D01*
X145179Y19859D01*
X146859Y18179D01*
X148917Y16991D01*
X151212Y16376D01*
X153588D01*
X155883Y16991D01*
X157941Y18179D01*
X159621Y19859D01*
X160809Y21917D01*
X161424Y24212D01*
Y26588D01*
X160809Y28883D01*
X159621Y30941D01*
X157941Y32621D01*
X155883Y33809D01*
X153588Y34424D01*
D02*
G37*
G36*
X128188D02*
X125812D01*
X123517Y33809D01*
X121459Y32621D01*
X119779Y30941D01*
X118591Y28883D01*
X117976Y26588D01*
Y24212D01*
X118591Y21917D01*
X119779Y19859D01*
X121459Y18179D01*
X123517Y16991D01*
X125812Y16376D01*
X128188D01*
X130483Y16991D01*
X132541Y18179D01*
X134221Y19859D01*
X135409Y21917D01*
X136024Y24212D01*
Y26588D01*
X135409Y28883D01*
X134221Y30941D01*
X132541Y32621D01*
X130483Y33809D01*
X128188Y34424D01*
D02*
G37*
G36*
X102788D02*
X100412D01*
X98117Y33809D01*
X96059Y32621D01*
X94379Y30941D01*
X93191Y28883D01*
X92576Y26588D01*
Y24212D01*
X93191Y21917D01*
X94379Y19859D01*
X96059Y18179D01*
X98117Y16991D01*
X100412Y16376D01*
X102788D01*
X105083Y16991D01*
X107141Y18179D01*
X108821Y19859D01*
X110009Y21917D01*
X110624Y24212D01*
Y26588D01*
X110009Y28883D01*
X108821Y30941D01*
X107141Y32621D01*
X105083Y33809D01*
X102788Y34424D01*
D02*
G37*
G36*
X77388D02*
X75012D01*
X72717Y33809D01*
X70659Y32621D01*
X68979Y30941D01*
X67791Y28883D01*
X67176Y26588D01*
Y24212D01*
X67791Y21917D01*
X68979Y19859D01*
X70659Y18179D01*
X72717Y16991D01*
X75012Y16376D01*
X77388D01*
X79683Y16991D01*
X81741Y18179D01*
X83421Y19859D01*
X84609Y21917D01*
X85224Y24212D01*
Y26588D01*
X84609Y28883D01*
X83421Y30941D01*
X81741Y32621D01*
X79683Y33809D01*
X77388Y34424D01*
D02*
G37*
G36*
X51988D02*
X49612D01*
X47317Y33809D01*
X45259Y32621D01*
X43579Y30941D01*
X42391Y28883D01*
X41776Y26588D01*
Y24212D01*
X42391Y21917D01*
X43579Y19859D01*
X45259Y18179D01*
X47317Y16991D01*
X49612Y16376D01*
X51988D01*
X54283Y16991D01*
X56341Y18179D01*
X58021Y19859D01*
X59209Y21917D01*
X59824Y24212D01*
Y26588D01*
X59209Y28883D01*
X58021Y30941D01*
X56341Y32621D01*
X54283Y33809D01*
X51988Y34424D01*
D02*
G37*
G36*
X26588D02*
X24212D01*
X21917Y33809D01*
X19859Y32621D01*
X18179Y30941D01*
X16991Y28883D01*
X16376Y26588D01*
Y24212D01*
X16991Y21917D01*
X18179Y19859D01*
X19859Y18179D01*
X21917Y16991D01*
X24212Y16376D01*
X26588D01*
X28883Y16991D01*
X30941Y18179D01*
X32621Y19859D01*
X33809Y21917D01*
X34424Y24212D01*
Y26588D01*
X33809Y28883D01*
X32621Y30941D01*
X30941Y32621D01*
X28883Y33809D01*
X26588Y34424D01*
D02*
G37*
G36*
X1188D02*
X-1188D01*
X-3483Y33809D01*
X-5541Y32621D01*
X-7221Y30941D01*
X-8409Y28883D01*
X-9024Y26588D01*
Y24212D01*
X-8409Y21917D01*
X-7221Y19859D01*
X-5541Y18179D01*
X-3483Y16991D01*
X-1188Y16376D01*
X1188D01*
X3483Y16991D01*
X5541Y18179D01*
X7221Y19859D01*
X8409Y21917D01*
X9024Y24212D01*
Y26588D01*
X8409Y28883D01*
X7221Y30941D01*
X5541Y32621D01*
X3483Y33809D01*
X1188Y34424D01*
D02*
G37*
G36*
X407588Y9024D02*
X405212D01*
X402917Y8409D01*
X400859Y7221D01*
X399179Y5541D01*
X397991Y3483D01*
X397376Y1188D01*
Y-1188D01*
X397991Y-3483D01*
X399179Y-5541D01*
X400859Y-7221D01*
X402917Y-8409D01*
X405212Y-9024D01*
X407588D01*
X409883Y-8409D01*
X411941Y-7221D01*
X413621Y-5541D01*
X414809Y-3483D01*
X415424Y-1188D01*
Y1188D01*
X414809Y3483D01*
X413621Y5541D01*
X411941Y7221D01*
X409883Y8409D01*
X407588Y9024D01*
D02*
G37*
G36*
X382188D02*
X379812D01*
X377517Y8409D01*
X375459Y7221D01*
X373779Y5541D01*
X372591Y3483D01*
X371976Y1188D01*
Y-1188D01*
X372591Y-3483D01*
X373779Y-5541D01*
X375459Y-7221D01*
X377517Y-8409D01*
X379812Y-9024D01*
X382188D01*
X384483Y-8409D01*
X386541Y-7221D01*
X388221Y-5541D01*
X389409Y-3483D01*
X390024Y-1188D01*
Y1188D01*
X389409Y3483D01*
X388221Y5541D01*
X386541Y7221D01*
X384483Y8409D01*
X382188Y9024D01*
D02*
G37*
G36*
X356788D02*
X354412D01*
X352117Y8409D01*
X350059Y7221D01*
X348379Y5541D01*
X347191Y3483D01*
X346576Y1188D01*
Y-1188D01*
X347191Y-3483D01*
X348379Y-5541D01*
X350059Y-7221D01*
X352117Y-8409D01*
X354412Y-9024D01*
X356788D01*
X359083Y-8409D01*
X361141Y-7221D01*
X362821Y-5541D01*
X364009Y-3483D01*
X364624Y-1188D01*
Y1188D01*
X364009Y3483D01*
X362821Y5541D01*
X361141Y7221D01*
X359083Y8409D01*
X356788Y9024D01*
D02*
G37*
G36*
X331388D02*
X329012D01*
X326717Y8409D01*
X324659Y7221D01*
X322979Y5541D01*
X321791Y3483D01*
X321176Y1188D01*
Y-1188D01*
X321791Y-3483D01*
X322979Y-5541D01*
X324659Y-7221D01*
X326717Y-8409D01*
X329012Y-9024D01*
X331388D01*
X333683Y-8409D01*
X335741Y-7221D01*
X337421Y-5541D01*
X338609Y-3483D01*
X339224Y-1188D01*
Y1188D01*
X338609Y3483D01*
X337421Y5541D01*
X335741Y7221D01*
X333683Y8409D01*
X331388Y9024D01*
D02*
G37*
G36*
X305988D02*
X303612D01*
X301317Y8409D01*
X299259Y7221D01*
X297579Y5541D01*
X296391Y3483D01*
X295776Y1188D01*
Y-1188D01*
X296391Y-3483D01*
X297579Y-5541D01*
X299259Y-7221D01*
X301317Y-8409D01*
X303612Y-9024D01*
X305988D01*
X308283Y-8409D01*
X310341Y-7221D01*
X312021Y-5541D01*
X313209Y-3483D01*
X313824Y-1188D01*
Y1188D01*
X313209Y3483D01*
X312021Y5541D01*
X310341Y7221D01*
X308283Y8409D01*
X305988Y9024D01*
D02*
G37*
G36*
X280588D02*
X278212D01*
X275917Y8409D01*
X273859Y7221D01*
X272179Y5541D01*
X270991Y3483D01*
X270376Y1188D01*
Y-1188D01*
X270991Y-3483D01*
X272179Y-5541D01*
X273859Y-7221D01*
X275917Y-8409D01*
X278212Y-9024D01*
X280588D01*
X282883Y-8409D01*
X284941Y-7221D01*
X286621Y-5541D01*
X287809Y-3483D01*
X288424Y-1188D01*
Y1188D01*
X287809Y3483D01*
X286621Y5541D01*
X284941Y7221D01*
X282883Y8409D01*
X280588Y9024D01*
D02*
G37*
G36*
X255188D02*
X252812D01*
X250517Y8409D01*
X248459Y7221D01*
X246779Y5541D01*
X245591Y3483D01*
X244976Y1188D01*
Y-1188D01*
X245591Y-3483D01*
X246779Y-5541D01*
X248459Y-7221D01*
X250517Y-8409D01*
X252812Y-9024D01*
X255188D01*
X257483Y-8409D01*
X259541Y-7221D01*
X261221Y-5541D01*
X262409Y-3483D01*
X263024Y-1188D01*
Y1188D01*
X262409Y3483D01*
X261221Y5541D01*
X259541Y7221D01*
X257483Y8409D01*
X255188Y9024D01*
D02*
G37*
G36*
X229788D02*
X227412D01*
X225117Y8409D01*
X223059Y7221D01*
X221379Y5541D01*
X220191Y3483D01*
X219576Y1188D01*
Y-1188D01*
X220191Y-3483D01*
X221379Y-5541D01*
X223059Y-7221D01*
X225117Y-8409D01*
X227412Y-9024D01*
X229788D01*
X232083Y-8409D01*
X234141Y-7221D01*
X235821Y-5541D01*
X237009Y-3483D01*
X237624Y-1188D01*
Y1188D01*
X237009Y3483D01*
X235821Y5541D01*
X234141Y7221D01*
X232083Y8409D01*
X229788Y9024D01*
D02*
G37*
G36*
X204388D02*
X202012D01*
X199717Y8409D01*
X197659Y7221D01*
X195979Y5541D01*
X194791Y3483D01*
X194176Y1188D01*
Y-1188D01*
X194791Y-3483D01*
X195979Y-5541D01*
X197659Y-7221D01*
X199717Y-8409D01*
X202012Y-9024D01*
X204388D01*
X206683Y-8409D01*
X208741Y-7221D01*
X210421Y-5541D01*
X211609Y-3483D01*
X212224Y-1188D01*
Y1188D01*
X211609Y3483D01*
X210421Y5541D01*
X208741Y7221D01*
X206683Y8409D01*
X204388Y9024D01*
D02*
G37*
G36*
X178988D02*
X176612D01*
X174317Y8409D01*
X172259Y7221D01*
X170579Y5541D01*
X169391Y3483D01*
X168776Y1188D01*
Y-1188D01*
X169391Y-3483D01*
X170579Y-5541D01*
X172259Y-7221D01*
X174317Y-8409D01*
X176612Y-9024D01*
X178988D01*
X181283Y-8409D01*
X183341Y-7221D01*
X185021Y-5541D01*
X186209Y-3483D01*
X186824Y-1188D01*
Y1188D01*
X186209Y3483D01*
X185021Y5541D01*
X183341Y7221D01*
X181283Y8409D01*
X178988Y9024D01*
D02*
G37*
G36*
X153588D02*
X151212D01*
X148917Y8409D01*
X146859Y7221D01*
X145179Y5541D01*
X143991Y3483D01*
X143376Y1188D01*
Y-1188D01*
X143991Y-3483D01*
X145179Y-5541D01*
X146859Y-7221D01*
X148917Y-8409D01*
X151212Y-9024D01*
X153588D01*
X155883Y-8409D01*
X157941Y-7221D01*
X159621Y-5541D01*
X160809Y-3483D01*
X161424Y-1188D01*
Y1188D01*
X160809Y3483D01*
X159621Y5541D01*
X157941Y7221D01*
X155883Y8409D01*
X153588Y9024D01*
D02*
G37*
G36*
X128188D02*
X125812D01*
X123517Y8409D01*
X121459Y7221D01*
X119779Y5541D01*
X118591Y3483D01*
X117976Y1188D01*
Y-1188D01*
X118591Y-3483D01*
X119779Y-5541D01*
X121459Y-7221D01*
X123517Y-8409D01*
X125812Y-9024D01*
X128188D01*
X130483Y-8409D01*
X132541Y-7221D01*
X134221Y-5541D01*
X135409Y-3483D01*
X136024Y-1188D01*
Y1188D01*
X135409Y3483D01*
X134221Y5541D01*
X132541Y7221D01*
X130483Y8409D01*
X128188Y9024D01*
D02*
G37*
G36*
X102788D02*
X100412D01*
X98117Y8409D01*
X96059Y7221D01*
X94379Y5541D01*
X93191Y3483D01*
X92576Y1188D01*
Y-1188D01*
X93191Y-3483D01*
X94379Y-5541D01*
X96059Y-7221D01*
X98117Y-8409D01*
X100412Y-9024D01*
X102788D01*
X105083Y-8409D01*
X107141Y-7221D01*
X108821Y-5541D01*
X110009Y-3483D01*
X110624Y-1188D01*
Y1188D01*
X110009Y3483D01*
X108821Y5541D01*
X107141Y7221D01*
X105083Y8409D01*
X102788Y9024D01*
D02*
G37*
G36*
X77388D02*
X75012D01*
X72717Y8409D01*
X70659Y7221D01*
X68979Y5541D01*
X67791Y3483D01*
X67176Y1188D01*
Y-1188D01*
X67791Y-3483D01*
X68979Y-5541D01*
X70659Y-7221D01*
X72717Y-8409D01*
X75012Y-9024D01*
X77388D01*
X79683Y-8409D01*
X81741Y-7221D01*
X83421Y-5541D01*
X84609Y-3483D01*
X85224Y-1188D01*
Y1188D01*
X84609Y3483D01*
X83421Y5541D01*
X81741Y7221D01*
X79683Y8409D01*
X77388Y9024D01*
D02*
G37*
G36*
X51988D02*
X49612D01*
X47317Y8409D01*
X45259Y7221D01*
X43579Y5541D01*
X42391Y3483D01*
X41776Y1188D01*
Y-1188D01*
X42391Y-3483D01*
X43579Y-5541D01*
X45259Y-7221D01*
X47317Y-8409D01*
X49612Y-9024D01*
X51988D01*
X54283Y-8409D01*
X56341Y-7221D01*
X58021Y-5541D01*
X59209Y-3483D01*
X59824Y-1188D01*
Y1188D01*
X59209Y3483D01*
X58021Y5541D01*
X56341Y7221D01*
X54283Y8409D01*
X51988Y9024D01*
D02*
G37*
G36*
X26588D02*
X24212D01*
X21917Y8409D01*
X19859Y7221D01*
X18179Y5541D01*
X16991Y3483D01*
X16376Y1188D01*
Y-1188D01*
X16991Y-3483D01*
X18179Y-5541D01*
X19859Y-7221D01*
X21917Y-8409D01*
X24212Y-9024D01*
X26588D01*
X28883Y-8409D01*
X30941Y-7221D01*
X32621Y-5541D01*
X33809Y-3483D01*
X34424Y-1188D01*
Y1188D01*
X33809Y3483D01*
X32621Y5541D01*
X30941Y7221D01*
X28883Y8409D01*
X26588Y9024D01*
D02*
G37*
G36*
X1188D02*
X-1188D01*
X-3483Y8409D01*
X-5541Y7221D01*
X-7221Y5541D01*
X-8409Y3483D01*
X-9024Y1188D01*
Y-1188D01*
X-8409Y-3483D01*
X-7221Y-5541D01*
X-5541Y-7221D01*
X-3483Y-8409D01*
X-1188Y-9024D01*
X1188D01*
X3483Y-8409D01*
X5541Y-7221D01*
X7221Y-5541D01*
X8409Y-3483D01*
X9024Y-1188D01*
Y1188D01*
X8409Y3483D01*
X7221Y5541D01*
X5541Y7221D01*
X3483Y8409D01*
X1188Y9024D01*
D02*
G37*
%LPD*%
G36*
X9307Y159911D02*
X8953Y159501D01*
X8638Y159017D01*
X8362Y158459D01*
X8123Y157827D01*
X7923Y157120D01*
X7762Y156340D01*
X7639Y155485D01*
X7508Y153553D01*
X7500Y152475D01*
X75Y159900D01*
X1152Y159908D01*
X3085Y160039D01*
X3940Y160162D01*
X4720Y160324D01*
X5427Y160523D01*
X6059Y160762D01*
X6617Y161038D01*
X7101Y161353D01*
X7511Y161707D01*
X9307Y159911D01*
D02*
G37*
G36*
X107814Y156797D02*
X110125Y154778D01*
X110807Y154284D01*
X111446Y153880D01*
X112040Y153566D01*
X112591Y153342D01*
X113098Y153207D01*
X113561Y153162D01*
Y151638D01*
X113098Y151593D01*
X112591Y151459D01*
X112040Y151234D01*
X111446Y150920D01*
X110807Y150516D01*
X110125Y150022D01*
X108628Y148766D01*
X107814Y148003D01*
X106956Y147150D01*
Y157650D01*
X107814Y156797D01*
D02*
G37*
G36*
X83703Y151115D02*
X83909Y148054D01*
X84043Y147222D01*
X84208Y146485D01*
X84407Y145842D01*
X84638Y145294D01*
X84901Y144840D01*
X85197Y144481D01*
X84119Y143403D01*
X83760Y143699D01*
X83306Y143962D01*
X82758Y144193D01*
X82115Y144392D01*
X81378Y144558D01*
X80546Y144691D01*
X78600Y144861D01*
X77485Y144897D01*
X76275Y144900D01*
X83700Y152325D01*
X83703Y151115D01*
D02*
G37*
G36*
X58303D02*
X58509Y148054D01*
X58643Y147222D01*
X58808Y146485D01*
X59007Y145842D01*
X59238Y145294D01*
X59501Y144840D01*
X59797Y144481D01*
X58719Y143403D01*
X58360Y143699D01*
X57906Y143962D01*
X57358Y144193D01*
X56715Y144392D01*
X55978Y144558D01*
X55146Y144691D01*
X53200Y144861D01*
X52085Y144897D01*
X50875Y144900D01*
X58300Y152325D01*
X58303Y151115D01*
D02*
G37*
G36*
X317329Y120036D02*
X317302Y119964D01*
X317278Y119866D01*
X317258Y119741D01*
X317226Y119412D01*
X317203Y118720D01*
X317201Y118435D01*
X316439D01*
X316437Y118720D01*
X316362Y119866D01*
X316338Y119964D01*
X316311Y120036D01*
X316281Y120081D01*
X317359D01*
X317329Y120036D01*
D02*
G37*
G36*
X313691D02*
X313664Y119964D01*
X313640Y119866D01*
X313620Y119741D01*
X313588Y119412D01*
X313565Y118720D01*
X313563Y118435D01*
X312801D01*
X312799Y118720D01*
X312724Y119866D01*
X312700Y119964D01*
X312673Y120036D01*
X312643Y120081D01*
X313721D01*
X313691Y120036D01*
D02*
G37*
G36*
X317206Y106388D02*
X317221Y106278D01*
X317245Y106169D01*
X317280Y106062D01*
X317325Y105956D01*
X317379Y105852D01*
X317443Y105750D01*
X317517Y105649D01*
X317601Y105550D01*
X317695Y105452D01*
X315945D01*
X316039Y105550D01*
X316123Y105649D01*
X316197Y105750D01*
X316261Y105852D01*
X316315Y105956D01*
X316360Y106062D01*
X316395Y106169D01*
X316419Y106278D01*
X316434Y106388D01*
X316439Y106500D01*
X317201D01*
X317206Y106388D01*
D02*
G37*
G36*
X320800Y101126D02*
X320888Y101058D01*
X320983Y100999D01*
X321083Y100947D01*
X321189Y100904D01*
X321301Y100869D01*
X321419Y100842D01*
X321543Y100823D01*
X321672Y100812D01*
X321808Y100810D01*
X320570Y99572D01*
X320567Y99708D01*
X320557Y99837D01*
X320538Y99961D01*
X320511Y100079D01*
X320476Y100191D01*
X320432Y100297D01*
X320381Y100397D01*
X320322Y100491D01*
X320254Y100580D01*
X320178Y100662D01*
X320717Y101201D01*
X320800Y101126D01*
D02*
G37*
G36*
X72717Y143991D02*
X75012Y143376D01*
X75970D01*
X76270Y143251D01*
X77456Y143247D01*
X78501Y143213D01*
X80344Y143053D01*
X81066Y142937D01*
X81690Y142796D01*
X82193Y142641D01*
X82569Y142483D01*
X82815Y142340D01*
X83070Y142130D01*
X83219Y142085D01*
X91824Y133480D01*
X92580Y132975D01*
X93472Y132797D01*
X302565D01*
X310851Y124511D01*
Y120619D01*
X311029Y119727D01*
X311534Y118971D01*
X311945Y118697D01*
Y104394D01*
X312307Y103519D01*
X314223Y101604D01*
X315114Y100699D01*
X314808Y99960D01*
Y99159D01*
X315114Y98420D01*
X315680Y97854D01*
X315943Y97745D01*
Y96374D01*
X315680Y96265D01*
X315114Y95699D01*
X314808Y94960D01*
Y94159D01*
X314932Y93860D01*
X314367Y92750D01*
X314188Y92590D01*
X309451D01*
X309272Y92750D01*
X308707Y93860D01*
X308831Y94159D01*
Y94960D01*
X308525Y95699D01*
X307959Y96265D01*
X307696Y96374D01*
Y97745D01*
X307959Y97854D01*
X308525Y98420D01*
X308831Y99159D01*
Y99960D01*
X308525Y100699D01*
X307959Y101265D01*
X307696Y101374D01*
Y102745D01*
X307959Y102854D01*
X308525Y103420D01*
X308831Y104159D01*
Y104960D01*
X308525Y105699D01*
X307959Y106265D01*
X307219Y106572D01*
X306419D01*
X305679Y106265D01*
X305114Y105699D01*
X305005Y105436D01*
X303634D01*
X303525Y105699D01*
X302959Y106265D01*
X302219Y106572D01*
X301419D01*
X300679Y106265D01*
X300114Y105699D01*
X300005Y105436D01*
X298634D01*
X298525Y105699D01*
X297959Y106265D01*
X297219Y106572D01*
X296419D01*
X295679Y106265D01*
X295114Y105699D01*
X295005Y105436D01*
X293634D01*
X293525Y105699D01*
X292959Y106265D01*
X292219Y106572D01*
X291419D01*
X290679Y106265D01*
X290114Y105699D01*
X288751Y105728D01*
X288726Y105788D01*
X288160Y106354D01*
X287420Y106660D01*
X286620D01*
X285880Y106354D01*
X285314Y105788D01*
X285008Y105048D01*
Y104248D01*
X285314Y103508D01*
X285880Y102942D01*
X286620Y102636D01*
X287420D01*
X288160Y102942D01*
X288726Y103508D01*
X290089Y103480D01*
X290114Y103420D01*
X290679Y102854D01*
X290799Y102805D01*
Y101430D01*
X290679Y101381D01*
X290114Y100815D01*
X289807Y100075D01*
Y99275D01*
X290114Y98535D01*
X290679Y97969D01*
X291203Y97752D01*
X291221Y97655D01*
Y96580D01*
X291203Y96482D01*
X290679Y96265D01*
X290114Y95699D01*
X289951Y95308D01*
X288634Y95236D01*
X288472Y95628D01*
X287906Y96194D01*
X287166Y96500D01*
X286366D01*
X285626Y96194D01*
X285060Y95628D01*
X284754Y94888D01*
Y94088D01*
X284848Y93860D01*
X284201Y92666D01*
X284104Y92590D01*
X140000D01*
X139009Y92393D01*
X138169Y91831D01*
X137607Y90991D01*
X137410Y90000D01*
Y80319D01*
X89572D01*
X74174Y95717D01*
Y139495D01*
X73957Y140585D01*
X73339Y141509D01*
X73339Y141509D01*
X71788Y143061D01*
X72568Y144077D01*
X72717Y143991D01*
D02*
G37*
G36*
X322601Y78569D02*
X322517Y78469D01*
X322443Y78369D01*
X322379Y78266D01*
X322324Y78162D01*
X322280Y78057D01*
X322245Y77949D01*
X322221Y77841D01*
X322206Y77730D01*
X322201Y77618D01*
X321439D01*
X321434Y77730D01*
X321419Y77841D01*
X321395Y77949D01*
X321360Y78057D01*
X321315Y78162D01*
X321261Y78266D01*
X321197Y78369D01*
X321123Y78469D01*
X321039Y78569D01*
X320945Y78666D01*
X322695D01*
X322601Y78569D01*
D02*
G37*
G36*
X152578Y76122D02*
X152525Y76137D01*
X152397Y76150D01*
X151919Y76172D01*
X148694Y76200D01*
Y78740D01*
X152578Y78818D01*
Y76122D01*
D02*
G37*
G36*
X322203Y64149D02*
X322279Y63002D01*
X322302Y62904D01*
X322329Y62833D01*
X322359Y62788D01*
X321281D01*
X321311Y62833D01*
X321338Y62904D01*
X321362Y63002D01*
X321382Y63127D01*
X321414Y63456D01*
X321437Y64149D01*
X321439Y64433D01*
X322201D01*
X322203Y64149D01*
D02*
G37*
G36*
X191207Y57624D02*
X191145Y57679D01*
X191072Y57728D01*
X190987Y57771D01*
X190892Y57808D01*
X190785Y57840D01*
X190668Y57866D01*
X190539Y57886D01*
X190399Y57901D01*
X190086Y57912D01*
Y59436D01*
X190248Y59439D01*
X190539Y59462D01*
X190668Y59482D01*
X190785Y59508D01*
X190892Y59540D01*
X190987Y59577D01*
X191072Y59620D01*
X191145Y59669D01*
X191207Y59724D01*
Y57624D01*
D02*
G37*
G36*
X68476Y137090D02*
Y94537D01*
X68476Y94537D01*
X68693Y93447D01*
X69311Y92523D01*
X86378Y75456D01*
X86378Y75456D01*
X87302Y74838D01*
X88392Y74621D01*
X88392Y74621D01*
X137410D01*
Y70000D01*
X137607Y69009D01*
X138169Y68169D01*
X139009Y67607D01*
X140000Y67410D01*
X319661D01*
X320583Y66654D01*
Y64172D01*
X320172Y63897D01*
X319667Y63141D01*
X319489Y62249D01*
Y62181D01*
X313995Y56687D01*
X197561D01*
X195642Y58606D01*
X195575Y58786D01*
X195399Y58975D01*
X195372Y59009D01*
X195351Y59038D01*
X195341Y59060D01*
X195335Y59066D01*
X195321Y59092D01*
X195302Y59107D01*
Y59275D01*
X194842Y60387D01*
X193991Y61238D01*
X192880Y61698D01*
X191677D01*
X190565Y61238D01*
X190446Y61118D01*
X190422Y61121D01*
X190394Y61112D01*
X190385Y61113D01*
X190363Y61104D01*
X190362Y61104D01*
X190346Y61101D01*
X190168Y61087D01*
X190057Y61085D01*
X189872Y61005D01*
X72593D01*
X67101Y66497D01*
Y136481D01*
X68371Y137160D01*
X68476Y137090D01*
D02*
G37*
G36*
X193783Y58576D02*
X193800Y58490D01*
X193829Y58400D01*
X193870Y58306D01*
X193923Y58208D01*
X193988Y58107D01*
X194065Y58001D01*
X194153Y57892D01*
X194367Y57663D01*
X193289Y56585D01*
X193172Y56698D01*
X192950Y56887D01*
X192845Y56964D01*
X192744Y57029D01*
X192646Y57082D01*
X192552Y57123D01*
X192462Y57152D01*
X192376Y57169D01*
X192293Y57174D01*
X193778Y58659D01*
X193783Y58576D01*
D02*
G37*
%LPC*%
G36*
X299921Y64114D02*
X298718D01*
X297607Y63653D01*
X296756Y62803D01*
X296296Y61691D01*
Y60488D01*
X296756Y59377D01*
X297607Y58526D01*
X298718Y58066D01*
X299921D01*
X301033Y58526D01*
X301883Y59377D01*
X302344Y60488D01*
Y61691D01*
X301883Y62803D01*
X301033Y63653D01*
X299921Y64114D01*
D02*
G37*
%LPD*%
G36*
X347711Y78510D02*
X347529Y78507D01*
X347356Y78496D01*
X347194Y78475D01*
X347041Y78446D01*
X346898Y78407D01*
X346765Y78359D01*
X346642Y78302D01*
X346529Y78237D01*
X346426Y78162D01*
X346333Y78078D01*
X345794Y78617D01*
X345878Y78710D01*
X345953Y78813D01*
X346018Y78926D01*
X346075Y79049D01*
X346123Y79182D01*
X346161Y79325D01*
X346191Y79478D01*
X346212Y79640D01*
X346223Y79813D01*
X346226Y79995D01*
X347711Y78510D01*
D02*
G37*
G36*
X292333Y40697D02*
X292344Y40524D01*
X292365Y40362D01*
X292395Y40209D01*
X292433Y40066D01*
X292481Y39933D01*
X292537Y39810D01*
X292603Y39697D01*
X292678Y39594D01*
X292762Y39501D01*
X292223Y38962D01*
X292130Y39046D01*
X292027Y39121D01*
X291914Y39186D01*
X291791Y39243D01*
X291658Y39291D01*
X291515Y39330D01*
X291362Y39359D01*
X291200Y39380D01*
X291027Y39391D01*
X290845Y39394D01*
X292330Y40879D01*
X292333Y40697D01*
D02*
G37*
G54D11*
X88392Y77470D02*
X153924D01*
X71325Y94537D02*
X88392Y77470D01*
X71325Y94537D02*
Y139495D01*
X63500Y147320D02*
Y156054D01*
Y147320D02*
X71325Y139495D01*
X55590Y163964D02*
X63500Y156054D01*
X11564Y163964D02*
X55590D01*
X0Y152400D02*
X11564Y163964D01*
G54D13*
X64770Y65532D02*
Y138430D01*
X50800Y152400D02*
X64770Y138430D01*
X93472Y135128D02*
X303530D01*
X76200Y152400D02*
X93472Y135128D01*
X64770Y65532D02*
X71628Y58674D01*
X192278D01*
X196596Y54356D01*
X314960D01*
X321820Y61216D01*
X313182Y120619D02*
Y125476D01*
X303530Y135128D02*
X313182Y125476D01*
X101600Y152400D02*
X293878D01*
X316820Y120619D02*
Y129458D01*
X293878Y152400D02*
X316820Y129458D01*
X321820Y61216D02*
Y62249D01*
G54D53*
X332232Y36830D02*
X345694Y50292D01*
Y77978D01*
X347726Y80010D01*
X294894Y36830D02*
X332232D01*
X290830Y40894D02*
X294894Y36830D01*
X313182Y104394D02*
Y120619D01*
Y104394D02*
X315468Y102108D01*
X319272D02*
X321820Y99560D01*
X315468Y102108D02*
X319272D01*
X316820Y104560D02*
Y120619D01*
X321820Y62249D02*
Y79559D01*
G54D59*
X324320Y86267D02*
X321820Y87587D01*
X319320Y86267D01*
X317194Y87564D01*
X314816Y86828D01*
X313792Y84559D01*
X314816Y82289D01*
X317194Y81554D01*
X319320Y82850D01*
X328676Y86951D02*
X326350Y87550D01*
X324320Y86267D01*
X319320Y82850D02*
X320112Y82059D01*
X303528D02*
X304847Y84559D01*
X303879Y86778D01*
X301594Y87579D01*
X299453Y86448D01*
X298825Y84110D01*
X300111Y82059D01*
X304345Y81229D02*
X303528Y82059D01*
X320112D02*
X318817Y79947D01*
X319533Y77575D01*
X309860Y79502D02*
X308842Y81767D01*
X306473Y82509D01*
X304345Y81229D01*
X300111Y82059D02*
X298805Y79846D01*
X299670Y77426D01*
X302083Y76542D01*
X304306Y77832D01*
X306427Y76501D01*
X308825Y77222D01*
X309860Y79502D01*
X293797Y82013D02*
X294874Y84328D01*
X293906Y86548D01*
X291619Y87347D01*
X289478Y86216D01*
X288852Y83876D01*
X290141Y81826D01*
X295120Y79510D02*
X293797Y82013D01*
X300208Y74676D02*
X299068Y77043D01*
X296506Y77628D01*
X294452Y75990D01*
Y73362D01*
X296506Y71724D01*
X299068Y72309D01*
X300208Y74676D01*
X290141Y81826D02*
X289071Y79716D01*
X289845Y77481D01*
X291989Y76484D01*
X294197Y77333D01*
X295120Y79510D01*
X328676Y86951D02*
Y90000D01*
X317636Y81643D02*
X319623D01*
X304623Y85703D02*
X314016D01*
X304715Y83673D02*
X313925D01*
X308973Y81643D02*
X316004D01*
X309858Y79613D02*
X318792D01*
X309174Y77583D02*
X319526D01*
X300078Y75553D02*
X319661D01*
Y70000D02*
Y77386D01*
X299980Y73523D02*
X319661D01*
X295119Y79613D02*
X298792D01*
X298028Y77583D02*
X299525D01*
X140000Y89763D02*
X328676D01*
X140000Y87733D02*
X328676D01*
X140000Y90000D02*
X328676D01*
X294544Y85703D02*
X299016D01*
X294802Y83673D02*
X298924D01*
X294242Y81643D02*
X299622D01*
X140000Y85703D02*
X289148D01*
X140000Y81643D02*
X289942D01*
X140000Y83673D02*
X288890D01*
X294428Y77583D02*
X296332D01*
X140000Y70000D02*
X319661D01*
X140000Y71493D02*
X319661D01*
X140000Y79613D02*
X289066D01*
X140000Y77583D02*
X289757D01*
X140000Y70000D02*
Y90000D01*
Y73523D02*
X294380D01*
X140000Y75553D02*
X294282D01*
G54D61*
X-588Y132354D02*
D03*
Y45954D02*
D03*
G54D62*
X41213D02*
D03*
Y132354D02*
D03*
G54D63*
X25400Y152400D02*
D03*
X50800D02*
D03*
X76200D02*
D03*
X101600D02*
D03*
X0D02*
D03*
G54D64*
X467293Y-7796D02*
D03*
X441893D02*
D03*
X422843Y106504D02*
D03*
X416493Y93805D02*
D03*
X422843Y81104D02*
D03*
X416493Y68404D02*
D03*
X422843Y55704D02*
D03*
X416493Y43004D02*
D03*
Y-7796D02*
D03*
X403793Y17605D02*
D03*
X391093Y170005D02*
D03*
Y119205D02*
D03*
Y-7796D02*
D03*
X384743Y131904D02*
D03*
X378393Y119205D02*
D03*
X365693Y170005D02*
D03*
X372043Y131904D02*
D03*
X365693Y119205D02*
D03*
X372043Y81104D02*
D03*
X365693Y43004D02*
D03*
X372043Y30305D02*
D03*
X365693Y17605D02*
D03*
Y-7796D02*
D03*
X359343Y131904D02*
D03*
X352993Y119205D02*
D03*
X340293Y170005D02*
D03*
X346643Y30305D02*
D03*
X340293Y-7796D02*
D03*
X321243Y157304D02*
D03*
X314893Y-7796D02*
D03*
X308543Y157304D02*
D03*
X289493Y-7796D02*
D03*
X276793Y119205D02*
D03*
X264093Y170005D02*
D03*
Y119205D02*
D03*
Y17605D02*
D03*
Y-7796D02*
D03*
X251393Y119205D02*
D03*
Y43004D02*
D03*
X238693Y119205D02*
D03*
Y43004D02*
D03*
Y17605D02*
D03*
X225993Y119205D02*
D03*
Y43004D02*
D03*
X213293Y170005D02*
D03*
Y43004D02*
D03*
Y17605D02*
D03*
Y-7796D02*
D03*
X200593Y119205D02*
D03*
Y43004D02*
D03*
X187893Y170005D02*
D03*
X194243Y157304D02*
D03*
X187893Y43004D02*
D03*
X194243Y30305D02*
D03*
X187893Y-7796D02*
D03*
X162493Y170005D02*
D03*
X168843Y157304D02*
D03*
X162493Y-7796D02*
D03*
X149793Y119205D02*
D03*
X137093Y170005D02*
D03*
Y119205D02*
D03*
Y-7796D02*
D03*
X124393Y119205D02*
D03*
X111693D02*
D03*
Y-7796D02*
D03*
X86293D02*
D03*
X60893D02*
D03*
X35493Y144605D02*
D03*
Y17605D02*
D03*
Y-7796D02*
D03*
X22793Y119205D02*
D03*
X29143Y106504D02*
D03*
X22793Y93805D02*
D03*
X10093Y144605D02*
D03*
X16443Y131904D02*
D03*
X10093Y119205D02*
D03*
X16443Y106504D02*
D03*
X10093Y93805D02*
D03*
Y-7796D02*
D03*
X-2607Y119205D02*
D03*
X3743Y106504D02*
D03*
X-2607Y93805D02*
D03*
X3743Y81104D02*
D03*
X-2607Y68404D02*
D03*
X3743Y55704D02*
D03*
G54D65*
X257556Y108966D02*
D03*
X252984Y58928D02*
D03*
X349250Y55372D02*
D03*
X375158D02*
D03*
X341376Y59436D02*
D03*
X420624Y113792D02*
D03*
X290830Y40894D02*
D03*
X347726Y80010D02*
D03*
X88257Y93095D02*
D03*
X97790Y65532D02*
D03*
X119888Y87630D02*
D03*
X192278Y58674D02*
D03*
X153924Y73914D02*
D03*
Y77470D02*
D03*
X157226Y73914D02*
D03*
Y77470D02*
D03*
G54D66*
X327152Y89154D02*
D03*
X332994Y76962D02*
D03*
X296819Y84559D02*
D03*
X291846Y74422D02*
D03*
X316820Y79559D02*
D03*
X321820D02*
D03*
X316820Y104560D02*
D03*
X321820Y99560D02*
D03*
G54D67*
X153924Y73914D02*
Y77470D01*
Y73914D02*
X157226D01*
Y77470D01*
X153924D02*
X157226D01*
M02*
