G04*
G04 #@! TF.GenerationSoftware,Altium Limited,Altium Designer,22.8.2 (66)*
G04*
G04 Layer_Physical_Order=3*
G04 Layer_Color=36540*
%FSLAX44Y44*%
%MOMM*%
G71*
G04*
G04 #@! TF.SameCoordinates,5B037859-B446-4BB1-8760-713DD72627CB*
G04*
G04*
G04 #@! TF.FilePolarity,Positive*
G04*
G01*
G75*
%ADD61O,1.8000X1.2000*%
%ADD62O,2.1000X1.2000*%
%ADD63C,1.5000*%
%ADD64C,0.4064*%
%ADD65C,0.3000*%
%ADD66C,0.2500*%
G36*
X487100Y190299D02*
Y190281D01*
X489114Y190015D01*
X490990Y189238D01*
X492602Y188002D01*
X493838Y186390D01*
X494615Y184514D01*
X494881Y182500D01*
X494899D01*
Y169320D01*
X494001Y168422D01*
X486950Y168425D01*
X486610Y169695D01*
X488141Y170579D01*
X489821Y172259D01*
X491009Y174317D01*
X491624Y176612D01*
Y178988D01*
X491009Y181283D01*
X489821Y183341D01*
X488141Y185021D01*
X486083Y186209D01*
X483788Y186824D01*
X481412D01*
X479117Y186209D01*
X477059Y185021D01*
X475379Y183341D01*
X474191Y181283D01*
X473576Y178988D01*
Y176612D01*
X474191Y174317D01*
X475379Y172259D01*
X477059Y170579D01*
X478584Y169699D01*
X478244Y168429D01*
X461568Y168435D01*
X461228Y169706D01*
X462741Y170579D01*
X464421Y172259D01*
X465609Y174317D01*
X466224Y176612D01*
Y178988D01*
X465609Y181283D01*
X464421Y183341D01*
X462741Y185021D01*
X460683Y186209D01*
X458388Y186824D01*
X456012D01*
X453717Y186209D01*
X451659Y185021D01*
X449979Y183341D01*
X448791Y181283D01*
X448176Y178988D01*
Y176612D01*
X448791Y174317D01*
X449979Y172259D01*
X451659Y170579D01*
X453167Y169709D01*
X452826Y168439D01*
X436186Y168445D01*
X435845Y169716D01*
X437341Y170579D01*
X439021Y172259D01*
X440209Y174317D01*
X440824Y176612D01*
Y178988D01*
X440209Y181283D01*
X439021Y183341D01*
X437341Y185021D01*
X435283Y186209D01*
X432988Y186824D01*
X430612D01*
X428317Y186209D01*
X426259Y185021D01*
X424579Y183341D01*
X423391Y181283D01*
X422776Y178988D01*
Y176612D01*
X423391Y174317D01*
X424579Y172259D01*
X426259Y170579D01*
X427749Y169719D01*
X427408Y168449D01*
X425891Y168450D01*
X426098Y8419D01*
X426098Y8419D01*
X426188Y7150D01*
X424579Y5541D01*
X423391Y3483D01*
X422776Y1188D01*
Y-1188D01*
X423391Y-3483D01*
X424579Y-5541D01*
X426259Y-7221D01*
X428317Y-8409D01*
X430612Y-9024D01*
X432988D01*
X435283Y-8409D01*
X437341Y-7221D01*
X439021Y-5541D01*
X440209Y-3483D01*
X440824Y-1188D01*
Y1188D01*
X440209Y3483D01*
X439021Y5541D01*
X437404Y7158D01*
X437424Y7444D01*
X437790Y8428D01*
X451228Y8439D01*
X451593Y7408D01*
X451607Y7169D01*
X449979Y5541D01*
X448791Y3483D01*
X448176Y1188D01*
Y-1188D01*
X448791Y-3483D01*
X449979Y-5541D01*
X451659Y-7221D01*
X453717Y-8409D01*
X456012Y-9024D01*
X458388D01*
X460683Y-8409D01*
X462741Y-7221D01*
X464421Y-5541D01*
X465609Y-3483D01*
X466224Y-1188D01*
Y1188D01*
X465609Y3483D01*
X464421Y5541D01*
X462785Y7177D01*
X462794Y7379D01*
X463157Y8447D01*
X476661Y8458D01*
X477020Y7341D01*
X477026Y7188D01*
X475379Y5541D01*
X474191Y3483D01*
X473576Y1188D01*
Y-1188D01*
X474191Y-3483D01*
X475379Y-5541D01*
X477059Y-7221D01*
X479117Y-8409D01*
X481412Y-9024D01*
X483788D01*
X486083Y-8409D01*
X488141Y-7221D01*
X489821Y-5541D01*
X491009Y-3483D01*
X491624Y-1188D01*
Y1188D01*
X491009Y3483D01*
X489821Y5541D01*
X488165Y7196D01*
X488169Y7311D01*
X488523Y8467D01*
X494000Y8471D01*
X494899Y7573D01*
Y-5000D01*
X494881D01*
X494615Y-7014D01*
X493838Y-8890D01*
X492602Y-10502D01*
X490990Y-11738D01*
X489114Y-12515D01*
X487100Y-12781D01*
Y-12799D01*
X-2900Y-12799D01*
Y-12781D01*
X-4914Y-12515D01*
X-6790Y-11738D01*
X-8402Y-10502D01*
X-9638Y-8890D01*
X-10415Y-7014D01*
X-10681Y-5000D01*
X-10699D01*
Y182500D01*
X-10681D01*
X-10415Y184514D01*
X-9638Y186390D01*
X-8402Y188002D01*
X-6790Y189238D01*
X-4914Y190015D01*
X-2900Y190281D01*
X-2900Y190280D01*
Y190280D01*
X-1630Y190299D01*
X487100Y190299D01*
D02*
G37*
%LPC*%
G36*
X407588Y186824D02*
X405212D01*
X402917Y186209D01*
X400859Y185021D01*
X399179Y183341D01*
X397991Y181283D01*
X397376Y178988D01*
Y176612D01*
X397991Y174317D01*
X399179Y172259D01*
X400859Y170579D01*
X402917Y169391D01*
X405212Y168776D01*
X407588D01*
X409883Y169391D01*
X411941Y170579D01*
X413621Y172259D01*
X414809Y174317D01*
X415424Y176612D01*
Y178988D01*
X414809Y181283D01*
X413621Y183341D01*
X411941Y185021D01*
X409883Y186209D01*
X407588Y186824D01*
D02*
G37*
G36*
X382188D02*
X379812D01*
X377517Y186209D01*
X375459Y185021D01*
X373779Y183341D01*
X372591Y181283D01*
X371976Y178988D01*
Y176612D01*
X372591Y174317D01*
X373779Y172259D01*
X375459Y170579D01*
X377517Y169391D01*
X379812Y168776D01*
X382188D01*
X384483Y169391D01*
X386541Y170579D01*
X388221Y172259D01*
X389409Y174317D01*
X390024Y176612D01*
Y178988D01*
X389409Y181283D01*
X388221Y183341D01*
X386541Y185021D01*
X384483Y186209D01*
X382188Y186824D01*
D02*
G37*
G36*
X356788D02*
X354412D01*
X352117Y186209D01*
X350059Y185021D01*
X348379Y183341D01*
X347191Y181283D01*
X346576Y178988D01*
Y176612D01*
X347191Y174317D01*
X348379Y172259D01*
X350059Y170579D01*
X352117Y169391D01*
X354412Y168776D01*
X356788D01*
X359083Y169391D01*
X361141Y170579D01*
X362821Y172259D01*
X364009Y174317D01*
X364624Y176612D01*
Y178988D01*
X364009Y181283D01*
X362821Y183341D01*
X361141Y185021D01*
X359083Y186209D01*
X356788Y186824D01*
D02*
G37*
G36*
X331388D02*
X329012D01*
X326717Y186209D01*
X324659Y185021D01*
X322979Y183341D01*
X321791Y181283D01*
X321176Y178988D01*
Y176612D01*
X321791Y174317D01*
X322979Y172259D01*
X324659Y170579D01*
X326717Y169391D01*
X329012Y168776D01*
X331388D01*
X333683Y169391D01*
X335741Y170579D01*
X337421Y172259D01*
X338609Y174317D01*
X339224Y176612D01*
Y178988D01*
X338609Y181283D01*
X337421Y183341D01*
X335741Y185021D01*
X333683Y186209D01*
X331388Y186824D01*
D02*
G37*
G36*
X305988D02*
X303612D01*
X301317Y186209D01*
X299259Y185021D01*
X297579Y183341D01*
X296391Y181283D01*
X295776Y178988D01*
Y176612D01*
X296391Y174317D01*
X297579Y172259D01*
X299259Y170579D01*
X301317Y169391D01*
X303612Y168776D01*
X305988D01*
X308283Y169391D01*
X310341Y170579D01*
X312021Y172259D01*
X313209Y174317D01*
X313824Y176612D01*
Y178988D01*
X313209Y181283D01*
X312021Y183341D01*
X310341Y185021D01*
X308283Y186209D01*
X305988Y186824D01*
D02*
G37*
G36*
X280588D02*
X278212D01*
X275917Y186209D01*
X273859Y185021D01*
X272179Y183341D01*
X270991Y181283D01*
X270376Y178988D01*
Y176612D01*
X270991Y174317D01*
X272179Y172259D01*
X273859Y170579D01*
X275917Y169391D01*
X278212Y168776D01*
X280588D01*
X282883Y169391D01*
X284941Y170579D01*
X286621Y172259D01*
X287809Y174317D01*
X288424Y176612D01*
Y178988D01*
X287809Y181283D01*
X286621Y183341D01*
X284941Y185021D01*
X282883Y186209D01*
X280588Y186824D01*
D02*
G37*
G36*
X255188D02*
X252812D01*
X250517Y186209D01*
X248459Y185021D01*
X246779Y183341D01*
X245591Y181283D01*
X244976Y178988D01*
Y176612D01*
X245591Y174317D01*
X246779Y172259D01*
X248459Y170579D01*
X250517Y169391D01*
X252812Y168776D01*
X255188D01*
X257483Y169391D01*
X259541Y170579D01*
X261221Y172259D01*
X262409Y174317D01*
X263024Y176612D01*
Y178988D01*
X262409Y181283D01*
X261221Y183341D01*
X259541Y185021D01*
X257483Y186209D01*
X255188Y186824D01*
D02*
G37*
G36*
X229788D02*
X227412D01*
X225117Y186209D01*
X223059Y185021D01*
X221379Y183341D01*
X220191Y181283D01*
X219576Y178988D01*
Y176612D01*
X220191Y174317D01*
X221379Y172259D01*
X223059Y170579D01*
X225117Y169391D01*
X227412Y168776D01*
X229788D01*
X232083Y169391D01*
X234141Y170579D01*
X235821Y172259D01*
X237009Y174317D01*
X237624Y176612D01*
Y178988D01*
X237009Y181283D01*
X235821Y183341D01*
X234141Y185021D01*
X232083Y186209D01*
X229788Y186824D01*
D02*
G37*
G36*
X204388D02*
X202012D01*
X199717Y186209D01*
X197659Y185021D01*
X195979Y183341D01*
X194791Y181283D01*
X194176Y178988D01*
Y176612D01*
X194791Y174317D01*
X195979Y172259D01*
X197659Y170579D01*
X199717Y169391D01*
X202012Y168776D01*
X204388D01*
X206683Y169391D01*
X208741Y170579D01*
X210421Y172259D01*
X211609Y174317D01*
X212224Y176612D01*
Y178988D01*
X211609Y181283D01*
X210421Y183341D01*
X208741Y185021D01*
X206683Y186209D01*
X204388Y186824D01*
D02*
G37*
G36*
X178988D02*
X176612D01*
X174317Y186209D01*
X172259Y185021D01*
X170579Y183341D01*
X169391Y181283D01*
X168776Y178988D01*
Y176612D01*
X169391Y174317D01*
X170579Y172259D01*
X172259Y170579D01*
X174317Y169391D01*
X176612Y168776D01*
X178988D01*
X181283Y169391D01*
X183341Y170579D01*
X185021Y172259D01*
X186209Y174317D01*
X186824Y176612D01*
Y178988D01*
X186209Y181283D01*
X185021Y183341D01*
X183341Y185021D01*
X181283Y186209D01*
X178988Y186824D01*
D02*
G37*
G36*
X153588D02*
X151212D01*
X148917Y186209D01*
X146859Y185021D01*
X145179Y183341D01*
X143991Y181283D01*
X143376Y178988D01*
Y176612D01*
X143991Y174317D01*
X145179Y172259D01*
X146859Y170579D01*
X148917Y169391D01*
X151212Y168776D01*
X153588D01*
X155883Y169391D01*
X157941Y170579D01*
X159621Y172259D01*
X160809Y174317D01*
X161424Y176612D01*
Y178988D01*
X160809Y181283D01*
X159621Y183341D01*
X157941Y185021D01*
X155883Y186209D01*
X153588Y186824D01*
D02*
G37*
G36*
X128188D02*
X125812D01*
X123517Y186209D01*
X121459Y185021D01*
X119779Y183341D01*
X118591Y181283D01*
X117976Y178988D01*
Y176612D01*
X118591Y174317D01*
X119779Y172259D01*
X121459Y170579D01*
X123517Y169391D01*
X125812Y168776D01*
X128188D01*
X130483Y169391D01*
X132541Y170579D01*
X134221Y172259D01*
X135409Y174317D01*
X136024Y176612D01*
Y178988D01*
X135409Y181283D01*
X134221Y183341D01*
X132541Y185021D01*
X130483Y186209D01*
X128188Y186824D01*
D02*
G37*
G36*
X102788D02*
X100412D01*
X98117Y186209D01*
X96059Y185021D01*
X94379Y183341D01*
X93191Y181283D01*
X92576Y178988D01*
Y176612D01*
X93191Y174317D01*
X94379Y172259D01*
X96059Y170579D01*
X98117Y169391D01*
X100412Y168776D01*
X102788D01*
X105083Y169391D01*
X107141Y170579D01*
X108821Y172259D01*
X110009Y174317D01*
X110624Y176612D01*
Y178988D01*
X110009Y181283D01*
X108821Y183341D01*
X107141Y185021D01*
X105083Y186209D01*
X102788Y186824D01*
D02*
G37*
G36*
X77388D02*
X75012D01*
X72717Y186209D01*
X70659Y185021D01*
X68979Y183341D01*
X67791Y181283D01*
X67176Y178988D01*
Y176612D01*
X67791Y174317D01*
X68979Y172259D01*
X70659Y170579D01*
X72717Y169391D01*
X75012Y168776D01*
X77388D01*
X79683Y169391D01*
X81741Y170579D01*
X83421Y172259D01*
X84609Y174317D01*
X85224Y176612D01*
Y178988D01*
X84609Y181283D01*
X83421Y183341D01*
X81741Y185021D01*
X79683Y186209D01*
X77388Y186824D01*
D02*
G37*
G36*
X51988D02*
X49612D01*
X47317Y186209D01*
X45259Y185021D01*
X43579Y183341D01*
X42391Y181283D01*
X41776Y178988D01*
Y176612D01*
X42391Y174317D01*
X43579Y172259D01*
X45259Y170579D01*
X47317Y169391D01*
X49612Y168776D01*
X51988D01*
X54283Y169391D01*
X56341Y170579D01*
X58021Y172259D01*
X59209Y174317D01*
X59824Y176612D01*
Y178988D01*
X59209Y181283D01*
X58021Y183341D01*
X56341Y185021D01*
X54283Y186209D01*
X51988Y186824D01*
D02*
G37*
G36*
X26588D02*
X24212D01*
X21917Y186209D01*
X19859Y185021D01*
X18179Y183341D01*
X16991Y181283D01*
X16376Y178988D01*
Y176612D01*
X16991Y174317D01*
X18179Y172259D01*
X19859Y170579D01*
X21917Y169391D01*
X24212Y168776D01*
X26588D01*
X28883Y169391D01*
X30941Y170579D01*
X32621Y172259D01*
X33809Y174317D01*
X34424Y176612D01*
Y178988D01*
X33809Y181283D01*
X32621Y183341D01*
X30941Y185021D01*
X28883Y186209D01*
X26588Y186824D01*
D02*
G37*
G36*
X1188D02*
X-1188D01*
X-3483Y186209D01*
X-5541Y185021D01*
X-7221Y183341D01*
X-8409Y181283D01*
X-9024Y178988D01*
Y176612D01*
X-8409Y174317D01*
X-7221Y172259D01*
X-5541Y170579D01*
X-3483Y169391D01*
X-1188Y168776D01*
X1188D01*
X3483Y169391D01*
X5541Y170579D01*
X7221Y172259D01*
X8409Y174317D01*
X9024Y176612D01*
Y178988D01*
X8409Y181283D01*
X7221Y183341D01*
X5541Y185021D01*
X3483Y186209D01*
X1188Y186824D01*
D02*
G37*
G36*
X102788Y161424D02*
X100412D01*
X98117Y160809D01*
X96059Y159621D01*
X94379Y157941D01*
X93191Y155883D01*
X92576Y153588D01*
Y151212D01*
X93191Y148917D01*
X94379Y146859D01*
X96059Y145179D01*
X98117Y143991D01*
X100412Y143376D01*
X102788D01*
X105083Y143991D01*
X107141Y145179D01*
X108821Y146859D01*
X110009Y148917D01*
X110624Y151212D01*
Y153588D01*
X110009Y155883D01*
X108821Y157941D01*
X107141Y159621D01*
X105083Y160809D01*
X102788Y161424D01*
D02*
G37*
G36*
X77388D02*
X75012D01*
X72717Y160809D01*
X70659Y159621D01*
X68979Y157941D01*
X67791Y155883D01*
X67176Y153588D01*
Y151212D01*
X67791Y148917D01*
X68979Y146859D01*
X70659Y145179D01*
X72717Y143991D01*
X75012Y143376D01*
X77388D01*
X79683Y143991D01*
X81741Y145179D01*
X83421Y146859D01*
X84609Y148917D01*
X85224Y151212D01*
Y153588D01*
X84609Y155883D01*
X83421Y157941D01*
X81741Y159621D01*
X79683Y160809D01*
X77388Y161424D01*
D02*
G37*
G36*
X51988D02*
X49612D01*
X47317Y160809D01*
X45259Y159621D01*
X43579Y157941D01*
X42391Y155883D01*
X41776Y153588D01*
Y151212D01*
X42391Y148917D01*
X43579Y146859D01*
X45259Y145179D01*
X47317Y143991D01*
X49612Y143376D01*
X51988D01*
X54283Y143991D01*
X56341Y145179D01*
X58021Y146859D01*
X59209Y148917D01*
X59824Y151212D01*
Y153588D01*
X59209Y155883D01*
X58021Y157941D01*
X56341Y159621D01*
X54283Y160809D01*
X51988Y161424D01*
D02*
G37*
G36*
X1188D02*
X-1188D01*
X-3483Y160809D01*
X-5541Y159621D01*
X-7221Y157941D01*
X-8409Y155883D01*
X-9024Y153588D01*
Y151212D01*
X-8409Y148917D01*
X-7221Y146859D01*
X-5541Y145179D01*
X-3483Y143991D01*
X-1188Y143376D01*
X1188D01*
X3483Y143991D01*
X5541Y145179D01*
X7221Y146859D01*
X8409Y148917D01*
X9024Y151212D01*
Y153588D01*
X8409Y155883D01*
X7221Y157941D01*
X5541Y159621D01*
X3483Y160809D01*
X1188Y161424D01*
D02*
G37*
G36*
X36911Y123078D02*
X34913D01*
X33066Y122313D01*
X31653Y120900D01*
X30888Y119053D01*
Y117055D01*
X31653Y115208D01*
X33066Y113795D01*
X34913Y113030D01*
X36911D01*
X38758Y113795D01*
X40171Y115208D01*
X40936Y117055D01*
Y119053D01*
X40171Y120900D01*
X38758Y122313D01*
X36911Y123078D01*
D02*
G37*
G36*
X332378Y106660D02*
X331578D01*
X330838Y106354D01*
X330272Y105788D01*
X330076Y105313D01*
X330016Y105168D01*
X329780Y105127D01*
X329428Y105101D01*
X328746Y105168D01*
X328686Y105312D01*
X328526Y105699D01*
X327960Y106265D01*
X327220Y106572D01*
X326420D01*
X325680Y106265D01*
X325114Y105699D01*
X325005Y105436D01*
X323635D01*
X323526Y105699D01*
X322960Y106265D01*
X322220Y106572D01*
X321420D01*
X320680Y106265D01*
X320114Y105699D01*
X320005Y105436D01*
X318635D01*
X318526Y105699D01*
X317960Y106265D01*
X317220Y106572D01*
X316420D01*
X315680Y106265D01*
X315114Y105699D01*
X314808Y104960D01*
Y104159D01*
X315114Y103420D01*
X315680Y102854D01*
X315943Y102745D01*
Y101374D01*
X315680Y101265D01*
X315114Y100699D01*
X314808Y99960D01*
Y99159D01*
X315114Y98420D01*
X315680Y97854D01*
X315943Y97745D01*
Y96374D01*
X315680Y96265D01*
X315114Y95699D01*
X314808Y94960D01*
Y94159D01*
X315114Y93420D01*
X315680Y92854D01*
X316420Y92548D01*
X317220D01*
X317960Y92854D01*
X318526Y93420D01*
X318635Y93683D01*
X320005D01*
X320114Y93420D01*
X320680Y92854D01*
X321420Y92548D01*
X322220D01*
X322960Y92854D01*
X323526Y93420D01*
X323679Y93790D01*
X325005Y93834D01*
X325159Y93464D01*
X325725Y92898D01*
X326464Y92592D01*
X327265D01*
X328004Y92898D01*
X328570Y93464D01*
X328785Y93931D01*
X328785Y93931D01*
Y93931D01*
X329103Y93973D01*
X330050Y93886D01*
X330272Y93348D01*
X330838Y92782D01*
X331578Y92476D01*
X332378D01*
X333118Y92782D01*
X333684Y93348D01*
X333990Y94088D01*
Y94888D01*
X333684Y95628D01*
X333118Y96194D01*
X332636Y96393D01*
X332468Y97333D01*
X332509Y97716D01*
X332864Y97862D01*
X333430Y98428D01*
X333736Y99168D01*
Y99968D01*
X333430Y100708D01*
X332864Y101274D01*
X332509Y101420D01*
X332468Y101803D01*
X332636Y102743D01*
X333118Y102942D01*
X333684Y103508D01*
X333990Y104248D01*
Y105048D01*
X333684Y105788D01*
X333118Y106354D01*
X332378Y106660D01*
D02*
G37*
G36*
X287420D02*
X286620D01*
X285880Y106354D01*
X285314Y105788D01*
X285008Y105048D01*
Y104248D01*
X285314Y103508D01*
X285880Y102942D01*
X286620Y102636D01*
X287420D01*
X288160Y102942D01*
X288726Y103508D01*
X290089Y103480D01*
X290114Y103420D01*
X290679Y102854D01*
X290799Y102805D01*
Y101430D01*
X290679Y101381D01*
X290114Y100815D01*
X289807Y100075D01*
Y99275D01*
X290114Y98535D01*
X290679Y97969D01*
X291203Y97752D01*
X291221Y97655D01*
Y96580D01*
X291203Y96482D01*
X290679Y96265D01*
X290114Y95699D01*
X289951Y95308D01*
X288634Y95236D01*
X288472Y95628D01*
X287906Y96194D01*
X287166Y96500D01*
X286366D01*
X285626Y96194D01*
X285060Y95628D01*
X284754Y94888D01*
Y94088D01*
X285060Y93348D01*
X285626Y92782D01*
X286366Y92476D01*
X287166D01*
X287906Y92782D01*
X288472Y93348D01*
X288634Y93740D01*
X289951Y93812D01*
X290114Y93420D01*
X290679Y92854D01*
X291419Y92548D01*
X292219D01*
X292959Y92854D01*
X293525Y93420D01*
X293634Y93683D01*
X295005D01*
X295114Y93420D01*
X295679Y92854D01*
X296419Y92548D01*
X297219D01*
X297959Y92854D01*
X298525Y93420D01*
X298634Y93683D01*
X300005D01*
X300114Y93420D01*
X300679Y92854D01*
X301419Y92548D01*
X302219D01*
X302959Y92854D01*
X303525Y93420D01*
X303634Y93683D01*
X305005D01*
X305114Y93420D01*
X305679Y92854D01*
X306419Y92548D01*
X307219D01*
X307959Y92854D01*
X308525Y93420D01*
X308831Y94159D01*
Y94960D01*
X308525Y95699D01*
X307959Y96265D01*
X307696Y96374D01*
Y97745D01*
X307959Y97854D01*
X308525Y98420D01*
X308831Y99159D01*
Y99960D01*
X308525Y100699D01*
X307959Y101265D01*
X307696Y101374D01*
Y102745D01*
X307959Y102854D01*
X308525Y103420D01*
X308831Y104159D01*
Y104960D01*
X308525Y105699D01*
X307959Y106265D01*
X307219Y106572D01*
X306419D01*
X305679Y106265D01*
X305114Y105699D01*
X305005Y105436D01*
X303634D01*
X303525Y105699D01*
X302959Y106265D01*
X302219Y106572D01*
X301419D01*
X300679Y106265D01*
X300114Y105699D01*
X300005Y105436D01*
X298634D01*
X298525Y105699D01*
X297959Y106265D01*
X297219Y106572D01*
X296419D01*
X295679Y106265D01*
X295114Y105699D01*
X295005Y105436D01*
X293634D01*
X293525Y105699D01*
X292959Y106265D01*
X292219Y106572D01*
X291419D01*
X290679Y106265D01*
X290114Y105699D01*
X288751Y105728D01*
X288726Y105788D01*
X288160Y106354D01*
X287420Y106660D01*
D02*
G37*
G36*
X302219Y86571D02*
X301419D01*
X300679Y86265D01*
X300114Y85699D01*
X300005Y85435D01*
X298634D01*
X298525Y85699D01*
X297959Y86265D01*
X297219Y86571D01*
X296419D01*
X295679Y86265D01*
X295114Y85699D01*
X294807Y84959D01*
Y84159D01*
X295114Y83419D01*
X295679Y82853D01*
X296419Y82547D01*
X297219D01*
X297959Y82853D01*
X298525Y83419D01*
X298634Y83682D01*
X300005D01*
X300114Y83419D01*
X300679Y82853D01*
X300943Y82744D01*
Y81374D01*
X300679Y81265D01*
X300114Y80699D01*
X299807Y79959D01*
Y79159D01*
X300114Y78419D01*
X300679Y77853D01*
X301419Y77547D01*
X302219D01*
X302959Y77853D01*
X303525Y78419D01*
X303831Y79159D01*
Y79959D01*
X303525Y80699D01*
X302959Y81265D01*
X302696Y81374D01*
Y82744D01*
X302959Y82853D01*
X303525Y83419D01*
X303831Y84159D01*
Y84959D01*
X303525Y85699D01*
X302959Y86265D01*
X302219Y86571D01*
D02*
G37*
G36*
X327552Y91166D02*
X326752D01*
X326012Y90860D01*
X325446Y90294D01*
X325140Y89554D01*
Y88754D01*
X325446Y88014D01*
X325780Y87681D01*
X325748Y86506D01*
X325680Y86265D01*
X325114Y85699D01*
X325005Y85435D01*
X323635D01*
X323526Y85699D01*
X322960Y86265D01*
X322220Y86571D01*
X321420D01*
X320680Y86265D01*
X320114Y85699D01*
X320005Y85435D01*
X318635D01*
X318526Y85699D01*
X317960Y86265D01*
X317220Y86571D01*
X316420D01*
X315680Y86265D01*
X315114Y85699D01*
X314808Y84959D01*
Y84159D01*
X315114Y83419D01*
X315680Y82853D01*
X315943Y82744D01*
Y81374D01*
X315680Y81265D01*
X315114Y80699D01*
X314808Y79959D01*
Y79159D01*
X315114Y78419D01*
X315680Y77853D01*
X316420Y77547D01*
X317220D01*
X317960Y77853D01*
X318526Y78419D01*
X318635Y78682D01*
X320005D01*
X320114Y78419D01*
X320680Y77853D01*
X321420Y77547D01*
X322220D01*
X322960Y77853D01*
X323526Y78419D01*
X323832Y79159D01*
Y79959D01*
X323526Y80699D01*
X322960Y81265D01*
X322697Y81374D01*
Y82744D01*
X322960Y82853D01*
X323526Y83419D01*
X323635Y83682D01*
X325005D01*
X325114Y83419D01*
X325680Y82853D01*
X326420Y82547D01*
X327220D01*
X327960Y82853D01*
X328526Y83419D01*
X328832Y84159D01*
Y84959D01*
X328526Y85699D01*
X328192Y86032D01*
X328224Y87207D01*
X328292Y87448D01*
X328858Y88014D01*
X329164Y88754D01*
Y89554D01*
X328858Y90294D01*
X328292Y90860D01*
X327552Y91166D01*
D02*
G37*
G36*
X157828Y80494D02*
X156624D01*
X155575Y80059D01*
X154525Y80494D01*
X153322D01*
X152211Y80034D01*
X151360Y79183D01*
X150900Y78071D01*
Y76869D01*
X151360Y75757D01*
X151425Y75692D01*
X151360Y75627D01*
X150900Y74516D01*
Y73313D01*
X151360Y72201D01*
X152211Y71350D01*
X153322Y70890D01*
X154525D01*
X155575Y71325D01*
X156624Y70890D01*
X157828D01*
X158939Y71350D01*
X159790Y72201D01*
X160250Y73313D01*
Y74516D01*
X159790Y75627D01*
X159725Y75692D01*
X159790Y75757D01*
X160250Y76869D01*
Y78071D01*
X159790Y79183D01*
X158939Y80034D01*
X157828Y80494D01*
D02*
G37*
G36*
X348327Y83034D02*
X347124D01*
X346013Y82574D01*
X345162Y81723D01*
X344702Y80611D01*
Y79408D01*
X345162Y78297D01*
X346013Y77446D01*
X347124Y76986D01*
X348327D01*
X349439Y77446D01*
X350290Y78297D01*
X350750Y79408D01*
Y80611D01*
X350290Y81723D01*
X349439Y82574D01*
X348327Y83034D01*
D02*
G37*
G36*
X292493Y81523D02*
X291692D01*
X290953Y81216D01*
X290387Y80650D01*
X290080Y79911D01*
Y79110D01*
X290387Y78371D01*
X290953Y77805D01*
X291321Y77652D01*
X291363Y77245D01*
X291195Y76330D01*
X290706Y76128D01*
X290140Y75562D01*
X289834Y74822D01*
Y74022D01*
X290140Y73282D01*
X290706Y72716D01*
X291446Y72410D01*
X292246D01*
X292986Y72716D01*
X293552Y73282D01*
X293858Y74022D01*
Y74822D01*
X293552Y75562D01*
X292986Y76128D01*
X292617Y76280D01*
X292576Y76688D01*
X292744Y77603D01*
X293232Y77805D01*
X293798Y78371D01*
X294104Y79110D01*
Y79911D01*
X293798Y80650D01*
X293232Y81216D01*
X292493Y81523D01*
D02*
G37*
G36*
X299921Y64114D02*
X298718D01*
X297607Y63653D01*
X296756Y62803D01*
X296296Y61691D01*
Y60488D01*
X296756Y59377D01*
X297607Y58526D01*
X298718Y58066D01*
X299921D01*
X301033Y58526D01*
X301883Y59377D01*
X302344Y60488D01*
Y61691D01*
X301883Y62803D01*
X301033Y63653D01*
X299921Y64114D01*
D02*
G37*
G36*
X192880Y61698D02*
X191677D01*
X190565Y61238D01*
X189714Y60387D01*
X189254Y59275D01*
Y58073D01*
X189714Y56961D01*
X190565Y56110D01*
X191677Y55650D01*
X192880D01*
X193991Y56110D01*
X194842Y56961D01*
X195302Y58073D01*
Y59275D01*
X194842Y60387D01*
X193991Y61238D01*
X192880Y61698D01*
D02*
G37*
G36*
X36911Y65278D02*
X34913D01*
X33066Y64513D01*
X31653Y63100D01*
X30888Y61253D01*
Y59254D01*
X31653Y57408D01*
X33066Y55995D01*
X34913Y55230D01*
X36911D01*
X38758Y55995D01*
X40171Y57408D01*
X40936Y59254D01*
Y61253D01*
X40171Y63100D01*
X38758Y64513D01*
X36911Y65278D01*
D02*
G37*
G36*
X301847Y45388D02*
X300644D01*
X299533Y44928D01*
X298682Y44077D01*
X298222Y42965D01*
Y41762D01*
X298682Y40651D01*
X299533Y39800D01*
X300644Y39340D01*
X301847D01*
X302959Y39800D01*
X303810Y40651D01*
X304270Y41762D01*
Y42965D01*
X303810Y44077D01*
X302959Y44928D01*
X301847Y45388D01*
D02*
G37*
G36*
X291432Y43918D02*
X290229D01*
X289117Y43458D01*
X288266Y42607D01*
X287806Y41495D01*
Y40293D01*
X288266Y39181D01*
X289117Y38330D01*
X290229Y37870D01*
X291432D01*
X292543Y38330D01*
X293394Y39181D01*
X293854Y40293D01*
Y41495D01*
X293394Y42607D01*
X292543Y43458D01*
X291432Y43918D01*
D02*
G37*
G36*
X178988Y34424D02*
X176612D01*
X174317Y33809D01*
X172259Y32621D01*
X170579Y30941D01*
X169391Y28883D01*
X168776Y26588D01*
Y24212D01*
X169391Y21917D01*
X170579Y19859D01*
X172259Y18179D01*
X174317Y16991D01*
X176612Y16376D01*
X178988D01*
X181283Y16991D01*
X183341Y18179D01*
X185021Y19859D01*
X186209Y21917D01*
X186824Y24212D01*
Y26588D01*
X186209Y28883D01*
X185021Y30941D01*
X183341Y32621D01*
X181283Y33809D01*
X178988Y34424D01*
D02*
G37*
G36*
X153588D02*
X151212D01*
X148917Y33809D01*
X146859Y32621D01*
X145179Y30941D01*
X143991Y28883D01*
X143376Y26588D01*
Y24212D01*
X143991Y21917D01*
X145179Y19859D01*
X146859Y18179D01*
X148917Y16991D01*
X151212Y16376D01*
X153588D01*
X155883Y16991D01*
X157941Y18179D01*
X159621Y19859D01*
X160809Y21917D01*
X161424Y24212D01*
Y26588D01*
X160809Y28883D01*
X159621Y30941D01*
X157941Y32621D01*
X155883Y33809D01*
X153588Y34424D01*
D02*
G37*
G36*
X128188D02*
X125812D01*
X123517Y33809D01*
X121459Y32621D01*
X119779Y30941D01*
X118591Y28883D01*
X117976Y26588D01*
Y24212D01*
X118591Y21917D01*
X119779Y19859D01*
X121459Y18179D01*
X123517Y16991D01*
X125812Y16376D01*
X128188D01*
X130483Y16991D01*
X132541Y18179D01*
X134221Y19859D01*
X135409Y21917D01*
X136024Y24212D01*
Y26588D01*
X135409Y28883D01*
X134221Y30941D01*
X132541Y32621D01*
X130483Y33809D01*
X128188Y34424D01*
D02*
G37*
G36*
X102788D02*
X100412D01*
X98117Y33809D01*
X96059Y32621D01*
X94379Y30941D01*
X93191Y28883D01*
X92576Y26588D01*
Y24212D01*
X93191Y21917D01*
X94379Y19859D01*
X96059Y18179D01*
X98117Y16991D01*
X100412Y16376D01*
X102788D01*
X105083Y16991D01*
X107141Y18179D01*
X108821Y19859D01*
X110009Y21917D01*
X110624Y24212D01*
Y26588D01*
X110009Y28883D01*
X108821Y30941D01*
X107141Y32621D01*
X105083Y33809D01*
X102788Y34424D01*
D02*
G37*
G36*
X77388D02*
X75012D01*
X72717Y33809D01*
X70659Y32621D01*
X68979Y30941D01*
X67791Y28883D01*
X67176Y26588D01*
Y24212D01*
X67791Y21917D01*
X68979Y19859D01*
X70659Y18179D01*
X72717Y16991D01*
X75012Y16376D01*
X77388D01*
X79683Y16991D01*
X81741Y18179D01*
X83421Y19859D01*
X84609Y21917D01*
X85224Y24212D01*
Y26588D01*
X84609Y28883D01*
X83421Y30941D01*
X81741Y32621D01*
X79683Y33809D01*
X77388Y34424D01*
D02*
G37*
G36*
X51988D02*
X49612D01*
X47317Y33809D01*
X45259Y32621D01*
X43579Y30941D01*
X42391Y28883D01*
X41776Y26588D01*
Y24212D01*
X42391Y21917D01*
X43579Y19859D01*
X45259Y18179D01*
X47317Y16991D01*
X49612Y16376D01*
X51988D01*
X54283Y16991D01*
X56341Y18179D01*
X58021Y19859D01*
X59209Y21917D01*
X59824Y24212D01*
Y26588D01*
X59209Y28883D01*
X58021Y30941D01*
X56341Y32621D01*
X54283Y33809D01*
X51988Y34424D01*
D02*
G37*
G36*
X26588D02*
X24212D01*
X21917Y33809D01*
X19859Y32621D01*
X18179Y30941D01*
X16991Y28883D01*
X16376Y26588D01*
Y24212D01*
X16991Y21917D01*
X18179Y19859D01*
X19859Y18179D01*
X21917Y16991D01*
X24212Y16376D01*
X26588D01*
X28883Y16991D01*
X30941Y18179D01*
X32621Y19859D01*
X33809Y21917D01*
X34424Y24212D01*
Y26588D01*
X33809Y28883D01*
X32621Y30941D01*
X30941Y32621D01*
X28883Y33809D01*
X26588Y34424D01*
D02*
G37*
G36*
X1188D02*
X-1188D01*
X-3483Y33809D01*
X-5541Y32621D01*
X-7221Y30941D01*
X-8409Y28883D01*
X-9024Y26588D01*
Y24212D01*
X-8409Y21917D01*
X-7221Y19859D01*
X-5541Y18179D01*
X-3483Y16991D01*
X-1188Y16376D01*
X1188D01*
X3483Y16991D01*
X5541Y18179D01*
X7221Y19859D01*
X8409Y21917D01*
X9024Y24212D01*
Y26588D01*
X8409Y28883D01*
X7221Y30941D01*
X5541Y32621D01*
X3483Y33809D01*
X1188Y34424D01*
D02*
G37*
G36*
X407588Y9024D02*
X405212D01*
X402917Y8409D01*
X400859Y7221D01*
X399179Y5541D01*
X397991Y3483D01*
X397376Y1188D01*
Y-1188D01*
X397991Y-3483D01*
X399179Y-5541D01*
X400859Y-7221D01*
X402917Y-8409D01*
X405212Y-9024D01*
X407588D01*
X409883Y-8409D01*
X411941Y-7221D01*
X413621Y-5541D01*
X414809Y-3483D01*
X415424Y-1188D01*
Y1188D01*
X414809Y3483D01*
X413621Y5541D01*
X411941Y7221D01*
X409883Y8409D01*
X407588Y9024D01*
D02*
G37*
G36*
X382188D02*
X379812D01*
X377517Y8409D01*
X375459Y7221D01*
X373779Y5541D01*
X372591Y3483D01*
X371976Y1188D01*
Y-1188D01*
X372591Y-3483D01*
X373779Y-5541D01*
X375459Y-7221D01*
X377517Y-8409D01*
X379812Y-9024D01*
X382188D01*
X384483Y-8409D01*
X386541Y-7221D01*
X388221Y-5541D01*
X389409Y-3483D01*
X390024Y-1188D01*
Y1188D01*
X389409Y3483D01*
X388221Y5541D01*
X386541Y7221D01*
X384483Y8409D01*
X382188Y9024D01*
D02*
G37*
G36*
X356788D02*
X354412D01*
X352117Y8409D01*
X350059Y7221D01*
X348379Y5541D01*
X347191Y3483D01*
X346576Y1188D01*
Y-1188D01*
X347191Y-3483D01*
X348379Y-5541D01*
X350059Y-7221D01*
X352117Y-8409D01*
X354412Y-9024D01*
X356788D01*
X359083Y-8409D01*
X361141Y-7221D01*
X362821Y-5541D01*
X364009Y-3483D01*
X364624Y-1188D01*
Y1188D01*
X364009Y3483D01*
X362821Y5541D01*
X361141Y7221D01*
X359083Y8409D01*
X356788Y9024D01*
D02*
G37*
G36*
X331388D02*
X329012D01*
X326717Y8409D01*
X324659Y7221D01*
X322979Y5541D01*
X321791Y3483D01*
X321176Y1188D01*
Y-1188D01*
X321791Y-3483D01*
X322979Y-5541D01*
X324659Y-7221D01*
X326717Y-8409D01*
X329012Y-9024D01*
X331388D01*
X333683Y-8409D01*
X335741Y-7221D01*
X337421Y-5541D01*
X338609Y-3483D01*
X339224Y-1188D01*
Y1188D01*
X338609Y3483D01*
X337421Y5541D01*
X335741Y7221D01*
X333683Y8409D01*
X331388Y9024D01*
D02*
G37*
G36*
X305988D02*
X303612D01*
X301317Y8409D01*
X299259Y7221D01*
X297579Y5541D01*
X296391Y3483D01*
X295776Y1188D01*
Y-1188D01*
X296391Y-3483D01*
X297579Y-5541D01*
X299259Y-7221D01*
X301317Y-8409D01*
X303612Y-9024D01*
X305988D01*
X308283Y-8409D01*
X310341Y-7221D01*
X312021Y-5541D01*
X313209Y-3483D01*
X313824Y-1188D01*
Y1188D01*
X313209Y3483D01*
X312021Y5541D01*
X310341Y7221D01*
X308283Y8409D01*
X305988Y9024D01*
D02*
G37*
G36*
X280588D02*
X278212D01*
X275917Y8409D01*
X273859Y7221D01*
X272179Y5541D01*
X270991Y3483D01*
X270376Y1188D01*
Y-1188D01*
X270991Y-3483D01*
X272179Y-5541D01*
X273859Y-7221D01*
X275917Y-8409D01*
X278212Y-9024D01*
X280588D01*
X282883Y-8409D01*
X284941Y-7221D01*
X286621Y-5541D01*
X287809Y-3483D01*
X288424Y-1188D01*
Y1188D01*
X287809Y3483D01*
X286621Y5541D01*
X284941Y7221D01*
X282883Y8409D01*
X280588Y9024D01*
D02*
G37*
G36*
X255188D02*
X252812D01*
X250517Y8409D01*
X248459Y7221D01*
X246779Y5541D01*
X245591Y3483D01*
X244976Y1188D01*
Y-1188D01*
X245591Y-3483D01*
X246779Y-5541D01*
X248459Y-7221D01*
X250517Y-8409D01*
X252812Y-9024D01*
X255188D01*
X257483Y-8409D01*
X259541Y-7221D01*
X261221Y-5541D01*
X262409Y-3483D01*
X263024Y-1188D01*
Y1188D01*
X262409Y3483D01*
X261221Y5541D01*
X259541Y7221D01*
X257483Y8409D01*
X255188Y9024D01*
D02*
G37*
G36*
X229788D02*
X227412D01*
X225117Y8409D01*
X223059Y7221D01*
X221379Y5541D01*
X220191Y3483D01*
X219576Y1188D01*
Y-1188D01*
X220191Y-3483D01*
X221379Y-5541D01*
X223059Y-7221D01*
X225117Y-8409D01*
X227412Y-9024D01*
X229788D01*
X232083Y-8409D01*
X234141Y-7221D01*
X235821Y-5541D01*
X237009Y-3483D01*
X237624Y-1188D01*
Y1188D01*
X237009Y3483D01*
X235821Y5541D01*
X234141Y7221D01*
X232083Y8409D01*
X229788Y9024D01*
D02*
G37*
G36*
X204388D02*
X202012D01*
X199717Y8409D01*
X197659Y7221D01*
X195979Y5541D01*
X194791Y3483D01*
X194176Y1188D01*
Y-1188D01*
X194791Y-3483D01*
X195979Y-5541D01*
X197659Y-7221D01*
X199717Y-8409D01*
X202012Y-9024D01*
X204388D01*
X206683Y-8409D01*
X208741Y-7221D01*
X210421Y-5541D01*
X211609Y-3483D01*
X212224Y-1188D01*
Y1188D01*
X211609Y3483D01*
X210421Y5541D01*
X208741Y7221D01*
X206683Y8409D01*
X204388Y9024D01*
D02*
G37*
G36*
X178988D02*
X176612D01*
X174317Y8409D01*
X172259Y7221D01*
X170579Y5541D01*
X169391Y3483D01*
X168776Y1188D01*
Y-1188D01*
X169391Y-3483D01*
X170579Y-5541D01*
X172259Y-7221D01*
X174317Y-8409D01*
X176612Y-9024D01*
X178988D01*
X181283Y-8409D01*
X183341Y-7221D01*
X185021Y-5541D01*
X186209Y-3483D01*
X186824Y-1188D01*
Y1188D01*
X186209Y3483D01*
X185021Y5541D01*
X183341Y7221D01*
X181283Y8409D01*
X178988Y9024D01*
D02*
G37*
G36*
X153588D02*
X151212D01*
X148917Y8409D01*
X146859Y7221D01*
X145179Y5541D01*
X143991Y3483D01*
X143376Y1188D01*
Y-1188D01*
X143991Y-3483D01*
X145179Y-5541D01*
X146859Y-7221D01*
X148917Y-8409D01*
X151212Y-9024D01*
X153588D01*
X155883Y-8409D01*
X157941Y-7221D01*
X159621Y-5541D01*
X160809Y-3483D01*
X161424Y-1188D01*
Y1188D01*
X160809Y3483D01*
X159621Y5541D01*
X157941Y7221D01*
X155883Y8409D01*
X153588Y9024D01*
D02*
G37*
G36*
X128188D02*
X125812D01*
X123517Y8409D01*
X121459Y7221D01*
X119779Y5541D01*
X118591Y3483D01*
X117976Y1188D01*
Y-1188D01*
X118591Y-3483D01*
X119779Y-5541D01*
X121459Y-7221D01*
X123517Y-8409D01*
X125812Y-9024D01*
X128188D01*
X130483Y-8409D01*
X132541Y-7221D01*
X134221Y-5541D01*
X135409Y-3483D01*
X136024Y-1188D01*
Y1188D01*
X135409Y3483D01*
X134221Y5541D01*
X132541Y7221D01*
X130483Y8409D01*
X128188Y9024D01*
D02*
G37*
G36*
X102788D02*
X100412D01*
X98117Y8409D01*
X96059Y7221D01*
X94379Y5541D01*
X93191Y3483D01*
X92576Y1188D01*
Y-1188D01*
X93191Y-3483D01*
X94379Y-5541D01*
X96059Y-7221D01*
X98117Y-8409D01*
X100412Y-9024D01*
X102788D01*
X105083Y-8409D01*
X107141Y-7221D01*
X108821Y-5541D01*
X110009Y-3483D01*
X110624Y-1188D01*
Y1188D01*
X110009Y3483D01*
X108821Y5541D01*
X107141Y7221D01*
X105083Y8409D01*
X102788Y9024D01*
D02*
G37*
G36*
X77388D02*
X75012D01*
X72717Y8409D01*
X70659Y7221D01*
X68979Y5541D01*
X67791Y3483D01*
X67176Y1188D01*
Y-1188D01*
X67791Y-3483D01*
X68979Y-5541D01*
X70659Y-7221D01*
X72717Y-8409D01*
X75012Y-9024D01*
X77388D01*
X79683Y-8409D01*
X81741Y-7221D01*
X83421Y-5541D01*
X84609Y-3483D01*
X85224Y-1188D01*
Y1188D01*
X84609Y3483D01*
X83421Y5541D01*
X81741Y7221D01*
X79683Y8409D01*
X77388Y9024D01*
D02*
G37*
G36*
X51988D02*
X49612D01*
X47317Y8409D01*
X45259Y7221D01*
X43579Y5541D01*
X42391Y3483D01*
X41776Y1188D01*
Y-1188D01*
X42391Y-3483D01*
X43579Y-5541D01*
X45259Y-7221D01*
X47317Y-8409D01*
X49612Y-9024D01*
X51988D01*
X54283Y-8409D01*
X56341Y-7221D01*
X58021Y-5541D01*
X59209Y-3483D01*
X59824Y-1188D01*
Y1188D01*
X59209Y3483D01*
X58021Y5541D01*
X56341Y7221D01*
X54283Y8409D01*
X51988Y9024D01*
D02*
G37*
G36*
X26588D02*
X24212D01*
X21917Y8409D01*
X19859Y7221D01*
X18179Y5541D01*
X16991Y3483D01*
X16376Y1188D01*
Y-1188D01*
X16991Y-3483D01*
X18179Y-5541D01*
X19859Y-7221D01*
X21917Y-8409D01*
X24212Y-9024D01*
X26588D01*
X28883Y-8409D01*
X30941Y-7221D01*
X32621Y-5541D01*
X33809Y-3483D01*
X34424Y-1188D01*
Y1188D01*
X33809Y3483D01*
X32621Y5541D01*
X30941Y7221D01*
X28883Y8409D01*
X26588Y9024D01*
D02*
G37*
G36*
X1188D02*
X-1188D01*
X-3483Y8409D01*
X-5541Y7221D01*
X-7221Y5541D01*
X-8409Y3483D01*
X-9024Y1188D01*
Y-1188D01*
X-8409Y-3483D01*
X-7221Y-5541D01*
X-5541Y-7221D01*
X-3483Y-8409D01*
X-1188Y-9024D01*
X1188D01*
X3483Y-8409D01*
X5541Y-7221D01*
X7221Y-5541D01*
X8409Y-3483D01*
X9024Y-1188D01*
Y1188D01*
X8409Y3483D01*
X7221Y5541D01*
X5541Y7221D01*
X3483Y8409D01*
X1188Y9024D01*
D02*
G37*
%LPD*%
G54D61*
X-588Y132354D02*
D03*
Y45954D02*
D03*
G54D62*
X41213D02*
D03*
Y132354D02*
D03*
G54D63*
X25400Y152400D02*
D03*
G54D64*
X467293Y-7796D02*
D03*
X441893D02*
D03*
X422843Y106504D02*
D03*
X416493Y93805D02*
D03*
X422843Y81104D02*
D03*
X416493Y68404D02*
D03*
X422843Y55704D02*
D03*
X416493Y43004D02*
D03*
Y-7796D02*
D03*
X403793Y17605D02*
D03*
X391093Y170005D02*
D03*
Y119205D02*
D03*
Y-7796D02*
D03*
X384743Y131904D02*
D03*
X378393Y119205D02*
D03*
X365693Y170005D02*
D03*
X372043Y131904D02*
D03*
X365693Y119205D02*
D03*
X372043Y81104D02*
D03*
X365693Y43004D02*
D03*
X372043Y30305D02*
D03*
X365693Y17605D02*
D03*
Y-7796D02*
D03*
X359343Y131904D02*
D03*
X352993Y119205D02*
D03*
X340293Y170005D02*
D03*
X346643Y30305D02*
D03*
X340293Y-7796D02*
D03*
X321243Y157304D02*
D03*
X314893Y-7796D02*
D03*
X308543Y157304D02*
D03*
X289493Y-7796D02*
D03*
X276793Y119205D02*
D03*
X264093Y170005D02*
D03*
Y119205D02*
D03*
Y17605D02*
D03*
Y-7796D02*
D03*
X251393Y119205D02*
D03*
Y43004D02*
D03*
X238693Y119205D02*
D03*
Y43004D02*
D03*
Y17605D02*
D03*
X225993Y119205D02*
D03*
Y43004D02*
D03*
X213293Y170005D02*
D03*
Y43004D02*
D03*
Y17605D02*
D03*
Y-7796D02*
D03*
X200593Y119205D02*
D03*
Y43004D02*
D03*
X187893Y170005D02*
D03*
X194243Y157304D02*
D03*
X187893Y43004D02*
D03*
X194243Y30305D02*
D03*
X187893Y-7796D02*
D03*
X162493Y170005D02*
D03*
X168843Y157304D02*
D03*
X162493Y-7796D02*
D03*
X149793Y119205D02*
D03*
X137093Y170005D02*
D03*
Y119205D02*
D03*
Y-7796D02*
D03*
X124393Y119205D02*
D03*
X111693D02*
D03*
Y-7796D02*
D03*
X86293D02*
D03*
X60893D02*
D03*
X35493Y144605D02*
D03*
Y17605D02*
D03*
Y-7796D02*
D03*
X22793Y119205D02*
D03*
X29143Y106504D02*
D03*
X22793Y93805D02*
D03*
X10093Y144605D02*
D03*
X16443Y131904D02*
D03*
X10093Y119205D02*
D03*
X16443Y106504D02*
D03*
X10093Y93805D02*
D03*
Y-7796D02*
D03*
X-2607Y119205D02*
D03*
X3743Y106504D02*
D03*
X-2607Y93805D02*
D03*
X3743Y81104D02*
D03*
X-2607Y68404D02*
D03*
X3743Y55704D02*
D03*
G54D65*
X257556Y108966D02*
D03*
X252984Y58928D02*
D03*
X349250Y55372D02*
D03*
X375158D02*
D03*
X341376Y59436D02*
D03*
X420624Y113792D02*
D03*
X88257Y93095D02*
D03*
X97790Y65532D02*
D03*
X119888Y87630D02*
D03*
G54D66*
X291846Y84328D02*
D03*
X332994Y76962D02*
D03*
X306832Y79502D02*
D03*
X297180Y74676D02*
D03*
M02*
